<?xml version="1.0" standalone="no"?>
<!DOCTYPE svg PUBLIC "-//W3C//DTD SVG 1.1//EN" "http://www.w3.org/Graphics/SVG/1.1/DTD/svg11.dtd" >
<svg xmlns="http://www.w3.org/2000/svg" xmlns:xlink="http://www.w3.org/1999/xlink" version="1.1">
<metadata>
Created by FontForge 20170731 at Mon Oct  9 07:45:44 2017
 By Aleksey,,,
Copyright (C)2017 Commercial Type.
</metadata>
<defs>
<font id="DrukWideMediumCy" horiz-adv-x="706" >
  <font-face 
    font-family="Druk Wide Medium Cy"
    font-weight="500"
    font-stretch="normal"
    units-per-em="1000"
    panose-1="0 0 0 0 0 0 0 0 0 0"
    ascent="800"
    descent="-200"
    x-height="538"
    cap-height="744"
    bbox="-111 -283 2500 1197"
    underline-thickness="84"
    underline-position="-188"
    unicode-range="U+001D-FB04"
  />
<missing-glyph horiz-adv-x="308" 
 />
    <glyph glyph-name="uniFB00" unicode="ff" horiz-adv-x="897" 
d="M117 0v390h-103v148h103v64q0 25 7.5 50.5t28 45.5t57 33t94.5 13h161v-132h-86q-26 0 -34 -10.5t-8 -33.5v-30h189v64q0 25 7.5 50.5t28 45.5t57 33t94.5 13h162v-132h-87q-26 0 -34 -10.5t-8 -33.5v-30h129v-148h-129v-390h-220v390h-189v-390h-220z" />
    <glyph glyph-name="uniFB01" unicode="fi" horiz-adv-x="796" 
d="M463 612h-84q-26 0 -34 -10.5t-8 -33.5v-30h126v-148h-126v-390h-220v390h-103v148h103v64q0 25 7.5 50.5t28 45.5t57 33t94.5 13h159v-132zM749 590h-223v154h223v-154zM749 0h-223v538h223v-538z" />
    <glyph glyph-name="uniFB02" unicode="fl" horiz-adv-x="796" 
d="M463 612h-84q-26 0 -34 -10.5t-8 -33.5v-30h126v-148h-126v-390h-220v390h-103v148h103v64q0 25 7.5 50.5t28 45.5t57 33t94.5 13h159v-132zM749 0h-223v744h223v-744z" />
    <glyph glyph-name="emdash.alt" unicode="&#x2014;&#x2014;" horiz-adv-x="2538" 
d="M2500 234h-2462v130h2462v-130z" />
    <glyph glyph-name=".notdef" horiz-adv-x="308" 
 />
    <glyph glyph-name=".null" horiz-adv-x="0" 
 />
    <glyph glyph-name=".null" horiz-adv-x="0" 
 />
    <glyph glyph-name="nonmarkingreturn" horiz-adv-x="308" 
 />
    <glyph glyph-name="uni0008" horiz-adv-x="0" 
 />
    <glyph glyph-name="space" unicode=" " horiz-adv-x="308" 
 />
    <glyph glyph-name="exclam" unicode="!" horiz-adv-x="320" 
d="M296 744l-69 -518h-134l-69 518h272zM281 0h-242v175h242v-175z" />
    <glyph glyph-name="quotedbl" unicode="&#x22;" horiz-adv-x="485" 
d="M450 497h-182v247h182v-247zM217 497h-182v247h182v-247z" />
    <glyph glyph-name="numbersign" unicode="#" horiz-adv-x="778" 
d="M475 451h-140l-34 -125h140zM410 215h-140l-59 -215h-143l59 215h-124l30 111h124l35 125h-125l31 111h124l50 182h144l-50 -182h140l50 182h144l-50 -182h125l-31 -111h-125l-35 -125h127l-31 -111h-126l-60 -215h-143z" />
    <glyph glyph-name="dollar" unicode="$" horiz-adv-x="948" 
d="M259 538q0 -11 5 -22t21.5 -20t47.5 -15.5t82 -9.5v135q-56 -2 -87.5 -8.5t-46.5 -16t-18.5 -20.5t-3.5 -22v-1zM692 227q0 16 -7 29t-26.5 22.5t-56 15.5t-94.5 8v-164q62 2 98.5 10.5t55.5 21t24.5 26.5t5.5 27v4zM415 -75v62q-89 2 -153.5 15.5t-108.5 35t-71 49
t-41.5 56.5t-19 57.5t-4.5 52.5v11h235q0 -16 6.5 -35.5t24 -37.5t49 -32t83.5 -19v165l-39 1q-101 3 -168 21.5t-107 47.5t-57 67t-17 81v9q0 42 15.5 81.5t58 70.5t118 50t196.5 19v60h93v-60q120 -2 196.5 -23t120.5 -53.5t61 -73t17 -81.5v-10h-234q-1 12 -6 26.5
t-22 28t-48.5 24t-84.5 13.5v-137l44 -1q101 -3 172.5 -16.5t116.5 -39.5t66 -65.5t21 -94.5v-14q0 -47 -15.5 -91.5t-60.5 -79.5t-127.5 -56.5t-216.5 -21.5v-62h-93z" />
    <glyph glyph-name="percent" unicode="%" horiz-adv-x="1410" 
d="M310 321q-91 0 -146.5 22.5t-85.5 54.5t-40 68.5t-10 63.5v17q0 28 10 63.5t40 67t85.5 53.5t146.5 22h24q91 0 146 -22t85 -53.5t40 -67t10 -63.5v-17q0 -18 -4 -40.5t-15 -46t-30.5 -45.5t-50.5 -39t-75.5 -27.5t-105.5 -10.5h-24zM1204 744l-802 -744h-197l801 744
h198zM321 444q37 0 62.5 8t41.5 21t22.5 29t6.5 32v8q0 18 -6.5 34t-22 28t-41 19t-63.5 7t-63 -7t-40 -19t-21.5 -28t-6.5 -34v-6q0 -17 6.5 -33.5t22 -29.5t40.5 -21t62 -8zM1076 -8q-90 0 -145.5 22.5t-86 55t-40.5 69t-10 63.5v17q0 28 10 63.5t40.5 67t86 53.5
t145.5 22h25q90 0 145.5 -22t85.5 -53.5t40 -67t10 -63.5v-17q0 -27 -10 -63.5t-40 -69t-85 -55t-146 -22.5h-25zM1088 116q37 0 62.5 8t41.5 21t22.5 29t6.5 32v8q0 17 -6.5 33t-22 28t-41 19.5t-63.5 7.5t-63.5 -7.5t-40.5 -19.5t-21.5 -28t-6.5 -33v-6q0 -17 6.5 -33.5
t22 -29.5t40.5 -21t63 -8z" />
    <glyph glyph-name="ampersand" unicode="&#x26;" horiz-adv-x="1096" 
d="M370 577q0 -28 28.5 -53t84.5 -63q59 18 97.5 41.5t38.5 58.5q0 16 -5.5 29.5t-20.5 23t-41 15t-67 5.5q-35 0 -57.5 -4.5t-35.5 -12t-17.5 -18t-4.5 -22.5zM470 132q96 0 164 18l-300 195q-32 -12 -56 -34.5t-24 -60.5v-3q0 -21 11.5 -41.5t37 -37t67 -26.5t100.5 -10z
M1041 -11q-84 0 -141 16t-106 43q-60 -28 -138.5 -44.5t-178.5 -16.5q-141 0 -230.5 19.5t-141 51t-70.5 72t-19 82.5v11q0 74 58.5 118.5t171.5 61.5q-48 36 -73.5 79t-25.5 88v8q0 32 11 64.5t44.5 58.5t95.5 42.5t164 16.5h53q68 0 117.5 -8t83.5 -22t55 -32t32.5 -37.5
t15.5 -39.5t4 -38v-5q0 -30 -11.5 -57t-39.5 -50.5t-75 -43t-117 -32.5l203 -137q16 25 25.5 52t15 52.5t7.5 48t2 40.5h219q-1 -30 -6.5 -64.5t-17.5 -71.5t-31.5 -74t-48.5 -72q32 -9 69 -13t86 -4z" />
    <glyph glyph-name="quotesingle" unicode="'" horiz-adv-x="252" 
d="M217 497h-182v247h182v-247z" />
    <glyph glyph-name="parenleft" unicode="(" horiz-adv-x="336" 
d="M35 339q0 81 16.5 151t43 128.5t58.5 105.5t64 84h122q-27 -45 -49.5 -98.5t-39 -113t-26 -124.5t-9.5 -133t9.5 -133t26 -125t39 -113.5t49.5 -98.5h-122q-33 37 -66 84.5t-58.5 106t-41.5 128t-16 151.5z" />
    <glyph glyph-name="parenright" unicode=")" horiz-adv-x="336" 
d="M-3 -131q27 45 49.5 98.5t39 113.5t26 125t9.5 133t-9.5 133t-26 124.5t-39 113t-49.5 98.5h122q31 -37 63.5 -84t59 -105.5t43 -128.5t16.5 -151q0 -82 -16 -151.5t-41.5 -128t-58.5 -106t-66 -84.5h-122v0z" />
    <glyph glyph-name="asterisk" unicode="*" horiz-adv-x="451" 
d="M369 711l61 -112l-130 -37l130 -38l-61 -111l-98 81l29 -116h-149l30 116l-97 -81l-63 111l128 38l-128 37l63 112l97 -82l-30 115h149l-29 -115z" />
    <glyph glyph-name="plus" unicode="+" horiz-adv-x="623" 
d="M395 239v-176h-168v176h-189v138h189v176h168v-176h190v-138h-190z" />
    <glyph glyph-name="comma" unicode="," horiz-adv-x="311" 
d="M102 -98q13 25 23 50t14 48h-104v175h241v-145q0 -15 -4.5 -32.5t-11 -34.5t-15 -33t-16.5 -28h-127z" />
    <glyph glyph-name="hyphen" unicode="-" horiz-adv-x="397" 
d="M359 383v-172h-321v172h321z" />
    <glyph glyph-name="period" unicode="." horiz-adv-x="311" 
d="M276 0h-241v175h241v-175z" />
    <glyph glyph-name="slash" unicode="/" horiz-adv-x="470" 
d="M132 -131h-169l347 939h170z" />
    <glyph glyph-name="zero" unicode="0" horiz-adv-x="1102" 
d="M1075 359q0 -32 -6.5 -72.5t-25.5 -82t-53.5 -80.5t-90 -69.5t-136 -49t-190.5 -18.5h-44q-110 0 -190 18.5t-135.5 49t-90.5 69.5t-54 80.5t-25.5 81.5t-6.5 73v30q0 33 6.5 73t25.5 81t54 79.5t90.5 68.5t135.5 48t190 18h44q110 0 190 -18t136 -48t90.5 -68.5
t53.5 -79.5t25.5 -81t6.5 -73v-30zM831 382q0 32 -11.5 66t-43 62.5t-86 47t-139.5 18.5q-87 0 -141.5 -18.5t-85.5 -47t-42 -62.5t-11 -66v-12q0 -32 12 -67t43 -65t85.5 -49.5t139.5 -19.5t139.5 19t85.5 48.5t43 64.5t12 67v14z" />
    <glyph glyph-name="one" unicode="1" horiz-adv-x="485" 
d="M20 461v140q48 3 84 15t62.5 30.5t44.5 43t31 54.5h182v-744h-231v461h-173z" />
    <glyph glyph-name="two" unicode="2" horiz-adv-x="971" 
d="M29 0v84q0 27 3 58.5t15 64.5t35 65.5t64 62t101.5 54.5t146.5 43l174 36q38 7 60 14.5t33 15t14 15.5t3 17q0 11 -6 21t-26 18t-57 12.5t-98 4.5q-70 0 -110.5 -11t-61.5 -27.5t-27 -34.5t-7 -32h-243v8q0 21 4.5 49.5t19 58t42.5 58.5t75 51.5t115.5 36.5t164.5 14h40
q131 0 213.5 -19t128.5 -51t62.5 -73.5t16.5 -85.5v-2q0 -42 -10.5 -76.5t-41.5 -62t-87.5 -48.5t-147.5 -36l-204 -34q-66 -12 -105 -25t-59 -25.5t-26 -24t-6 -18.5h471v96h229v-272h-908z" />
    <glyph glyph-name="three" unicode="3" horiz-adv-x="972" 
d="M459 -13q-101 0 -173.5 15t-121.5 39.5t-78.5 55.5t-45 61.5t-20 58.5t-4.5 47v8h245q1 -7 6.5 -25.5t27 -38t65 -34.5t120.5 -15q79 0 124 8.5t67.5 21.5t27.5 27.5t5 25.5t-4 21.5t-15 18.5t-31.5 13t-53.5 5h-263v173h251q31 0 50 4t29.5 11t14 16t3.5 18
q0 10 -5.5 21.5t-28 21t-66.5 16t-120 6.5q-75 0 -115.5 -11t-60 -25.5t-23.5 -28.5t-5 -20h-243v10q0 17 4 41.5t18.5 52t42 54.5t74.5 48.5t117 35t169 13.5h42q99 0 171 -8.5t121 -23.5t79 -34t46.5 -40.5t21.5 -43.5t5 -42v-6q0 -29 -12 -51.5t-29.5 -38t-38.5 -25.5
t-39 -14q22 -6 47 -19t46 -35t35 -53.5t14 -74.5v-7q0 -47 -18 -92.5t-67.5 -81.5t-136 -58t-224.5 -22h-47z" />
    <glyph glyph-name="four" unicode="4" horiz-adv-x="954" 
d="M537 747h251v-420h151v-173h-151v-154h-230v154h-545v141zM558 561l-273 -234h273v234z" />
    <glyph glyph-name="five" unicode="5" horiz-adv-x="936" 
d="M456 -13q-93 0 -161 12.5t-115 33t-75.5 46.5t-44 52.5t-21 51.5t-5.5 43v7h246q1 -4 7 -16t26 -25t59 -23t107 -10q64 0 102 8.5t58 21.5t26 29.5t6 31.5v6q0 15 -6 31.5t-26 29.5t-58 21.5t-102 8.5q-68 0 -107 -8.5t-60 -19t-27.5 -20t-7.5 -12.5h-227v457h813v-173
h-584v-133q5 4 21.5 15.5t48 23.5t79.5 21t116 9h9q111 0 181 -20t110.5 -54t55.5 -79.5t15 -96.5v-6q0 -45 -16.5 -92t-62 -85.5t-126 -62.5t-207.5 -24h-47z" />
    <glyph glyph-name="six" unicode="6" horiz-adv-x="992" 
d="M489 -15q-96 0 -167 16t-122.5 43t-84.5 63.5t-52 78.5t-26.5 86t-7.5 87v24q0 64 20 130.5t71 120.5t138 88.5t222 34.5h40q126 0 207 -22.5t128 -57t65 -75.5t18 -78v-4h-240q-2 3 -8.5 13.5t-27 22t-59 20.5t-103.5 9q-81 0 -128 -20t-71.5 -48t-31.5 -57.5t-7 -48.5
v-4q9 6 26.5 18t52.5 24t90.5 21t139.5 9h13q117 0 192 -19.5t118 -51.5t59.5 -73.5t16.5 -85.5v-9q0 -41 -15.5 -86t-62.5 -82.5t-132.5 -62t-226.5 -24.5h-44zM292 240q0 -13 8 -28t32 -28t66.5 -21.5t111.5 -8.5q72 0 114.5 8t65 20.5t29.5 27t7 27.5v4q0 14 -7 28.5
t-29.5 26.5t-65 19.5t-114.5 7.5q-69 0 -112 -7t-66.5 -18.5t-31.5 -26t-8 -28.5v-3z" />
    <glyph glyph-name="seven" unicode="7" horiz-adv-x="945" 
d="M924 744v-157q-12 -14 -31.5 -35.5t-44.5 -49t-53 -61.5t-56 -71q-43 -57 -67 -103.5t-36 -89t-15 -83t-3 -85.5v-9h-267v94q0 45 9 82t31.5 75t59.5 80t94 96q41 39 68 65t44 42.5t24.5 26t9.5 15.5h-420v-153h-236v321h889z" />
    <glyph glyph-name="eight" unicode="8" horiz-adv-x="968" 
d="M928 546q0 -36 -15.5 -63.5t-38.5 -46.5t-49.5 -30t-48.5 -14q29 -5 59.5 -17.5t55 -33.5t40.5 -50t16 -66v-13q0 -21 -5 -46t-21.5 -50t-46 -48.5t-78.5 -42t-120 -29.5t-170 -11h-44q-101 0 -173 11t-121 29.5t-78 42t-44.5 48.5t-20.5 50t-5 46v13q0 36 16 64.5
t41.5 49.5t55.5 34t59 19q-24 4 -51.5 15t-50 30t-37.5 46t-15 63v10q0 17 4 38.5t18 44t41.5 44t74.5 38t117 26.5t169 10h44q99 0 168.5 -10t116.5 -26.5t74 -38t41 -44t18 -44t4 -38.5v-10zM687 538q0 10 -5 22.5t-25.5 23t-61 17.5t-112.5 7t-112.5 -7t-61 -17.5
t-25 -23t-4.5 -22.5v-3q0 -11 5.5 -23.5t25.5 -23.5t60.5 -18t111.5 -7t112 7t61.5 18t25.5 23.5t5 23.5v3zM707 229q0 13 -6 26.5t-28.5 24t-67.5 17.5t-122 7q-78 0 -122.5 -7t-67 -17.5t-28 -24t-5.5 -26.5v-3q0 -12 6 -25.5t29 -25.5t67 -19.5t121 -7.5t122 7.5
t67.5 19.5t28.5 25.5t6 25.5v3z" />
    <glyph glyph-name="nine" unicode="9" horiz-adv-x="992" 
d="M700 505q0 13 -8.5 27.5t-32 26.5t-66 20t-111.5 8q-71 0 -113.5 -8t-65 -20t-29.5 -26.5t-7 -27.5v-3q0 -14 7 -29t29.5 -27t65 -20t113.5 -8q70 0 113 8t66 20.5t31 27t8 28.5v3zM478 -15q-124 0 -205.5 23t-130 57.5t-68.5 75.5t-20 77v4h241q1 -4 8 -14.5t27.5 -22
t59 -20t103.5 -8.5q80 0 127 20t71.5 48t31.5 57.5t7 48.5v3q-8 -6 -26 -18t-52 -24t-87 -21t-131 -9h-13q-117 0 -194 19.5t-122.5 51.5t-64 74t-18.5 86v9q0 27 5.5 57t21.5 58t45.5 53.5t78 45t118 30.5t165.5 11h44q139 0 229 -31t142 -83t72.5 -119.5t20.5 -140.5v-24
q0 -66 -19 -132.5t-68.5 -120t-136 -87.5t-222.5 -34h-40z" />
    <glyph glyph-name="colon" unicode=":" horiz-adv-x="313" 
d="M277 309h-241v175h241v-175zM277 0h-241v175h241v-175z" />
    <glyph glyph-name="semicolon" unicode=";" horiz-adv-x="313" 
d="M277 309h-241v175h241v-175zM103 -98q13 25 23 50t14 48h-104v175h241v-145q0 -15 -4.5 -32.5t-11 -34.5t-15 -33t-16.5 -28h-127z" />
    <glyph glyph-name="less" unicode="&#x3c;" horiz-adv-x="545" 
d="M38 223v159l466 157v-152l-316 -85l316 -83v-151z" />
    <glyph glyph-name="equal" unicode="=" horiz-adv-x="592" 
d="M549 472v-128h-506v128h506zM549 274v-127h-506v127h506z" />
    <glyph glyph-name="greater" unicode="&#x3e;" horiz-adv-x="545" 
d="M41 219l316 83l-316 85v152l466 -157v-159l-466 -155v151z" />
    <glyph glyph-name="question" unicode="?" horiz-adv-x="851" 
d="M262 241v75q0 27 6 48t23.5 38t49 31t82.5 27l84 21q31 8 49 16t28 15.5t13 15t3 16.5q0 10 -3.5 19t-20 16.5t-50.5 12t-94 4.5q-68 0 -105 -10.5t-54 -25t-20.5 -30.5t-4.5 -27h-228v12q0 23 2.5 50t14 53t35.5 50.5t66.5 43.5t107.5 30t158 11h56q118 0 191 -18.5
t113 -48.5t53.5 -67t13.5 -73v-7q0 -71 -43.5 -121.5t-148.5 -77.5l-83 -22q-24 -6 -37 -12.5t-19.5 -14.5t-8 -18.5t-1.5 -24.5v-7h-228zM500 0h-241v175h241v-175z" />
    <glyph glyph-name="at" unicode="@" horiz-adv-x="1329" 
d="M675 -161q-133 0 -233 18t-172 49t-119 74t-74.5 93.5t-38.5 105.5t-11 112v12q0 91 29 171t101 140t193.5 94.5t305.5 34.5h13q154 0 261 -18.5t177 -49.5t109.5 -71.5t58.5 -83.5t23 -86t4 -79v-11q0 -52 -15.5 -106.5t-53 -98.5t-101 -72.5t-159.5 -28.5h-17
q-44 0 -74 7.5t-49.5 19t-30 25t-16.5 25.5q-7 -7 -23.5 -20t-43 -25.5t-64 -22t-87.5 -9.5h-15q-77 0 -127.5 23.5t-80 61t-39.5 82.5t-4 89l7 50q4 36 19.5 71.5t45 63.5t73 45.5t103.5 17.5h15q57 0 98 -9.5t70 -22t47 -26.5t28 -23l9 69h220l-45 -356q-2 -16 6 -27.5
t29 -11.5q28 0 52.5 14.5t42.5 41.5t28.5 67t10.5 91v3q0 33 -3 67.5t-17 66t-44.5 59.5t-85 48.5t-138 32.5t-204.5 12h-13q-148 0 -241.5 -25.5t-146 -70.5t-72 -106.5t-19.5 -134.5v-12q0 -44 8.5 -86.5t29.5 -80.5t57 -70.5t91.5 -56t132 -36.5t179.5 -13
q118 0 202.5 9.5t142 22t91.5 26.5t52 23l38 -108q-18 -9 -54.5 -22.5t-99 -26.5t-154 -22t-218.5 -9zM790 301q5 46 -30.5 76t-109.5 30q-34 0 -57.5 -8t-38.5 -21t-22.5 -31t-9.5 -37l-2 -18q-3 -20 1.5 -40.5t18.5 -37.5t38 -28t61 -11q40 0 67 8.5t44.5 23t26 34
t11.5 41.5z" />
    <glyph glyph-name="A" unicode="A" horiz-adv-x="1044" 
d="M509 583l-138 -279h282zM739 136h-451l-67 -136h-237l376 744h302l398 -744h-251z" />
    <glyph glyph-name="B" unicode="B" horiz-adv-x="1025" 
d="M57 744h637q80 0 132.5 -14t83.5 -38t43.5 -54.5t12.5 -63.5v-14q0 -36 -13.5 -62t-32 -43t-39 -26.5t-33.5 -13.5q19 -5 46.5 -16.5t52.5 -33t43 -55t18 -82.5v-14q0 -44 -14 -83t-49.5 -68t-95 -46t-149.5 -17h-643v744zM290 587v-121h364q24 0 40 5t25 13.5t12.5 19.5
t3.5 22v2q0 12 -3.5 22.5t-12.5 18.5t-25 13t-40 5h-364zM290 308v-146h384q29 0 47 7t28 18t13.5 24t3.5 24v4q0 12 -3.5 24.5t-13.5 22t-28 16t-47 6.5h-384z" />
    <glyph glyph-name="C" unicode="C" horiz-adv-x="1089" 
d="M525 -13q-108 0 -186.5 18.5t-134 49t-90 69.5t-54 80.5t-26.5 82t-7 73.5v29q0 34 6.5 74.5t25 81t52.5 79t89.5 68t135 47.5t189.5 18h41q108 0 187 -15.5t134 -41t89.5 -57.5t54 -64.5t26.5 -62.5t7 -52v-11h-247q-2 7 -11.5 27.5t-38 42t-81 38t-141.5 16.5
q-84 0 -137 -17t-83.5 -44.5t-42 -62t-11.5 -69.5v-12q0 -33 12.5 -69t44 -66t85 -49.5t134.5 -19.5q90 0 143 18t81 41.5t36.5 45t10.5 27.5h247v-11q0 -23 -7.5 -55t-27.5 -65.5t-55 -66t-90.5 -58t-134 -41.5t-184.5 -16h-41z" />
    <glyph glyph-name="D" unicode="D" horiz-adv-x="1098" 
d="M57 744h493q108 0 188.5 -14.5t139 -39.5t96.5 -59t60.5 -73.5t31.5 -81.5t9 -84v-30q0 -40 -8.5 -82.5t-30.5 -82.5t-60 -76t-96 -63t-139 -42.5t-190 -15.5h-494v744zM290 179h242q99 0 158 19.5t90.5 48t41 62t9.5 62.5v6q0 28 -9 61.5t-40 62.5t-90.5 48t-159.5 19
h-242v-389z" />
    <glyph glyph-name="E" unicode="E" horiz-adv-x="891" 
d="M841 744v-169h-554v-110h541v-170h-541v-122h564v-173h-794v744h784z" />
    <glyph glyph-name="F" unicode="F" horiz-adv-x="867" 
d="M826 744v-169h-537v-110h524v-170h-524v-295h-232v744h769z" />
    <glyph glyph-name="G" unicode="G" horiz-adv-x="1121" 
d="M523 -13q-101 0 -177 17.5t-131 46.5t-91 67t-57.5 79.5t-30.5 84t-9 79.5v28q0 36 7.5 77.5t28 82.5t56 78.5t91.5 66.5t135 46t186 17h43q104 0 181 -14t131 -37t89 -52.5t55 -60.5t28 -62t9 -56v-1h-248q-2 6 -11 23.5t-36.5 36t-79 32.5t-138.5 14q-85 0 -140 -17
t-86.5 -45t-44 -64t-12.5 -75v-11q0 -36 15 -72t48.5 -64.5t87 -46t130.5 -17.5q83 0 138.5 13.5t88.5 31.5t47 35.5t14 25.5v2h-292v141h524v-417h-140q-1 10 -4 25t-7 31.5t-9 32t-10 27.5q-12 -14 -37 -36t-67.5 -42.5t-105 -35.5t-148.5 -15h-21z" />
    <glyph glyph-name="H" unicode="H" horiz-adv-x="1080" 
d="M57 744h233v-271h500v271h233v-744h-233v293h-500v-293h-233v744z" />
    <glyph glyph-name="I" unicode="I" horiz-adv-x="347" 
d="M290 0h-233v744h233v-744z" />
    <glyph glyph-name="J" unicode="J" horiz-adv-x="896" 
d="M402 -11q-116 0 -192.5 30.5t-121.5 77.5t-63 104t-18 110v6h236q1 -12 6.5 -36t24 -48t54 -41.5t95.5 -17.5h12q92 0 135.5 49.5t43.5 134.5v386h234v-392q0 -39 -7 -80.5t-24 -82t-45.5 -77t-71.5 -64t-103 -43.5t-139 -16h-56v0z" />
    <glyph glyph-name="K" unicode="K" horiz-adv-x="968" 
d="M57 0v744h233v-310l381 310h296l-428 -340l448 -404h-304l-393 351v-351h-233z" />
    <glyph glyph-name="L" unicode="L" horiz-adv-x="836" 
d="M290 744v-559h517v-185h-750v744h233z" />
    <glyph glyph-name="M" unicode="M" horiz-adv-x="1279" 
d="M57 744h331l257 -463l258 463h319v-744h-230v515l-293 -515h-125l-293 515v-515h-224v744z" />
    <glyph glyph-name="N" unicode="N" horiz-adv-x="1079" 
d="M317 744l475 -468v468h230v-744h-230l-505 493v-493h-230v744h260z" />
    <glyph glyph-name="O" unicode="O" horiz-adv-x="1144" 
d="M594 757q117 0 201 -18t142.5 -48t93.5 -68.5t54.5 -79t25.5 -81t6 -73.5v-30q0 -33 -6 -73t-25 -81.5t-54.5 -80.5t-93.5 -69.5t-142.5 -49t-201.5 -18.5h-43q-118 0 -202.5 18.5t-142.5 49t-93.5 69.5t-54.5 80.5t-25 81.5t-6 73v30q0 33 6 73.5t25 81t54.5 79
t93.5 68.5t142.5 48t202.5 18h43zM873 382q0 32 -11.5 66.5t-44.5 63t-92 47t-153 18.5q-96 0 -155 -18.5t-91.5 -47t-43.5 -63t-11 -66.5v-12q0 -32 11.5 -67.5t44.5 -65.5t92 -49.5t153 -19.5t152.5 19t91.5 48.5t45 65t12 67.5v14z" />
    <glyph glyph-name="P" unicode="P" horiz-adv-x="982" 
d="M290 248v-248h-233v744h558q100 0 167 -18.5t107 -51.5t56.5 -77t16.5 -95v-10q0 -50 -17 -94.5t-57 -77.5t-106.5 -52.5t-166.5 -19.5h-325zM290 415h321q55 0 81.5 20t26.5 58v3q0 38 -26 58.5t-82 20.5h-321v-160z" />
    <glyph glyph-name="Q" unicode="Q" horiz-adv-x="1143" 
d="M483 -11q-101 5 -174 26t-123.5 51.5t-81.5 68.5t-48 77t-23 77t-6 70v30q0 34 6 74.5t25.5 81t54.5 79t93.5 68t143 47.5t201.5 18h43q116 0 200 -18t142 -47.5t93.5 -68t55 -79t26 -81t6.5 -74.5v-30q0 -30 -5 -67t-20.5 -74.5t-44 -74.5t-74 -67.5t-111.5 -52.5
t-157 -31l116 -147h-338v144zM873 382q0 33 -11.5 68t-44.5 63t-92 46t-153 18q-96 0 -155 -18t-91.5 -46t-43.5 -62.5t-11 -68.5v-12q0 -33 11.5 -68.5t44.5 -65.5t92 -49t153 -19t152.5 19t91.5 48t45 64.5t12 68.5v14z" />
    <glyph glyph-name="R" unicode="R" horiz-adv-x="1018" 
d="M290 429h353q50 0 72 21t22 52v1q0 29 -21.5 50.5t-72.5 21.5h-353v-146zM290 0h-233v744h600q93 0 155 -15t99.5 -41.5t53 -61.5t15.5 -75v-12q0 -40 -14.5 -68t-36 -47.5t-45.5 -30.5t-42 -17q28 -8 54 -22t45 -35.5t30.5 -49.5t11.5 -64v-109q0 -45 4.5 -63.5
t9.5 -27.5v-5h-237q-5 7 -8 17t-3 30v86q0 68 -34.5 99.5t-120.5 31.5h-304v-264z" />
    <glyph glyph-name="S" unicode="S" horiz-adv-x="981" 
d="M454 -13q-97 0 -167.5 13t-118.5 34.5t-77.5 49t-45.5 57t-21 58.5t-5 54v11h243q1 -17 8.5 -37.5t31 -38.5t66.5 -30t115 -12h14q73 0 116.5 6.5t66 18t29 25.5t6.5 29q0 16 -6.5 29t-26.5 23t-59 15.5t-103 7.5l-128 3q-104 3 -174 21t-112 47.5t-59.5 67.5t-17.5 82v9
q0 42 15.5 82.5t60 72.5t123.5 52t206 20h69q132 0 216 -21t132 -54.5t66 -75.5t18 -84v-10h-242q-2 11 -8.5 26t-28 29t-63.5 24t-115 10h-16q-68 0 -106.5 -5.5t-57.5 -14.5t-24 -20.5t-5 -23.5t5.5 -23t23.5 -20t52 -14.5t91 -6.5l125 -2q105 -2 179.5 -16t122 -41
t69.5 -68t22 -96v-14q0 -46 -15.5 -90.5t-62 -80t-132.5 -57t-226 -21.5h-69v0z" />
    <glyph glyph-name="T" unicode="T" horiz-adv-x="932" 
d="M348 568h-320v176h876v-176h-321v-568h-235v568z" />
    <glyph glyph-name="U" unicode="U" horiz-adv-x="1053" 
d="M512 -11q-100 0 -173 19.5t-124.5 51.5t-84 73.5t-51 85t-25 86.5t-6.5 78v361h234v-347q0 -36 10 -74t37 -69.5t75 -51.5t124 -20q75 0 122.5 20t74.5 51.5t37 69.5t10 74v347h233v-361q0 -35 -7.5 -78t-26.5 -86.5t-51.5 -85t-83.5 -73.5t-122 -51.5t-166 -19.5h-36z
" />
    <glyph glyph-name="V" unicode="V" horiz-adv-x="1013" 
d="M375 0l-387 744h264l274 -547l257 547h242l-360 -744h-290z" />
    <glyph glyph-name="W" unicode="W" horiz-adv-x="1423" 
d="M294 0l-306 744h254l192 -512l166 512h248l170 -497l188 497h229l-301 -744h-235l-179 498l-169 -498h-257z" />
    <glyph glyph-name="X" unicode="X" horiz-adv-x="1014" 
d="M-10 0l370 376l-362 368h312l210 -218l210 218h286l-357 -363l365 -381h-293l-228 231l-226 -231h-287z" />
    <glyph glyph-name="Y" unicode="Y" horiz-adv-x="974" 
d="M376 288l-398 456h289l231 -274l235 274h263l-387 -456v-288h-233v288z" />
    <glyph glyph-name="Z" unicode="Z" horiz-adv-x="913" 
d="M872 744v-136l-510 -432h517v-176h-845v137l497 435h-489v172h830z" />
    <glyph glyph-name="bracketleft" unicode="[" horiz-adv-x="350" 
d="M57 808h279v-110h-107v-718h107v-111h-279v939z" />
    <glyph glyph-name="backslash" unicode="\" horiz-adv-x="470" 
d="M-10 808h171l346 -939h-168z" />
    <glyph glyph-name="bracketright" unicode="]" horiz-adv-x="350" 
d="M14 -20h107v718h-107v110h279v-939h-279v111z" />
    <glyph glyph-name="asciicircum" unicode="^" horiz-adv-x="702" 
d="M352 617l-145 -189h-204l240 316h216l240 -316h-202z" />
    <glyph glyph-name="underscore" unicode="_" horiz-adv-x="821" 
d="M3 -20h815v-131h-815v131z" />
    <glyph glyph-name="grave" unicode="`" 
d="M299 590l-107 154h232l90 -154h-215z" />
    <glyph glyph-name="a" unicode="a" horiz-adv-x="800" 
d="M522 256l-213 -33q-43 -7 -62 -17t-19 -33v-1q0 -11 4.5 -22t16 -19.5t30 -14t47.5 -5.5q45 0 81 11t61.5 29t39.5 41t14 47v17zM528 74q-9 -11 -27 -25t-47.5 -27.5t-72 -22.5t-102.5 -9h-13q-68 0 -115.5 14.5t-77.5 39t-43.5 56t-13.5 66.5v7q0 74 52.5 112t173.5 49
l246 23q19 2 26.5 8.5t7.5 19.5q0 7 -3.5 15t-17.5 14.5t-42 10.5t-77 4h-5q-50 0 -78 -7t-41.5 -16.5t-17 -19.5t-4.5 -17h-207v2q0 18 3 38.5t13.5 40.5t31.5 38.5t56.5 33t88.5 23t128 8.5h55q117 0 183.5 -16t99.5 -41.5t41 -56.5t8 -60v-206q0 -12 5.5 -19.5t22.5 -7.5
h29v-146h-181q-32 0 -55.5 18t-29.5 56z" />
    <glyph glyph-name="b" unicode="b" horiz-adv-x="912" 
d="M270 744v-281q9 7 29.5 21.5t53.5 29.5t79.5 26t106.5 11h18q91 0 154 -21.5t102 -58.5t56 -86t17 -104v-19q0 -54 -19 -104t-59.5 -88t-104 -60.5t-153.5 -22.5h-17q-58 0 -103.5 11t-79 25.5t-54.5 29.5t-29 23q-5 -16 -8.5 -36.5t-5.5 -39.5h-206v744h223zM270 269
q0 -25 12 -50t36 -45t60.5 -32.5t85.5 -12.5h6q54 0 90.5 12.5t58 33t30.5 45.5t9 49v4q0 26 -9 51t-30.5 44.5t-58 31.5t-90.5 12h-6q-50 0 -86.5 -12t-60.5 -31.5t-35.5 -44.5t-11.5 -51v-4z" />
    <glyph glyph-name="c" unicode="c" horiz-adv-x="850" 
d="M397 -15q-115 0 -188 26.5t-114.5 67t-57 89.5t-15.5 94v20q0 45 15.5 93t56.5 87.5t114 65t188 25.5h57q84 0 144.5 -12.5t102.5 -32.5t68 -45.5t40 -51.5t18.5 -50.5t4.5 -42.5v-3h-229q-2 8 -8.5 24t-25 32.5t-53 28.5t-91.5 12h-3q-49 0 -81.5 -11t-52.5 -30
t-28.5 -43t-8.5 -49v-7q0 -27 8.5 -53t28.5 -46t53 -32.5t81 -12.5h3q56 0 90.5 12.5t53.5 29t25.5 33t8.5 24.5h229v-2q0 -19 -4 -44t-17.5 -51.5t-39 -52.5t-67.5 -46.5t-103.5 -33t-147.5 -12.5h-55z" />
    <glyph glyph-name="d" unicode="d" horiz-adv-x="909" 
d="M638 272q0 26 -13.5 51t-39 44.5t-64 31t-87.5 11.5h-5q-53 0 -87.5 -11.5t-54.5 -31t-28.5 -44.5t-8.5 -51v-4q0 -24 10 -49t31.5 -45t56 -32.5t83.5 -12.5h5q50 0 87.5 12t63 31.5t38.5 44.5t13 51v4zM862 744v-744h-222v82q-6 -8 -24 -23.5t-50 -31.5t-79.5 -28
t-112.5 -12h-13q-90 0 -154 22t-105 60t-60.5 88t-19.5 107v19q0 54 17.5 102.5t57 85.5t102.5 58.5t153 21.5h16q63 0 109.5 -10t79 -24t52.5 -28.5t29 -22.5v278h224z" />
    <glyph glyph-name="e" unicode="e" horiz-adv-x="851" 
d="M424 428q-84 0 -125 -24t-54 -67h360q-11 43 -53 67t-127 24h-1zM827 189q0 -27 -12.5 -62.5t-51.5 -67t-112 -53t-193 -21.5h-57q-108 0 -180.5 23t-116.5 61.5t-63 88t-19 102.5v22q0 52 17.5 100.5t60 86.5t114.5 61t181 23h61q118 0 191.5 -27t114 -69t54.5 -93.5
t14 -100.5v-37h-589q10 -47 54 -76t136 -29h1q55 0 89 9t53 20.5t25.5 23t7.5 16.5h220v-1z" />
    <glyph glyph-name="f" unicode="f" horiz-adv-x="488" 
d="M466 612h-87q-26 0 -34 -10.5t-8 -33.5v-30h129v-148h-129v-390h-220v390h-103v148h103v64q0 25 7.5 50.5t28 45.5t57 33t94.5 13h162v-132z" />
    <glyph glyph-name="g" unicode="g" horiz-adv-x="917" 
d="M433 411q-54 0 -89.5 -10.5t-56.5 -27t-29.5 -38.5t-8.5 -44v-5q0 -23 9.5 -45.5t31 -40t57 -28.5t86.5 -11h6q53 0 91.5 10.5t63 28t36.5 40t12 45.5v4q0 24 -12 46t-37 39t-63.5 27t-90.5 10h-6zM421 -195q-84 0 -144 11t-101 29t-65 40t-36.5 43t-16 39.5t-3.5 29.5v3
h225q1 -5 6.5 -13.5t23 -16.5t51.5 -14t91 -6h3q62 0 100 14.5t58.5 37t27 50t6.5 53.5q-10 -9 -28.5 -23t-49 -26.5t-76 -22t-108.5 -9.5h-12q-95 0 -161.5 20.5t-108.5 56t-61.5 82t-19.5 98.5v20q0 49 17 94t55 79.5t99.5 55.5t151.5 21h21q67 0 115 -9.5t81 -23t53 -28
t31 -24.5v72h224v-440q0 -24 -5 -55.5t-19.5 -64t-40.5 -63.5t-68 -55.5t-102.5 -39.5t-142.5 -15h-71z" />
    <glyph glyph-name="h" unicode="h" horiz-adv-x="849" 
d="M47 744h223v-296q9 9 29 26t52.5 34t78 29.5t105.5 12.5h7q70 0 119.5 -18t81 -48t46.5 -67.5t15 -76.5v-340h-225v266q0 62 -35 98t-109 36q-75 0 -120 -40t-45 -106v-254h-223v744z" />
    <glyph glyph-name="i" unicode="i" horiz-adv-x="317" 
d="M270 590h-223v154h223v-154zM270 0h-223v538h223v-538z" />
    <glyph glyph-name="j" unicode="j" horiz-adv-x="317" 
d="M270 590h-223v154h223v-154zM15 -31q17 0 24.5 7.5t7.5 30.5v531h223v-587q0 -74 -29.5 -106.5t-72.5 -32.5h-194v157h41z" />
    <glyph glyph-name="k" unicode="k" horiz-adv-x="751" 
d="M47 0v744h223v-421l218 215h247l-254 -243l285 -295h-262l-234 247v-247h-223z" />
    <glyph glyph-name="l" unicode="l" horiz-adv-x="317" 
d="M270 0h-223v744h223v-744z" />
    <glyph glyph-name="m" unicode="m" horiz-adv-x="1318" 
d="M47 0v538h221v-93q9 9 28 27t50.5 35t75.5 30t102 13h7q86 0 138 -31t77 -76q15 15 39 33.5t57.5 35t77 27.5t97.5 11h8q67 0 114 -18.5t77 -48.5t43.5 -67.5t13.5 -75.5v-340h-225v266q0 59 -28 96.5t-94 37.5q-36 0 -64.5 -11t-48.5 -30.5t-30.5 -46.5t-10.5 -58v-254
h-225v266q0 59 -28.5 96.5t-94.5 37.5q-36 0 -64.5 -11t-48.5 -30.5t-30.5 -46.5t-10.5 -58v-254h-223z" />
    <glyph glyph-name="n" unicode="n" horiz-adv-x="849" 
d="M47 538h221v-92q10 10 30.5 27.5t53 34.5t78 29.5t105.5 12.5h7q70 0 120 -18t81.5 -48t46 -67.5t14.5 -76.5v-340h-225v266q0 62 -35 98t-109 36q-75 0 -120 -40t-45 -106v-254h-223v538z" />
    <glyph glyph-name="o" unicode="o" horiz-adv-x="886" 
d="M409 -15q-117 0 -192 26t-118.5 66.5t-60 89.5t-16.5 96v18q0 46 16.5 94.5t59.5 88t118 64.5t192 25h71q123 0 198.5 -25.5t117 -65t55.5 -87.5t14 -94v-18q0 -47 -13.5 -96t-54.5 -89.5t-116.5 -66.5t-200.5 -26h-70zM444 130q57 0 94.5 13t59.5 33t31 44.5t9 48.5v5
q0 25 -9 49.5t-31 43.5t-59.5 31t-93.5 12h-1q-57 0 -94.5 -11.5t-59.5 -31t-31 -44t-9 -49.5v-5q0 -24 9 -48.5t31 -44.5t59.5 -33t94.5 -13z" />
    <glyph glyph-name="p" unicode="p" horiz-adv-x="908" 
d="M270 269q0 -25 12 -50t36.5 -45t62 -32.5t88.5 -12.5h5q54 0 89.5 12.5t56.5 33t29.5 45.5t8.5 49v4q0 26 -8.5 51t-29.5 44.5t-56.5 31.5t-89.5 12h-5q-52 0 -89.5 -12t-62 -31.5t-36 -44.5t-11.5 -51v-4zM270 538v-77q9 8 29.5 23t54.5 30t81 26t108 11h18
q91 0 153.5 -21.5t100.5 -58t54.5 -86t16.5 -104.5v-19q0 -53 -17 -102.5t-56 -88t-102.5 -61.5t-156.5 -23h-16q-60 0 -107 11t-80.5 26t-53.5 29.5t-27 22.5v-264h-223v726h223z" />
    <glyph glyph-name="q" unicode="q" horiz-adv-x="908" 
d="M861 538v-726h-223v262q-8 -9 -26.5 -24t-50 -29t-77.5 -24t-109 -10h-8q-94 0 -159.5 22t-107 60t-60 88.5t-18.5 106.5v19q0 54 18 102.5t57.5 85t103 58.5t154.5 22h14q62 0 108.5 -10.5t79.5 -24.5t53 -28.5t30 -22.5q8 16 12.5 36t6.5 37h202zM638 273q0 26 -13 51
t-39 44t-64 30.5t-88 11.5h-5q-53 0 -87.5 -11.5t-54.5 -31t-28.5 -44.5t-8.5 -51v-4q0 -24 9 -49t30.5 -45.5t56 -33t85.5 -12.5h5q50 0 88 12.5t63.5 32.5t38 45t12.5 51v4z" />
    <glyph glyph-name="r" unicode="r" horiz-adv-x="735" 
d="M270 0h-223v538h221v-95q7 11 23.5 29t42.5 35.5t63.5 30t88.5 12.5h11q58 0 100 -18t68 -50t38.5 -76t12.5 -96v-31h-215q0 26 -6 49.5t-19.5 41t-35.5 28t-53 10.5h-1q-28 0 -49.5 -10.5t-36.5 -28.5t-22.5 -41.5t-7.5 -49.5v-278z" />
    <glyph glyph-name="s" unicode="s" horiz-adv-x="779" 
d="M363 -15q-118 0 -186.5 20t-104 49.5t-45.5 62.5t-10 59v6h230q0 -7 3.5 -19.5t17 -24.5t41 -20.5t76.5 -8.5h2q46 0 74 4.5t42 11.5t18.5 16t4.5 19v2q0 10 -3.5 18.5t-16 14.5t-36 9.5t-62.5 4.5l-96 2q-88 2 -144 17.5t-88.5 39t-45 52.5t-12.5 59v6q0 31 11.5 61
t47.5 54t103 38.5t178 14.5h40q102 0 167.5 -14.5t103 -38.5t52 -54.5t14.5 -61.5v-7h-227q-1 7 -5 17t-17.5 18t-39.5 14t-71 6h-1q-40 0 -65 -2.5t-39 -7.5t-19 -12.5t-5 -17.5v-2q0 -9 4.5 -16.5t17 -13t34.5 -9t57 -4.5l96 -2q93 -2 151.5 -13.5t91.5 -32.5t45 -52
t12 -71v-6q0 -37 -13.5 -70.5t-52.5 -59t-108.5 -40.5t-180.5 -15h-41v0z" />
    <glyph glyph-name="t" unicode="t" horiz-adv-x="474" 
d="M252 0q-73 0 -103 41.5t-30 111.5v237h-105v148h105v157h220v-157h106v-148h-106v-195q0 -22 8 -34.5t37 -12.5h61v-148h-193z" />
    <glyph glyph-name="u" unicode="u" horiz-adv-x="838" 
d="M791 0h-221v93l-30 -27t-52 -35t-76.5 -30t-102.5 -13h-8q-69 0 -118 19.5t-79.5 50t-44.5 69t-14 76.5v335h225v-266q0 -60 33.5 -97t104.5 -37q73 0 116.5 40t43.5 106v254h223v-538z" />
    <glyph glyph-name="v" unicode="v" horiz-adv-x="783" 
d="M-11 538h240l173 -368l168 368h224l-263 -538h-268z" />
    <glyph glyph-name="w" unicode="w" horiz-adv-x="1142" 
d="M213 0l-223 538h232l123 -344l121 344h234l125 -344l119 344h208l-208 -538h-236l-132 356l-132 -356h-231z" />
    <glyph glyph-name="x" unicode="x" horiz-adv-x="791" 
d="M-11 0l281 273l-272 265h263l141 -141l141 141h250l-270 -261l279 -277h-252l-158 154l-155 -154h-248z" />
    <glyph glyph-name="y" unicode="y" horiz-adv-x="783" 
d="M119 -28h126q16 0 21 4.5t5 12.5t-6.5 21t-18.5 36l-257 492h240l173 -364l168 364h224l-282 -574q-19 -38 -38.5 -66.5t-43 -47.5t-52 -28.5t-64.5 -9.5h-195v160z" />
    <glyph glyph-name="z" unicode="z" horiz-adv-x="724" 
d="M24 0v130l365 263h-365v145h674v-125l-382 -264h384v-149h-676z" />
    <glyph glyph-name="braceleft" unicode="{" horiz-adv-x="365" 
d="M226 -131q-88 0 -132 27t-44 87q0 31 13.5 67.5t29 72t29 66.5t13.5 50q0 22 -10.5 34t-34.5 12h-63v112h63q24 0 34.5 10.5t10.5 27.5q0 21 -13.5 51.5t-29 65t-29 70t-13.5 65.5q0 59 41.5 90t134.5 31h125v-110h-77q-44 0 -44 -39q0 -18 10 -45t22.5 -57.5t22.5 -60
t10 -51.5q0 -42 -21 -66.5t-74 -36.5q53 -11 74 -33t21 -57q0 -24 -10 -55.5t-22.5 -63.5t-22.5 -60t-10 -46q0 -21 13 -34t39 -13h69v-111h-125z" />
    <glyph glyph-name="bar" unicode="|" horiz-adv-x="381" 
d="M271 -131h-161v939h161v-939z" />
    <glyph glyph-name="braceright" unicode="}" horiz-adv-x="365" 
d="M14 -20h69q26 0 39 13t13 34q0 18 -10 46t-22 60t-22 63.5t-10 55.5q0 35 20.5 57t73.5 33q-52 12 -73 36.5t-21 66.5q0 22 10 51.5t22 60t22 57.5t10 45q0 39 -44 39h-77v110h125q93 0 134.5 -31t41.5 -90q0 -30 -13.5 -65.5t-29 -70t-29 -65t-13.5 -51.5
q0 -17 10.5 -27.5t34.5 -10.5h63v-112h-63q-24 0 -34.5 -12t-10.5 -34q0 -19 13.5 -50t29 -66.5t29 -72t13.5 -67.5q0 -60 -44 -87t-132 -27h-125v111z" />
    <glyph glyph-name="asciitilde" unicode="~" horiz-adv-x="672" 
d="M504 258q-29 0 -51.5 4t-44.5 12t-45.5 20t-53.5 28q-21 11 -34 18t-22.5 10.5t-16.5 5t-15 1.5q-14 0 -20.5 -9.5t-6.5 -23.5v-86h-167v130q0 27 6.5 55.5t23 51.5t44.5 37.5t71 14.5q28 0 51 -4.5t44.5 -13t44.5 -20t50 -25.5q33 -17 55 -28t36 -11q25 0 25 32v92h167
v-153q0 -25 -7 -49.5t-23.5 -44t-43.5 -32t-67 -12.5z" />
    <glyph glyph-name="exclamdown" unicode="&#xa1;" horiz-adv-x="320" 
d="M18.0176 -205.955l68.9961 517.969h133.992l68.9961 -517.969h-271.984zM33.0176 538h241.984v-174.989h-241.984v174.989z" />
    <glyph glyph-name="cent" unicode="&#xa2;" horiz-adv-x="857" 
d="M377 -77v62q-109 3 -178 30t-108.5 67.5t-54 88t-14.5 91.5v20q0 44 14.5 91t54 86t108.5 65.5t178 28.5v62h100v-62q80 -1 138 -14t98 -33t64.5 -45t38 -51t18 -50t4.5 -42v-3h-228q-2 7 -7.5 21t-19.5 28.5t-39 27t-67 17.5v-278q41 5 66.5 17.5t39.5 27.5t19.5 29
t7.5 22h228v-2q0 -18 -4 -43t-16.5 -51t-37 -51.5t-64.5 -46.5t-98.5 -34t-140.5 -14v-62h-100zM250 272q0 -24 6.5 -46.5t21.5 -42t39 -33t60 -19.5v278q-36 -5 -60 -17.5t-39 -30t-21.5 -39t-6.5 -43.5v-7z" />
    <glyph glyph-name="sterling" unicode="&#xa3;" horiz-adv-x="908" 
d="M877 0h-859v157h51q49 0 76.5 16t27.5 57v3q0 19 -6 40.5t-14 44.5h-135v107h96q-7 23 -11.5 47t-4.5 47v7q0 39 15 79.5t55 73.5t109 53.5t177 20.5h41q87 0 148.5 -13t102 -34t63.5 -48t34.5 -56t14.5 -57t3 -51v-8h-231q-1 14 -6 33t-20.5 36t-45 29t-78.5 12
q-48 0 -78.5 -10.5t-47.5 -27t-23 -37t-6 -41.5t8 -55h348v-107h-325q5 -28 5 -48q0 -26 -7 -44.5t-17.5 -32t-22.5 -22t-22 -14.5h348v101h237v-258z" />
    <glyph glyph-name="yen" unicode="&#xa5;" horiz-adv-x="949" 
d="M362 154h-267v88h267v55h-267v88h201l-318 359h287l220 -259l224 259h262l-308 -359h201v-88h-267v-55h267v-88h-267v-154h-235v154z" />
    <glyph glyph-name="brokenbar" unicode="&#xa6;" horiz-adv-x="381" 
d="M271 386h-161v422h161v-422zM271 -131h-161v457h161v-457z" />
    <glyph glyph-name="section" unicode="&#xa7;" horiz-adv-x="912" 
d="M627 188q16 9 27 25.5t11 37.5q0 26 -19.5 46t-77.5 29q-88 13 -140 22t-82 14t-43 8t-23 6q-15 -8 -26 -24t-11 -39q0 -26 20 -46t79 -30q86 -14 137.5 -22.5t81 -13.5t43 -7.5t23.5 -5.5zM438 -209q-91 0 -155.5 12t-108 31t-68.5 43.5t-38 49.5t-16.5 48.5t-3.5 41.5
v3h229q1 -12 6 -28.5t23 -31t54 -24.5t98 -10h7q45 0 72.5 5t42 12.5t19.5 17t5 19.5v2q0 10 -3 19.5t-14 18t-34.5 16t-63.5 13.5l-195 30q-81 12 -135 32t-85.5 46t-44.5 56.5t-13 65.5v9q0 30 11.5 52.5t30.5 39t44 28t52 17.5q-45 25 -62.5 62t-17.5 79v10
q0 42 16.5 75.5t58.5 57.5t112.5 37t178.5 13h41q82 0 141 -9t99.5 -24.5t64.5 -36.5t37.5 -44t17.5 -47.5t4 -47.5v-3h-228q-1 9 -5.5 22.5t-20.5 26.5t-47 22t-85 9h-8q-51 0 -81 -4t-45.5 -10.5t-20 -16t-4.5 -19.5v-2q0 -10 3 -18.5t15 -16t35.5 -14.5t64.5 -13l199 -28
q82 -12 135 -29.5t84 -41.5t43.5 -54t12.5 -67v-10q0 -33 -12.5 -57t-32 -41t-43.5 -28t-48 -18q42 -24 59.5 -59.5t17.5 -77.5v-10q0 -39 -15 -75t-54.5 -64t-108 -45t-175.5 -17h-42z" />
    <glyph glyph-name="dieresis" unicode="&#xa8;" 
d="M593 590h-216v154h216v-154zM327 590h-215v154h215v-154z" />
    <glyph glyph-name="copyright" unicode="&#xa9;" horiz-adv-x="1165" 
d="M567 -11q-161 0 -265.5 30.5t-165.5 82t-85 118.5t-24 139v28q0 70 24 136.5t85 118t165.5 82.5t266.5 31h29q162 0 266.5 -31t165.5 -82.5t85 -118t24 -136.5v-28q0 -72 -24 -139t-85 -118.5t-165.5 -82t-265.5 -30.5h-31zM151 366q0 -55 19.5 -106.5t67.5 -91.5
t129 -64t203 -24h25q122 0 203 24t129 64t67.5 91.5t19.5 106.5v12q0 61 -19.5 113.5t-67.5 90.5t-128.5 60t-203.5 22h-25q-123 0 -203.5 -22t-128.5 -60t-67.5 -90.5t-19.5 -113.5v-12zM573 147q-106 0 -170 23t-98.5 56.5t-45.5 71.5t-11 69v17q0 31 10.5 68.5t44.5 70.5
t98 55t172 22h26q74 0 127 -9.5t89 -25.5t57 -36t32 -40t14.5 -39t3.5 -33v-5h-191q-1 4 -6 15.5t-20.5 23.5t-43.5 21.5t-76 9.5q-47 0 -76 -8t-46 -22t-23 -32.5t-6 -38.5v-8q0 -19 6.5 -38t23.5 -34.5t46.5 -25.5t75.5 -10q48 0 76.5 10t43.5 23.5t19.5 26t5.5 17.5h192
v-6q0 -15 -3.5 -34.5t-15 -40.5t-33 -41.5t-57.5 -36.5t-89 -26t-126 -10h-26z" />
    <glyph glyph-name="ordfeminine" unicode="&#xaa;" horiz-adv-x="569" 
d="M235 466q58 0 89 25t31 57v6l-129 -20q-28 -5 -39 -12.5t-11 -21.5t13.5 -24t45.5 -10zM369 440q-7 -8 -19.5 -18.5t-32.5 -20t-49 -16t-69 -6.5h-9q-48 0 -81 10t-53.5 26t-29 37t-8.5 44v5q0 50 42 75.5t124 33.5l152 14q19 1 19 16q0 5 -2.5 9.5t-11 8.5t-25.5 6
t-45 2h-8q-30 0 -46.5 -4t-24.5 -9.5t-10 -11.5t-2 -11h-153v2q0 18 5 38.5t26.5 38.5t65.5 30t123 12h39q78 0 123 -10.5t68 -27t29.5 -36.5t6.5 -39v-132q0 -8 3 -13t15 -5h20v-102h-125q-23 0 -38.5 13.5t-18.5 40.5z" />
    <glyph glyph-name="guillemotleft" unicode="&#xab;" horiz-adv-x="540" 
d="M299 117h-161l-124 170l125 168h163l-122 -168zM518 117h-161l-119 170l123 168h163l-120 -168z" />
    <glyph glyph-name="registered" unicode="&#xae;" horiz-adv-x="650" 
d="M344 754q89 0 145.5 -19t88 -48.5t43 -65t11.5 -68.5v-14q0 -35 -15 -70.5t-49 -64t-89.5 -47t-136.5 -18.5h-32q-88 0 -144.5 18.5t-89.5 47t-45.5 64t-12.5 70.5v15q0 33 12 68t44.5 64.5t89 48.5t146.5 19h34zM328 396q77 0 122.5 14.5t69.5 37t31 50t7 53.5
q0 25 -7 51t-31 47t-69.5 34.5t-122.5 13.5h-2q-79 0 -125.5 -13t-70.5 -34t-31 -48t-7 -55q0 -26 7 -53t31.5 -49t71 -35.5t124.5 -13.5h2zM361 565q15 0 21 5.5t6 13.5t-6 13t-21 5h-88v-37h88zM273 441h-94v213h206q55 0 75 -16t20 -37v-2q0 -22 -15.5 -33.5t-31.5 -13.5
q26 -5 38 -18t12 -30v-39q0 -9 1.5 -13t4.5 -8v-3h-94q-2 2 -4.5 5.5t-2.5 11.5v21q0 17 -7 24t-24 7h-84v-69z" />
    <glyph glyph-name="macron" unicode="&#xaf;" 
d="M142 723h422v-122h-422v122z" />
    <glyph glyph-name="degree" unicode="&#xb0;" horiz-adv-x="410" 
d="M205 383q-41 0 -77 13.5t-62.5 38t-41.5 59t-15 75.5t15 75.5t41.5 59t62.5 38t77 13.5t77 -13.5t62.5 -38t41.5 -59t15 -75.5t-15 -75.5t-41.5 -59t-62.5 -38t-77 -13.5zM205 488q37 0 60 23t23 59t-23 59t-60 23q-36 0 -59.5 -23t-23.5 -59t23.5 -59t59.5 -23z" />
    <glyph glyph-name="uni00B2" unicode="&#xb2;" horiz-adv-x="514" 
d="M14 376v43q0 25 7 51t31.5 50t71.5 44t127 35q28 5 45.5 9.5t27 9t12.5 8.5t3 9q0 4 -2.5 8.5t-10.5 7.5t-23.5 5t-41.5 2q-31 0 -48.5 -5t-26.5 -12t-12 -15.5t-3 -14.5h-151v4q0 18 6.5 41t29.5 44t68.5 35.5t122.5 14.5h19q73 0 117.5 -9.5t69 -25.5t33 -37.5
t8.5 -45.5v-4q0 -29 -14 -47.5t-41 -31t-66.5 -20.5t-90.5 -16q-54 -8 -90.5 -14.5t-44.5 -18.5h347v-104h-480z" />
    <glyph glyph-name="uni00B3" unicode="&#xb3;" horiz-adv-x="527" 
d="M241 371q-80 0 -126.5 16.5t-70 39t-29.5 46t-6 38.5v5h156q0 -4 2 -11.5t11.5 -15t28.5 -13.5t53 -6q33 0 52.5 3t29 7.5t12.5 10t3 10.5v2q0 10 -9 16t-36 6h-122v88h116q27 0 35.5 5.5t8.5 13.5v2q0 4 -3 8.5t-12.5 7.5t-28.5 5t-51 2q-34 0 -52.5 -4.5t-27.5 -10.5
t-10.5 -12t-1.5 -8h-149v5q0 12 5.5 33t27.5 41t67 34.5t123 14.5h31q81 0 128 -9t71 -23.5t31 -31.5t7 -32v-3q0 -23 -19 -40t-51 -22q36 -6 59.5 -28t23.5 -59v-4q0 -23 -9.5 -46t-36.5 -41t-74.5 -29t-123.5 -11h-33z" />
    <glyph glyph-name="acute" unicode="&#xb4;" 
d="M283 744h230l-107 -154h-213z" />
    <glyph glyph-name="paragraph" unicode="&#xb6;" horiz-adv-x="778" 
d="M311 328h-55q-66 0 -112 15t-75 41.5t-42 63t-13 79.5v19q0 42 10.5 78.5t37.5 63t74.5 41.5t121.5 15h507v-109h-78v-635h-138v635h-100v-635h-138v328z" />
    <glyph glyph-name="periodcentered" unicode="&#xb7;" horiz-adv-x="311" 
d="M276 210h-241v175h241v-175z" />
    <glyph glyph-name="cedilla" unicode="&#xb8;" 
d="M181 -168h106q24 0 32 6t8 16t-8 16.5t-32 6.5h-71v123h127v-50q56 0 91.5 -7t55.5 -20t27.5 -32t7.5 -42v-3q0 -21 -7.5 -39.5t-27.5 -33t-55.5 -23t-92.5 -8.5h-161v90z" />
    <glyph glyph-name="uni00B9" unicode="&#xb9;" horiz-adv-x="294" 
d="M15 587v82q51 3 79.5 22.5t42.5 52.5h120v-368h-147v211h-95z" />
    <glyph glyph-name="ordmasculine" unicode="&#xba;" horiz-adv-x="601" 
d="M278 376q-80 0 -131 17t-80 44t-40 59.5t-11 63.5v11q0 31 11 63t40 58t80 42.5t131 16.5h46q83 0 134 -16.5t79.5 -42.5t38 -58t9.5 -63v-11q0 -31 -9 -63.5t-37 -59.5t-79.5 -44t-135.5 -17h-46zM300 478q34 0 56.5 7.5t36 19.5t19 27.5t5.5 31.5v3q0 16 -6 31.5
t-19.5 27t-35.5 18.5t-55 7h-1q-33 0 -55.5 -7t-36 -18.5t-19 -26.5t-5.5 -32v-3q0 -16 5.5 -31.5t19 -27.5t36 -19.5t55.5 -7.5z" />
    <glyph glyph-name="guillemotright" unicode="&#xbb;" horiz-adv-x="540" 
d="M16 455h163l123 -168l-119 -170h-161l114 170zM241 117l119 170l-122 168h163l125 -168l-124 -170h-161z" />
    <glyph glyph-name="onequarter" unicode="&#xbc;" horiz-adv-x="931" 
d="M891 744l-781 -744h-167l776 744h172zM15 587v82q51 3 79.5 22.5t42.5 52.5h120v-368h-147v211h-95zM423 151q19 16 39 34q17 15 39 34.5t45 39.5q54 48 122 109h169v-201h79v-99h-79v-69h-149v69h-265v83zM688 167v112l-128 -112h128z" />
    <glyph glyph-name="onehalf" unicode="&#xbd;" horiz-adv-x="997" 
d="M891 744l-781 -744h-167l776 744h172zM15 587v82q51 3 79.5 22.5t42.5 52.5h120v-368h-147v211h-95zM497 0v43q0 25 7 51t31.5 50t71.5 44t127 35q28 5 45.5 9.5t27 9t12.5 8.5t3 9q0 4 -2.5 8.5t-10.5 7.5t-23.5 5t-41.5 2q-31 0 -48.5 -5t-26.5 -12t-12 -15.5t-3 -14.5
h-151v4q0 18 6.5 41t29.5 44t68.5 35.5t122.5 14.5h19q73 0 117.5 -9.5t69 -25.5t33 -37.5t8.5 -45.5v-4q0 -29 -14 -47.5t-41 -31t-66.5 -20.5t-90.5 -16q-54 -8 -90.5 -14.5t-44.5 -18.5h347v-104h-480z" />
    <glyph glyph-name="threequarters" unicode="&#xbe;" horiz-adv-x="1128" 
d="M1088 744l-781 -744h-167l776 744h172zM241 372q-80 0 -126.5 16.5t-70 39t-29.5 46t-6 38.5v5h156q0 -4 2 -11.5t11.5 -15t28.5 -13.5t53 -6q33 0 52.5 3t29 7.5t12.5 10t3 10.5v2q0 10 -9 16t-36 6h-122v88h116q27 0 35.5 5.5t8.5 13.5v2q0 4 -3 8.5t-12.5 7.5t-28.5 5
t-51 2q-34 0 -52.5 -4.5t-27.5 -10.5t-10.5 -12t-1.5 -8h-149v5q0 12 5.5 33t27.5 41t67 34.5t123 14.5h31q81 0 128 -9t71 -23.5t31 -31.5t7 -32v-3q0 -23 -19 -40t-51 -22q36 -6 59.5 -28t23.5 -59v-4q0 -23 -9.5 -46t-36.5 -41t-74.5 -29t-123.5 -11h-33zM620 151
q19 16 39 34q17 15 39 34.5t45 39.5q54 48 122 109h169v-201h79v-99h-79v-69h-149v69h-265v83zM885 167v112l-128 -112h128z" />
    <glyph glyph-name="questiondown" unicode="&#xbf;" horiz-adv-x="838" 
d="M576.016 297.015v-74.9951q0 -26.999 -5.99902 -47.9971q-6 -20.999 -23.499 -37.998t-48.9971 -30.998t-82.4951 -26.998l-83.9941 -20.999q-30.998 -7.99902 -48.9971 -15.999q-17.999 -7.99902 -27.999 -15.499q-9.99902 -7.5 -12.999 -14.999
q-2.99902 -7.5 -2.99902 -16.499q0 -9.99902 3.49902 -18.999q3.5 -8.99902 19.999 -16.499q16.499 -7.49902 50.4971 -11.999t93.9941 -4.5q67.9961 0 104.993 10.5q36.998 10.499 53.9971 24.998t20.499 30.498t4.5 26.998h227.985v-11.999q0 -22.998 -2.5 -49.9971
q-2.49902 -26.998 -13.999 -52.9961q-11.499 -25.999 -35.498 -50.4971q-23.998 -24.499 -66.4951 -43.498q-42.498 -18.998 -107.494 -29.998q-64.9961 -10.999 -157.99 -10.999h-55.9961q-117.993 0 -190.988 18.499q-72.9961 18.499 -112.993 48.4971
q-39.998 29.998 -53.4971 66.9961q-13.499 36.9971 -13.499 72.9951v7q0 70.9951 43.4971 121.492t148.491 77.4951l82.9951 21.999q23.998 6 36.9971 12.499q13 6.5 19.499 14.499q6.5 8 8 18.499t1.5 24.499v6.99902h227.985zM338.03 538h240.985v-174.989h-240.985
v174.989z" />
    <glyph glyph-name="Agrave" unicode="&#xc0;" horiz-adv-x="1044" 
d="M509 583l-138 -279h282zM739 136h-451l-67 -136h-237l376 744h302l398 -744h-251zM621 796h-225l-105 150h240z" />
    <glyph glyph-name="Aacute" unicode="&#xc1;" horiz-adv-x="1044" 
d="M509 583l-138 -279h282zM739 136h-451l-67 -136h-237l376 744h302l398 -744h-251zM492 946h240l-105 -150h-225z" />
    <glyph glyph-name="Acircumflex" unicode="&#xc2;" horiz-adv-x="1044" 
d="M509 583l-138 -279h282zM739 136h-451l-67 -136h-237l376 744h302l398 -744h-251zM796 796h-220l-66 58l-65 -58h-217l157 150h251z" />
    <glyph glyph-name="Atilde" unicode="&#xc3;" horiz-adv-x="1044" 
d="M509 583l-138 -279h282zM739 136h-451l-67 -136h-237l376 744h302l398 -744h-251zM634 802q-14 0 -27 1.5t-27.5 5t-32 9t-41.5 13.5q-19 7 -34.5 11t-26.5 4q-10 0 -14 -6.5t-4 -14.5v-31h-146v81q0 16 4 33t15 31.5t30.5 24t50.5 9.5h6q31 0 57.5 -7t70.5 -22
q20 -7 34.5 -11t26.5 -4q9 0 13.5 6t4.5 15v30h146v-80q0 -16 -4 -33t-14.5 -31.5t-30.5 -24t-51 -9.5h-6v0z" />
    <glyph glyph-name="Adieresis" unicode="&#xc4;" horiz-adv-x="1044" 
d="M509 583l-138 -279h282zM739 136h-451l-67 -136h-237l376 744h302l398 -744h-251zM759 796h-222v150h222v-150zM485 796h-222v150h222v-150z" />
    <glyph glyph-name="Aring" unicode="&#xc5;" horiz-adv-x="1044" 
d="M509 583l-138 -279h282zM739 136h-451l-67 -136h-237l376 744h302l398 -744h-251zM320 902q0 24 9.5 45t32 37t59.5 25t92 9t91 -9t58 -25t31 -37t9 -45q0 -25 -9 -46.5t-31 -37.5t-58 -25t-91 -9q-56 0 -93.5 9.5t-59.5 25.5t-31 37.5t-9 45.5zM435 902q0 -21 18 -34
t60 -13q41 0 58 13t17 34q0 20 -17 32.5t-58 12.5q-42 0 -60 -12.5t-18 -32.5z" />
    <glyph glyph-name="AE" unicode="&#xc6;" horiz-adv-x="1473" 
d="M649 576l-213 -278h213v278zM649 130h-341l-100 -130h-239l567 744h887v-169h-544v-110h531v-170h-531v-122h554v-173h-784v130z" />
    <glyph glyph-name="Ccedilla" unicode="&#xc7;" horiz-adv-x="1089" 
d="M525 -13q-108 0 -186.5 18.5t-134 49t-90 69.5t-54 80.5t-26.5 82t-7 73.5v29q0 34 6.5 74.5t25 81t52.5 79t89.5 68t135 47.5t189.5 18h41q108 0 187 -15.5t134 -41t89.5 -57.5t54 -64.5t26.5 -62.5t7 -52v-11h-247q-2 7 -11.5 27.5t-38 42t-81 38t-141.5 16.5
q-84 0 -137 -17t-83.5 -44.5t-42 -62t-11.5 -69.5v-12q0 -33 12.5 -69t44 -66t85 -49.5t134.5 -19.5q90 0 143 18t81 41.5t36.5 45t10.5 27.5h247v-11q0 -23 -7.5 -55t-27.5 -65.5t-55 -66t-90.5 -58t-134 -41.5t-184.5 -16h-41zM374 -168h106q24 0 32 6t8 16t-8 16.5
t-32 6.5h-71v123h127v-50q56 0 91.5 -7t55.5 -20t27.5 -32t7.5 -42v-3q0 -21 -7.5 -39.5t-27.5 -33t-55.5 -23t-92.5 -8.5h-161v90z" />
    <glyph glyph-name="Egrave" unicode="&#xc8;" horiz-adv-x="891" 
d="M841 744v-169h-554v-110h541v-170h-541v-122h564v-173h-794v744h784zM597 796h-225l-105 150h240z" />
    <glyph glyph-name="Eacute" unicode="&#xc9;" horiz-adv-x="891" 
d="M841 744v-169h-554v-110h541v-170h-541v-122h564v-173h-794v744h784zM424 946h240l-105 -150h-225z" />
    <glyph glyph-name="Ecircumflex" unicode="&#xca;" horiz-adv-x="891" 
d="M841 744v-169h-554v-110h541v-170h-541v-122h564v-173h-794v744h784zM743 796h-220l-66 58l-65 -58h-217l157 150h251z" />
    <glyph glyph-name="Edieresis" unicode="&#xcb;" horiz-adv-x="891" 
d="M841 744v-169h-554v-110h541v-170h-541v-122h564v-173h-794v744h784zM707 796h-222v150h222v-150zM433 796h-222v150h222v-150z" />
    <glyph glyph-name="Igrave" unicode="&#xcc;" horiz-adv-x="347" 
d="M290 0h-233v744h233v-744zM286 796h-225l-105 150h240z" />
    <glyph glyph-name="Iacute" unicode="&#xcd;" horiz-adv-x="347" 
d="M290 0h-233v744h233v-744zM154 946h240l-105 -150h-225z" />
    <glyph glyph-name="Icircumflex" unicode="&#xce;" horiz-adv-x="347" 
d="M290 0h-233v744h233v-744zM457 796h-220l-66 58l-65 -58h-217l157 150h251z" />
    <glyph glyph-name="Idieresis" unicode="&#xcf;" horiz-adv-x="347" 
d="M290 0h-233v744h233v-744zM421 796h-222v150h222v-150zM147 796h-222v150h222v-150z" />
    <glyph glyph-name="Eth" unicode="&#xd0;" horiz-adv-x="1104" 
d="M63 300h-62v149h62v295h493q108 0 188.5 -14.5t139 -39.5t96.5 -59t60.5 -73.5t31.5 -81.5t9 -84v-30q0 -40 -8.5 -82.5t-30.5 -82.5t-60 -76t-96 -63t-139 -42.5t-190 -15.5h-494v300zM296 449h331v-149h-331v-121h242q99 0 158 19.5t90.5 48t41 62t9.5 62.5v6
q0 28 -9 61.5t-40 62.5t-90.5 48t-159.5 19h-242v-119z" />
    <glyph glyph-name="Ntilde" unicode="&#xd1;" horiz-adv-x="1079" 
d="M317 744l475 -468v468h230v-744h-230l-505 493v-493h-230v744h260zM671 802q-14 0 -27 1.5t-27.5 5t-32 9t-41.5 13.5q-19 7 -34.5 11t-26.5 4q-10 0 -14 -6.5t-4 -14.5v-31h-146v81q0 16 4 33t15 31.5t30.5 24t50.5 9.5h6q31 0 57.5 -7t70.5 -22q20 -7 34.5 -11t26.5 -4
q9 0 13.5 6t4.5 15v30h146v-80q0 -16 -4 -33t-14.5 -31.5t-30.5 -24t-51 -9.5h-6v0z" />
    <glyph glyph-name="Ograve" unicode="&#xd2;" horiz-adv-x="1144" 
d="M594 757q117 0 201 -18t142.5 -48t93.5 -68.5t54.5 -79t25.5 -81t6 -73.5v-30q0 -33 -6 -73t-25 -81.5t-54.5 -80.5t-93.5 -69.5t-142.5 -49t-201.5 -18.5h-43q-118 0 -202.5 18.5t-142.5 49t-93.5 69.5t-54.5 80.5t-25 81.5t-6 73v30q0 33 6 73.5t25 81t54.5 79
t93.5 68.5t142.5 48t202.5 18h43zM873 382q0 32 -11.5 66.5t-44.5 63t-92 47t-153 18.5q-96 0 -155 -18.5t-91.5 -47t-43.5 -63t-11 -66.5v-12q0 -32 11.5 -67.5t44.5 -65.5t92 -49.5t153 -19.5t152.5 19t91.5 48.5t45 65t12 67.5v14zM686 796h-225l-105 150h240z" />
    <glyph glyph-name="Oacute" unicode="&#xd3;" horiz-adv-x="1144" 
d="M594 757q117 0 201 -18t142.5 -48t93.5 -68.5t54.5 -79t25.5 -81t6 -73.5v-30q0 -33 -6 -73t-25 -81.5t-54.5 -80.5t-93.5 -69.5t-142.5 -49t-201.5 -18.5h-43q-118 0 -202.5 18.5t-142.5 49t-93.5 69.5t-54.5 80.5t-25 81.5t-6 73v30q0 33 6 73.5t25 81t54.5 79
t93.5 68.5t142.5 48t202.5 18h43zM873 382q0 32 -11.5 66.5t-44.5 63t-92 47t-153 18.5q-96 0 -155 -18.5t-91.5 -47t-43.5 -63t-11 -66.5v-12q0 -32 11.5 -67.5t44.5 -65.5t92 -49.5t153 -19.5t152.5 19t91.5 48.5t45 65t12 67.5v14zM553 946h240l-105 -150h-225z" />
    <glyph glyph-name="Ocircumflex" unicode="&#xd4;" horiz-adv-x="1144" 
d="M594 757q117 0 201 -18t142.5 -48t93.5 -68.5t54.5 -79t25.5 -81t6 -73.5v-30q0 -33 -6 -73t-25 -81.5t-54.5 -80.5t-93.5 -69.5t-142.5 -49t-201.5 -18.5h-43q-118 0 -202.5 18.5t-142.5 49t-93.5 69.5t-54.5 80.5t-25 81.5t-6 73v30q0 33 6 73.5t25 81t54.5 79
t93.5 68.5t142.5 48t202.5 18h43zM873 382q0 32 -11.5 66.5t-44.5 63t-92 47t-153 18.5q-96 0 -155 -18.5t-91.5 -47t-43.5 -63t-11 -66.5v-12q0 -32 11.5 -67.5t44.5 -65.5t92 -49.5t153 -19.5t152.5 19t91.5 48.5t45 65t12 67.5v14zM856 796h-220l-66 58l-65 -58h-217
l157 150h251z" />
    <glyph glyph-name="Otilde" unicode="&#xd5;" horiz-adv-x="1144" 
d="M594 757q117 0 201 -18t142.5 -48t93.5 -68.5t54.5 -79t25.5 -81t6 -73.5v-30q0 -33 -6 -73t-25 -81.5t-54.5 -80.5t-93.5 -69.5t-142.5 -49t-201.5 -18.5h-43q-118 0 -202.5 18.5t-142.5 49t-93.5 69.5t-54.5 80.5t-25 81.5t-6 73v30q0 33 6 73.5t25 81t54.5 79
t93.5 68.5t142.5 48t202.5 18h43zM873 382q0 32 -11.5 66.5t-44.5 63t-92 47t-153 18.5q-96 0 -155 -18.5t-91.5 -47t-43.5 -63t-11 -66.5v-12q0 -32 11.5 -67.5t44.5 -65.5t92 -49.5t153 -19.5t152.5 19t91.5 48.5t45 65t12 67.5v14zM695 802q-14 0 -27 1.5t-27.5 5t-32 9
t-41.5 13.5q-19 7 -34.5 11t-26.5 4q-10 0 -14 -6.5t-4 -14.5v-31h-146v81q0 16 4 33t15 31.5t30.5 24t50.5 9.5h6q31 0 57.5 -7t70.5 -22q20 -7 34.5 -11t26.5 -4q9 0 13.5 6t4.5 15v30h146v-80q0 -16 -4 -33t-14.5 -31.5t-30.5 -24t-51 -9.5h-6v0z" />
    <glyph glyph-name="Odieresis" unicode="&#xd6;" horiz-adv-x="1144" 
d="M594 757q117 0 201 -18t142.5 -48t93.5 -68.5t54.5 -79t25.5 -81t6 -73.5v-30q0 -33 -6 -73t-25 -81.5t-54.5 -80.5t-93.5 -69.5t-142.5 -49t-201.5 -18.5h-43q-118 0 -202.5 18.5t-142.5 49t-93.5 69.5t-54.5 80.5t-25 81.5t-6 73v30q0 33 6 73.5t25 81t54.5 79
t93.5 68.5t142.5 48t202.5 18h43zM873 382q0 32 -11.5 66.5t-44.5 63t-92 47t-153 18.5q-96 0 -155 -18.5t-91.5 -47t-43.5 -63t-11 -66.5v-12q0 -32 11.5 -67.5t44.5 -65.5t92 -49.5t153 -19.5t152.5 19t91.5 48.5t45 65t12 67.5v14zM820 796h-222v150h222v-150zM546 796
h-222v150h222v-150z" />
    <glyph glyph-name="multiply" unicode="&#xd7;" horiz-adv-x="537" 
d="M268 208l-150 -134l-101 108l140 125l-140 125l102 108l150 -133l149 133l101 -108l-140 -125l141 -125l-102 -108z" />
    <glyph glyph-name="Oslash" unicode="&#xd8;" horiz-adv-x="1144" 
d="M551 -13q-94 0 -167.5 13.5t-129.5 36.5l-47 -37h-213q17 13 38 30q18 14 43.5 34.5t57.5 45.5q-58 52 -82 116.5t-24 132.5v30q0 34 6 74.5t25 81t54.5 79t93.5 68t142.5 47.5t202.5 18h44q94 0 166 -13t127 -36l47 36h214l-139 -109q57 -51 82 -114t25 -132v-30
q0 -33 -6 -73.5t-25.5 -82t-54.5 -80.5t-93 -69t-142 -48.5t-201 -18.5h-44zM271 370q0 -29 8 -60t31 -59l398 315q-28 5 -61.5 7.5t-74.5 2.5q-96 0 -155 -18t-91.5 -46t-43.5 -62.5t-11 -67.5v-12zM572 169q94 0 152.5 18.5t91.5 48t45 64.5t12 68v14q0 29 -7 59t-30 56
l-401 -317q28 -5 61.5 -8t75.5 -3z" />
    <glyph glyph-name="Ugrave" unicode="&#xd9;" horiz-adv-x="1053" 
d="M512 -11q-100 0 -173 19.5t-124.5 51.5t-84 73.5t-51 85t-25 86.5t-6.5 78v361h234v-347q0 -36 10 -74t37 -69.5t75 -51.5t124 -20q75 0 122.5 20t74.5 51.5t37 69.5t10 74v347h233v-361q0 -35 -7.5 -78t-26.5 -86.5t-51.5 -85t-83.5 -73.5t-122 -51.5t-166 -19.5h-36z
M655 794h-225l-105 150h240z" />
    <glyph glyph-name="Uacute" unicode="&#xda;" horiz-adv-x="1053" 
d="M512 -11q-100 0 -173 19.5t-124.5 51.5t-84 73.5t-51 85t-25 86.5t-6.5 78v361h234v-347q0 -36 10 -74t37 -69.5t75 -51.5t124 -20q75 0 122.5 20t74.5 51.5t37 69.5t10 74v347h233v-361q0 -35 -7.5 -78t-26.5 -86.5t-51.5 -85t-83.5 -73.5t-122 -51.5t-166 -19.5h-36z
M489 946h240l-105 -150h-225z" />
    <glyph glyph-name="Ucircumflex" unicode="&#xdb;" horiz-adv-x="1053" 
d="M512 -11q-100 0 -173 19.5t-124.5 51.5t-84 73.5t-51 85t-25 86.5t-6.5 78v361h234v-347q0 -36 10 -74t37 -69.5t75 -51.5t124 -20q75 0 122.5 20t74.5 51.5t37 69.5t10 74v347h233v-361q0 -35 -7.5 -78t-26.5 -86.5t-51.5 -85t-83.5 -73.5t-122 -51.5t-166 -19.5h-36z
M810 796h-220l-66 58l-65 -58h-217l157 150h251z" />
    <glyph glyph-name="Udieresis" unicode="&#xdc;" horiz-adv-x="1053" 
d="M512 -11q-100 0 -173 19.5t-124.5 51.5t-84 73.5t-51 85t-25 86.5t-6.5 78v361h234v-347q0 -36 10 -74t37 -69.5t75 -51.5t124 -20q75 0 122.5 20t74.5 51.5t37 69.5t10 74v347h233v-361q0 -35 -7.5 -78t-26.5 -86.5t-51.5 -85t-83.5 -73.5t-122 -51.5t-166 -19.5h-36z
M774 796h-222v150h222v-150zM500 796h-222v150h222v-150z" />
    <glyph glyph-name="Yacute" unicode="&#xdd;" horiz-adv-x="974" 
d="M376 288l-398 456h289l231 -274l235 274h263l-387 -456v-288h-233v288zM470 946h240l-105 -150h-225z" />
    <glyph glyph-name="Thorn" unicode="&#xde;" horiz-adv-x="984" 
d="M290 129v-129h-233v744h233v-121h327q99 0 165.5 -18t107 -50t58 -76.5t17.5 -97.5v-10q0 -50 -17.5 -94t-58 -77t-107 -52t-165.5 -19h-327zM290 296h323q51 0 79.5 20t28.5 58v3q0 40 -28 59.5t-80 19.5h-323v-160z" />
    <glyph glyph-name="germandbls" unicode="&#xdf;" horiz-adv-x="871" 
d="M670 431q37 -8 69.5 -22t57.5 -37t39.5 -55.5t14.5 -77.5v-12q0 -42 -13.5 -82.5t-50.5 -72.5t-101 -52t-166 -20h-183v158h140q42 0 68.5 5.5t41.5 16t20.5 24.5t5.5 31v1q0 17 -5.5 31t-20.5 24t-41.5 15.5t-68.5 5.5h-140v158h126q34 0 55 5t32.5 13.5t15.5 19.5t4 23
v1q0 12 -3.5 23.5t-18.5 20.5t-44 14.5t-80 5.5h-13q-41 0 -68 -5.5t-43.5 -17t-23 -29t-6.5 -40.5v-504h-223v522q0 34 10 73t44.5 72t100 55t176.5 22h60q81 0 139 -7.5t97.5 -20.5t62.5 -30.5t35.5 -37t16 -40t3.5 -39.5v-6q0 -27 -10 -49.5t-26.5 -39t-38.5 -28
t-47 -15.5z" />
    <glyph glyph-name="agrave" unicode="&#xe0;" horiz-adv-x="800" 
d="M522 256l-213 -33q-43 -7 -62 -17t-19 -33v-1q0 -11 4.5 -22t16 -19.5t30 -14t47.5 -5.5q45 0 81 11t61.5 29t39.5 41t14 47v17zM528 74q-9 -11 -27 -25t-47.5 -27.5t-72 -22.5t-102.5 -9h-13q-68 0 -115.5 14.5t-77.5 39t-43.5 56t-13.5 66.5v7q0 74 52.5 112t173.5 49
l246 23q19 2 26.5 8.5t7.5 19.5q0 7 -3.5 15t-17.5 14.5t-42 10.5t-77 4h-5q-50 0 -78 -7t-41.5 -16.5t-17 -19.5t-4.5 -17h-207v2q0 18 3 38.5t13.5 40.5t31.5 38.5t56.5 33t88.5 23t128 8.5h55q117 0 183.5 -16t99.5 -41.5t41 -56.5t8 -60v-206q0 -12 5.5 -19.5t22.5 -7.5
h29v-146h-181q-32 0 -55.5 18t-29.5 56zM274 590l-107 154h232l90 -154h-215z" />
    <glyph glyph-name="aacute" unicode="&#xe1;" horiz-adv-x="800" 
d="M522 256l-213 -33q-43 -7 -62 -17t-19 -33v-1q0 -11 4.5 -22t16 -19.5t30 -14t47.5 -5.5q45 0 81 11t61.5 29t39.5 41t14 47v17zM528 74q-9 -11 -27 -25t-47.5 -27.5t-72 -22.5t-102.5 -9h-13q-68 0 -115.5 14.5t-77.5 39t-43.5 56t-13.5 66.5v7q0 74 52.5 112t173.5 49
l246 23q19 2 26.5 8.5t7.5 19.5q0 7 -3.5 15t-17.5 14.5t-42 10.5t-77 4h-5q-50 0 -78 -7t-41.5 -16.5t-17 -19.5t-4.5 -17h-207v2q0 18 3 38.5t13.5 40.5t31.5 38.5t56.5 33t88.5 23t128 8.5h55q117 0 183.5 -16t99.5 -41.5t41 -56.5t8 -60v-206q0 -12 5.5 -19.5t22.5 -7.5
h29v-146h-181q-32 0 -55.5 18t-29.5 56zM362 744h230l-107 -154h-213z" />
    <glyph glyph-name="acircumflex" unicode="&#xe2;" horiz-adv-x="800" 
d="M522 256l-213 -33q-43 -7 -62 -17t-19 -33v-1q0 -11 4.5 -22t16 -19.5t30 -14t47.5 -5.5q45 0 81 11t61.5 29t39.5 41t14 47v17zM528 74q-9 -11 -27 -25t-47.5 -27.5t-72 -22.5t-102.5 -9h-13q-68 0 -115.5 14.5t-77.5 39t-43.5 56t-13.5 66.5v7q0 74 52.5 112t173.5 49
l246 23q19 2 26.5 8.5t7.5 19.5q0 7 -3.5 15t-17.5 14.5t-42 10.5t-77 4h-5q-50 0 -78 -7t-41.5 -16.5t-17 -19.5t-4.5 -17h-207v2q0 18 3 38.5t13.5 40.5t31.5 38.5t56.5 33t88.5 23t128 8.5h55q117 0 183.5 -16t99.5 -41.5t41 -56.5t8 -60v-206q0 -12 5.5 -19.5t22.5 -7.5
h29v-146h-181q-32 0 -55.5 18t-29.5 56zM653 590h-215l-61 64l-61 -64h-212l150 155h247z" />
    <glyph glyph-name="atilde" unicode="&#xe3;" horiz-adv-x="800" 
d="M522 256l-213 -33q-43 -7 -62 -17t-19 -33v-1q0 -11 4.5 -22t16 -19.5t30 -14t47.5 -5.5q45 0 81 11t61.5 29t39.5 41t14 47v17zM528 74q-9 -11 -27 -25t-47.5 -27.5t-72 -22.5t-102.5 -9h-13q-68 0 -115.5 14.5t-77.5 39t-43.5 56t-13.5 66.5v7q0 74 52.5 112t173.5 49
l246 23q19 2 26.5 8.5t7.5 19.5q0 7 -3.5 15t-17.5 14.5t-42 10.5t-77 4h-5q-50 0 -78 -7t-41.5 -16.5t-17 -19.5t-4.5 -17h-207v2q0 18 3 38.5t13.5 40.5t31.5 38.5t56.5 33t88.5 23t128 8.5h55q117 0 183.5 -16t99.5 -41.5t41 -56.5t8 -60v-206q0 -12 5.5 -19.5t22.5 -7.5
h29v-146h-181q-32 0 -55.5 18t-29.5 56zM496 594q-13 0 -25 1.5t-26 4.5t-31.5 8.5t-41.5 13.5q-20 7 -33 11t-24 4q-10 0 -13 -6t-3 -15v-29h-144v76q0 15 4 32.5t14.5 31.5t29.5 23.5t49 9.5h5q15 0 27.5 -1.5t26 -4.5t30 -8.5l40.5 -13.5q20 -7 33 -11t24 -4
q9 0 12.5 6.5t3.5 15.5v29h144v-76q0 -16 -3.5 -33t-14 -31.5t-29.5 -24t-49 -9.5h-6v0z" />
    <glyph glyph-name="adieresis" unicode="&#xe4;" horiz-adv-x="800" 
d="M522 256l-213 -33q-43 -7 -62 -17t-19 -33v-1q0 -11 4.5 -22t16 -19.5t30 -14t47.5 -5.5q45 0 81 11t61.5 29t39.5 41t14 47v17zM528 74q-9 -11 -27 -25t-47.5 -27.5t-72 -22.5t-102.5 -9h-13q-68 0 -115.5 14.5t-77.5 39t-43.5 56t-13.5 66.5v7q0 74 52.5 112t173.5 49
l246 23q19 2 26.5 8.5t7.5 19.5q0 7 -3.5 15t-17.5 14.5t-42 10.5t-77 4h-5q-50 0 -78 -7t-41.5 -16.5t-17 -19.5t-4.5 -17h-207v2q0 18 3 38.5t13.5 40.5t31.5 38.5t56.5 33t88.5 23t128 8.5h55q117 0 183.5 -16t99.5 -41.5t41 -56.5t8 -60v-206q0 -12 5.5 -19.5t22.5 -7.5
h29v-146h-181q-32 0 -55.5 18t-29.5 56zM619 590h-216v154h216v-154zM353 590h-215v154h215v-154z" />
    <glyph glyph-name="aring" unicode="&#xe5;" horiz-adv-x="800" 
d="M522 256l-213 -33q-43 -7 -62 -17t-19 -33v-1q0 -11 4.5 -22t16 -19.5t30 -14t47.5 -5.5q45 0 81 11t61.5 29t39.5 41t14 47v17zM528 74q-9 -11 -27 -25t-47.5 -27.5t-72 -22.5t-102.5 -9h-13q-68 0 -115.5 14.5t-77.5 39t-43.5 56t-13.5 66.5v7q0 74 52.5 112t173.5 49
l246 23q19 2 26.5 8.5t7.5 19.5q0 7 -3.5 15t-17.5 14.5t-42 10.5t-77 4h-5q-50 0 -78 -7t-41.5 -16.5t-17 -19.5t-4.5 -17h-207v2q0 18 3 38.5t13.5 40.5t31.5 38.5t56.5 33t88.5 23t128 8.5h55q117 0 183.5 -16t99.5 -41.5t41 -56.5t8 -60v-206q0 -12 5.5 -19.5t22.5 -7.5
h29v-146h-181q-32 0 -55.5 18t-29.5 56zM188 699q0 24 9.5 45t31.5 37t59 25t91 9t90 -9t57.5 -25t30.5 -37t9 -45q0 -25 -9 -46.5t-30.5 -37.5t-57.5 -25t-90 -9q-56 0 -92.5 9.5t-58.5 25.5t-31 37.5t-9 45.5zM303 699q0 -21 18 -34t58 -13q39 0 56 13t17 34
q0 20 -17 32.5t-56 12.5q-40 0 -58 -12.5t-18 -32.5z" />
    <glyph glyph-name="ae" unicode="&#xe6;" horiz-adv-x="1337" 
d="M914 428q-84 0 -124.5 -24t-53.5 -67h358q-10 43 -51.5 67t-126.5 24h-2zM325 110q43 0 78.5 11t60.5 29.5t38.5 41.5t13.5 47v17l-211 -32q-42 -6 -60 -16.5t-18 -32.5v-1q0 -11 5 -22.5t16.5 -20.5t30 -15t46.5 -6zM1314 189q0 -18 -4.5 -40t-18 -45t-38.5 -44
t-65.5 -38t-99 -27t-139.5 -10h-59q-68 0 -120 9.5t-91.5 26t-68 38.5t-47.5 47q-8 -11 -27 -30.5t-51.5 -38.5t-79.5 -33t-110 -14h-13q-75 0 -125.5 14.5t-82 39t-45 56.5t-13.5 66v7q0 74 53.5 113t170.5 50l253 23q23 3 23 28q0 7 -3.5 14.5t-17.5 13.5t-41.5 9.5
t-75.5 3.5h-7q-49 0 -76 -6.5t-40 -16t-16 -19.5t-4 -17h-206v2q0 18 2.5 38.5t12.5 40.5t30.5 38.5t55.5 33t88 23t128 8.5h55q61 0 105 -5.5t73.5 -13t47 -16.5t26.5 -16q9 6 27 15t46 17t67 13.5t91 5.5h64q118 0 190.5 -27t112 -69.5t52.5 -94t13 -99.5v-37h-584
q9 -47 53 -76t136 -29h1q56 0 90 9t52.5 20.5t25 23t6.5 16.5h218v-1z" />
    <glyph glyph-name="ccedilla" unicode="&#xe7;" horiz-adv-x="850" 
d="M397 -15q-115 0 -188 26.5t-114.5 67t-57 89.5t-15.5 94v20q0 45 15.5 93t56.5 87.5t114 65t188 25.5h57q84 0 144.5 -12.5t102.5 -32.5t68 -45.5t40 -51.5t18.5 -50.5t4.5 -42.5v-3h-229q-2 8 -8.5 24t-25 32.5t-53 28.5t-91.5 12h-3q-49 0 -81.5 -11t-52.5 -30
t-28.5 -43t-8.5 -49v-7q0 -27 8.5 -53t28.5 -46t53 -32.5t81 -12.5h3q56 0 90.5 12.5t53.5 29t25.5 33t8.5 24.5h229v-2q0 -19 -4 -44t-17.5 -51.5t-39 -52.5t-67.5 -46.5t-103.5 -33t-147.5 -12.5h-55zM253 -168h106q24 0 32 6t8 16t-8 16.5t-32 6.5h-71v123h127v-50
q56 0 91.5 -7t55.5 -20t27.5 -32t7.5 -42v-3q0 -21 -7.5 -39.5t-27.5 -33t-55.5 -23t-92.5 -8.5h-161v90z" />
    <glyph glyph-name="egrave" unicode="&#xe8;" horiz-adv-x="851" 
d="M424 428q-84 0 -125 -24t-54 -67h360q-11 43 -53 67t-127 24h-1zM827 189q0 -27 -12.5 -62.5t-51.5 -67t-112 -53t-193 -21.5h-57q-108 0 -180.5 23t-116.5 61.5t-63 88t-19 102.5v22q0 52 17.5 100.5t60 86.5t114.5 61t181 23h61q118 0 191.5 -27t114 -69t54.5 -93.5
t14 -100.5v-37h-589q10 -47 54 -76t136 -29h1q55 0 89 9t53 20.5t25.5 23t7.5 16.5h220v-1zM315 590l-107 154h232l90 -154h-215z" />
    <glyph glyph-name="eacute" unicode="&#xe9;" horiz-adv-x="851" 
d="M424 428q-84 0 -125 -24t-54 -67h360q-11 43 -53 67t-127 24h-1zM827 189q0 -27 -12.5 -62.5t-51.5 -67t-112 -53t-193 -21.5h-57q-108 0 -180.5 23t-116.5 61.5t-63 88t-19 102.5v22q0 52 17.5 100.5t60 86.5t114.5 61t181 23h61q118 0 191.5 -27t114 -69t54.5 -93.5
t14 -100.5v-37h-589q10 -47 54 -76t136 -29h1q55 0 89 9t53 20.5t25.5 23t7.5 16.5h220v-1zM410 744h230l-107 -154h-213z" />
    <glyph glyph-name="ecircumflex" unicode="&#xea;" horiz-adv-x="851" 
d="M424 428q-84 0 -125 -24t-54 -67h360q-11 43 -53 67t-127 24h-1zM827 189q0 -27 -12.5 -62.5t-51.5 -67t-112 -53t-193 -21.5h-57q-108 0 -180.5 23t-116.5 61.5t-63 88t-19 102.5v22q0 52 17.5 100.5t60 86.5t114.5 61t181 23h61q118 0 191.5 -27t114 -69t54.5 -93.5
t14 -100.5v-37h-589q10 -47 54 -76t136 -29h1q55 0 89 9t53 20.5t25.5 23t7.5 16.5h220v-1zM701 590h-215l-61 64l-61 -64h-212l150 155h247z" />
    <glyph glyph-name="edieresis" unicode="&#xeb;" horiz-adv-x="851" 
d="M424 428q-84 0 -125 -24t-54 -67h360q-11 43 -53 67t-127 24h-1zM827 189q0 -27 -12.5 -62.5t-51.5 -67t-112 -53t-193 -21.5h-57q-108 0 -180.5 23t-116.5 61.5t-63 88t-19 102.5v22q0 52 17.5 100.5t60 86.5t114.5 61t181 23h61q118 0 191.5 -27t114 -69t54.5 -93.5
t14 -100.5v-37h-589q10 -47 54 -76t136 -29h1q55 0 89 9t53 20.5t25.5 23t7.5 16.5h220v-1zM667 590h-216v154h216v-154zM401 590h-215v154h215v-154z" />
    <glyph glyph-name="igrave" unicode="&#xec;" horiz-adv-x="317" 
d="M270 0h-223v538h223v-538zM50 590l-107 154h232l90 -154h-215z" />
    <glyph glyph-name="iacute" unicode="&#xed;" horiz-adv-x="317" 
d="M270 0h-223v538h223v-538zM144 744h230l-107 -154h-213z" />
    <glyph glyph-name="icircumflex" unicode="&#xee;" horiz-adv-x="317" 
d="M379 590h-177l-45 64l-45 -64h-174l106 154h227zM270 0h-223v538h223v-538z" />
    <glyph glyph-name="idieresis" unicode="&#xef;" horiz-adv-x="317" 
d="M354 590h-175v154h175v-154zM137 590h-174v154h174v-154zM270 0h-223v538h223v-538z" />
    <glyph glyph-name="eth" unicode="&#xf0;" horiz-adv-x="886" 
d="M413 -15q-116 0 -191.5 24.5t-120 63t-62 86t-17.5 94.5v24q0 52 16 99.5t53 83.5t97.5 57.5t148.5 21.5h17q77 0 129.5 -17t93.5 -40l-144 106l-272 -31v90l164 18l-108 79h278l72 -51l208 23v-90l-99 -11q51 -37 86.5 -73.5t58 -75t33 -79t10.5 -85.5v-20
q0 -30 -3.5 -63.5t-16.5 -66.5t-39 -63t-70 -53.5t-109.5 -37t-158.5 -13.5h-54zM442 130q57 0 95 12t60 31.5t31 43.5t9 49v5q0 25 -9 49.5t-31.5 43.5t-60 30.5t-93.5 11.5h-1q-57 0 -94.5 -11.5t-59.5 -30t-31 -43t-9 -50.5v-5q0 -25 9 -49t31 -43.5t59.5 -31.5t94.5 -12
z" />
    <glyph glyph-name="ntilde" unicode="&#xf1;" horiz-adv-x="849" 
d="M40 538h221v-92q10 10 30.5 27.5t53 34.5t78 29.5t105.5 12.5h7q70 0 120 -18t81.5 -48t46 -67.5t14.5 -76.5v-340h-225v266q0 62 -35 98t-109 36q-75 0 -120 -40t-45 -106v-254h-223v538zM537 594q-13 0 -25 1.5t-26 4.5t-31.5 8.5t-41.5 13.5q-20 7 -33 11t-24 4
q-10 0 -13 -6t-3 -15v-29h-144v76q0 15 4 32.5t14.5 31.5t29.5 23.5t49 9.5h5q15 0 27.5 -1.5t26 -4.5t30 -8.5l40.5 -13.5q20 -7 33 -11t24 -4q9 0 12.5 6.5t3.5 15.5v29h144v-76q0 -16 -3.5 -33t-14 -31.5t-29.5 -24t-49 -9.5h-6v0z" />
    <glyph glyph-name="ograve" unicode="&#xf2;" horiz-adv-x="886" 
d="M409 -15q-117 0 -192 26t-118.5 66.5t-60 89.5t-16.5 96v18q0 46 16.5 94.5t59.5 88t118 64.5t192 25h71q123 0 198.5 -25.5t117 -65t55.5 -87.5t14 -94v-18q0 -47 -13.5 -96t-54.5 -89.5t-116.5 -66.5t-200.5 -26h-70zM444 130q57 0 94.5 13t59.5 33t31 44.5t9 48.5v5
q0 25 -9 49.5t-31 43.5t-59.5 31t-93.5 12h-1q-57 0 -94.5 -11.5t-59.5 -31t-31 -44t-9 -49.5v-5q0 -24 9 -48.5t31 -44.5t59.5 -33t94.5 -13zM336 590l-107 154h232l90 -154h-215z" />
    <glyph glyph-name="oacute" unicode="&#xf3;" horiz-adv-x="886" 
d="M409 -15q-117 0 -192 26t-118.5 66.5t-60 89.5t-16.5 96v18q0 46 16.5 94.5t59.5 88t118 64.5t192 25h71q123 0 198.5 -25.5t117 -65t55.5 -87.5t14 -94v-18q0 -47 -13.5 -96t-54.5 -89.5t-116.5 -66.5t-200.5 -26h-70zM444 130q57 0 94.5 13t59.5 33t31 44.5t9 48.5v5
q0 25 -9 49.5t-31 43.5t-59.5 31t-93.5 12h-1q-57 0 -94.5 -11.5t-59.5 -31t-31 -44t-9 -49.5v-5q0 -24 9 -48.5t31 -44.5t59.5 -33t94.5 -13zM427 744h230l-107 -154h-213z" />
    <glyph glyph-name="ocircumflex" unicode="&#xf4;" horiz-adv-x="886" 
d="M409 -15q-117 0 -192 26t-118.5 66.5t-60 89.5t-16.5 96v18q0 46 16.5 94.5t59.5 88t118 64.5t192 25h71q123 0 198.5 -25.5t117 -65t55.5 -87.5t14 -94v-18q0 -47 -13.5 -96t-54.5 -89.5t-116.5 -66.5t-200.5 -26h-70zM444 130q57 0 94.5 13t59.5 33t31 44.5t9 48.5v5
q0 25 -9 49.5t-31 43.5t-59.5 31t-93.5 12h-1q-57 0 -94.5 -11.5t-59.5 -31t-31 -44t-9 -49.5v-5q0 -24 9 -48.5t31 -44.5t59.5 -33t94.5 -13zM718 590h-215l-61 64l-61 -64h-212l150 155h247z" />
    <glyph glyph-name="otilde" unicode="&#xf5;" horiz-adv-x="886" 
d="M409 -15q-117 0 -192 26t-118.5 66.5t-60 89.5t-16.5 96v18q0 46 16.5 94.5t59.5 88t118 64.5t192 25h71q123 0 198.5 -25.5t117 -65t55.5 -87.5t14 -94v-18q0 -47 -13.5 -96t-54.5 -89.5t-116.5 -66.5t-200.5 -26h-70zM444 130q57 0 94.5 13t59.5 33t31 44.5t9 48.5v5
q0 25 -9 49.5t-31 43.5t-59.5 31t-93.5 12h-1q-57 0 -94.5 -11.5t-59.5 -31t-31 -44t-9 -49.5v-5q0 -24 9 -48.5t31 -44.5t59.5 -33t94.5 -13zM562 594q-13 0 -25 1.5t-26 4.5t-31.5 8.5t-41.5 13.5q-20 7 -33 11t-24 4q-10 0 -13 -6t-3 -15v-29h-144v76q0 15 4 32.5
t14.5 31.5t29.5 23.5t49 9.5h5q15 0 27.5 -1.5t26 -4.5t30 -8.5l40.5 -13.5q20 -7 33 -11t24 -4q9 0 12.5 6.5t3.5 15.5v29h144v-76q0 -16 -3.5 -33t-14 -31.5t-29.5 -24t-49 -9.5h-6v0z" />
    <glyph glyph-name="odieresis" unicode="&#xf6;" horiz-adv-x="886" 
d="M409 -15q-117 0 -192 26t-118.5 66.5t-60 89.5t-16.5 96v18q0 46 16.5 94.5t59.5 88t118 64.5t192 25h71q123 0 198.5 -25.5t117 -65t55.5 -87.5t14 -94v-18q0 -47 -13.5 -96t-54.5 -89.5t-116.5 -66.5t-200.5 -26h-70zM444 130q57 0 94.5 13t59.5 33t31 44.5t9 48.5v5
q0 25 -9 49.5t-31 43.5t-59.5 31t-93.5 12h-1q-57 0 -94.5 -11.5t-59.5 -31t-31 -44t-9 -49.5v-5q0 -24 9 -48.5t31 -44.5t59.5 -33t94.5 -13zM684 590h-216v154h216v-154zM418 590h-215v154h215v-154z" />
    <glyph glyph-name="divide" unicode="&#xf7;" horiz-adv-x="624" 
d="M408 433h-192v152h192v-152zM586 377v-138h-548v138h548zM408 30h-192v152h192v-152z" />
    <glyph glyph-name="oslash" unicode="&#xf8;" horiz-adv-x="886" 
d="M409 -15q-65 0 -121 11t-97 31l-38 -27h-171l119 86q-33 30 -56 74t-23 103v18q0 46 16.5 94.5t60 88t118 64.5t191.5 25h70q76 0 130.5 -13t87.5 -27l36 25h173l-118 -84q34 -30 55.5 -73t21.5 -100v-18q0 -30 -5.5 -62.5t-20.5 -63.5t-42 -58.5t-70 -48.5t-103.5 -33
t-143.5 -12h-70zM246 269q0 -17 4 -34.5t14 -33.5l277 197q-39 12 -96 12h-1q-59 0 -97 -11.5t-60.5 -31t-31.5 -44t-9 -49.5v-5zM444 130q58 0 96.5 13t60.5 33t31 44.5t9 48.5v5q0 17 -3.5 33t-11.5 30l-273 -196q39 -11 91 -11z" />
    <glyph glyph-name="ugrave" unicode="&#xf9;" horiz-adv-x="838" 
d="M791 0h-221v93l-30 -27t-52 -35t-76.5 -30t-102.5 -13h-8q-69 0 -118 19.5t-79.5 50t-44.5 69t-14 76.5v335h225v-266q0 -60 33.5 -97t104.5 -37q73 0 116.5 40t43.5 106v254h223v-538zM313 590l-107 154h232l90 -154h-215z" />
    <glyph glyph-name="uacute" unicode="&#xfa;" horiz-adv-x="838" 
d="M791 0h-221v93l-30 -27t-52 -35t-76.5 -30t-102.5 -13h-8q-69 0 -118 19.5t-79.5 50t-44.5 69t-14 76.5v335h225v-266q0 -60 33.5 -97t104.5 -37q73 0 116.5 40t43.5 106v254h223v-538zM397 744h230l-107 -154h-213z" />
    <glyph glyph-name="ucircumflex" unicode="&#xfb;" horiz-adv-x="838" 
d="M791 0h-221v93l-30 -27t-52 -35t-76.5 -30t-102.5 -13h-8q-69 0 -118 19.5t-79.5 50t-44.5 69t-14 76.5v335h225v-266q0 -60 33.5 -97t104.5 -37q73 0 116.5 40t43.5 106v254h223v-538zM693 590h-215l-61 64l-61 -64h-212l150 155h247z" />
    <glyph glyph-name="udieresis" unicode="&#xfc;" horiz-adv-x="838" 
d="M791 0h-221v93l-30 -27t-52 -35t-76.5 -30t-102.5 -13h-8q-69 0 -118 19.5t-79.5 50t-44.5 69t-14 76.5v335h225v-266q0 -60 33.5 -97t104.5 -37q73 0 116.5 40t43.5 106v254h223v-538zM659 590h-216v154h216v-154zM393 590h-215v154h215v-154z" />
    <glyph glyph-name="yacute" unicode="&#xfd;" horiz-adv-x="783" 
d="M119 -28h126q16 0 21 4.5t5 12.5t-6.5 21t-18.5 36l-257 492h240l173 -364l168 364h224l-282 -574q-19 -38 -38.5 -66.5t-43 -47.5t-52 -28.5t-64.5 -9.5h-195v160zM373 744h230l-107 -154h-213z" />
    <glyph glyph-name="thorn" unicode="&#xfe;" horiz-adv-x="908" 
d="M270 269q0 -25 12 -50t36.5 -45t62 -32.5t88.5 -12.5h5q54 0 89.5 12.5t56.5 33t29.5 45.5t8.5 49v4q0 26 -8.5 51t-29.5 44.5t-56.5 31.5t-89.5 12h-5q-52 0 -89.5 -12t-62 -31.5t-36 -44.5t-11.5 -51v-4zM270 744v-283q9 8 29.5 23t54.5 30t81 26t108 11h18
q91 0 153.5 -21.5t100.5 -58t54.5 -86t16.5 -104.5v-19q0 -53 -17 -103t-55.5 -88t-101.5 -61t-155 -23h-16q-61 0 -108 11t-81 25.5t-54.5 29.5t-27.5 23v-264h-223v932h223z" />
    <glyph glyph-name="ydieresis" unicode="&#xff;" horiz-adv-x="783" 
d="M119 -28h126q16 0 21 4.5t5 12.5t-6.5 21t-18.5 36l-257 492h240l173 -364l168 364h224l-282 -574q-19 -38 -38.5 -66.5t-43 -47.5t-52 -28.5t-64.5 -9.5h-195v160zM642 590h-216v154h216v-154zM376 590h-215v154h215v-154z" />
    <glyph glyph-name="Amacron" unicode="&#x100;" horiz-adv-x="1044" 
d="M509 583l-138 -279h282zM739 136h-451l-67 -136h-237l376 744h302l398 -744h-251zM291 930h441v-126h-441v126z" />
    <glyph glyph-name="amacron" unicode="&#x101;" horiz-adv-x="800" 
d="M522 256l-213 -33q-43 -7 -62 -17t-19 -33v-1q0 -11 4.5 -22t16 -19.5t30 -14t47.5 -5.5q45 0 81 11t61.5 29t39.5 41t14 47v17zM528 74q-9 -11 -27 -25t-47.5 -27.5t-72 -22.5t-102.5 -9h-13q-68 0 -115.5 14.5t-77.5 39t-43.5 56t-13.5 66.5v7q0 74 52.5 112t173.5 49
l246 23q19 2 26.5 8.5t7.5 19.5q0 7 -3.5 15t-17.5 14.5t-42 10.5t-77 4h-5q-50 0 -78 -7t-41.5 -16.5t-17 -19.5t-4.5 -17h-207v2q0 18 3 38.5t13.5 40.5t31.5 38.5t56.5 33t88.5 23t128 8.5h55q117 0 183.5 -16t99.5 -41.5t41 -56.5t8 -60v-206q0 -12 5.5 -19.5t22.5 -7.5
h29v-146h-181q-32 0 -55.5 18t-29.5 56zM167 723h422v-122h-422v122z" />
    <glyph glyph-name="Abreve" unicode="&#x102;" horiz-adv-x="1044" 
d="M509 583l-138 -279h282zM739 136h-451l-67 -136h-237l376 744h302l398 -744h-251zM496 787q-68 0 -110.5 18.5t-66 44t-32 53t-8.5 46.5v2h172q0 -5 2.5 -13t9 -16t18.5 -13.5t33 -5.5q20 0 32 5.5t18.5 13.5t9 16t2.5 13h168v-2q0 -19 -10 -46.5t-34.5 -53t-66 -44
t-103.5 -18.5h-34v0z" />
    <glyph glyph-name="abreve" unicode="&#x103;" horiz-adv-x="800" 
d="M366 582q-68 0 -110.5 18t-65.5 43t-31 52.5t-8 46.5v2h170q0 -5 2.5 -13t9 -16t18.5 -14t32 -6q19 0 31 6t18.5 14t9 16t2.5 13h166v-2q0 -19 -10 -46.5t-34 -52.5t-65 -43t-103 -18h-32v0zM522 256l-213 -33q-43 -7 -62 -17t-19 -33v-1q0 -11 4.5 -22t16 -19.5t30 -14
t47.5 -5.5q45 0 81 11t61.5 29t39.5 41t14 47v17zM528 74q-9 -11 -27 -25t-47.5 -27.5t-72 -22.5t-102.5 -9h-13q-68 0 -115.5 14.5t-77.5 39t-43.5 56t-13.5 66.5v7q0 74 52.5 112t173.5 49l246 23q19 2 26.5 8.5t7.5 19.5q0 7 -3.5 15t-17.5 14.5t-42 10.5t-77 4h-5
q-50 0 -78 -7t-41.5 -16.5t-17 -19.5t-4.5 -17h-207v2q0 18 3 38.5t13.5 40.5t31.5 38.5t56.5 33t88.5 23t128 8.5h55q117 0 183.5 -16t99.5 -41.5t41 -56.5t8 -60v-206q0 -12 5.5 -19.5t22.5 -7.5h29v-146h-181q-32 0 -55.5 18t-29.5 56z" />
    <glyph glyph-name="Aogonek" unicode="&#x104;" horiz-adv-x="1044" 
d="M509 583l-138 -279h282zM739 136h-451l-67 -136h-237l376 744h302l398 -744h-251zM925 -188q-66 0 -98 18.5t-32 52.5v2q0 40 44.5 66t124.5 49h96q-26 -18 -42.5 -33t-16.5 -30q0 -23 38 -23h21v-102h-135z" />
    <glyph glyph-name="aogonek" unicode="&#x105;" horiz-adv-x="800" 
d="M522 256l-213 -33q-43 -7 -62 -17t-19 -33v-1q0 -11 4.5 -22t16 -19.5t30 -14t47.5 -5.5q45 0 81 11t61.5 29t39.5 41t14 47v17zM528 74q-9 -11 -27 -25t-47.5 -27.5t-72 -22.5t-102.5 -9h-13q-68 0 -115.5 14.5t-77.5 39t-43.5 56t-13.5 66.5v7q0 74 52.5 112t173.5 49
l246 23q19 2 26.5 8.5t7.5 19.5q0 7 -3.5 15t-17.5 14.5t-42 10.5t-77 4h-5q-50 0 -78 -7t-41.5 -16.5t-17 -19.5t-4.5 -17h-207v2q0 18 3 38.5t13.5 40.5t31.5 38.5t56.5 33t88.5 23t128 8.5h55q117 0 183.5 -16t99.5 -41.5t41 -56.5t8 -60v-206q0 -12 5.5 -19.5t22.5 -7.5
h29v-146h-181q-32 0 -55.5 18t-29.5 56zM659 -188q-66 0 -98 18.5t-32 52.5v2q0 40 44.5 66t124.5 49h96q-26 -18 -42.5 -33t-16.5 -30q0 -23 38 -23h21v-102h-135z" />
    <glyph glyph-name="Cacute" unicode="&#x106;" horiz-adv-x="1089" 
d="M527 946h240l-105 -150h-225zM525 -13q-108 0 -186.5 18.5t-134 49t-90 69.5t-54 80.5t-26.5 82t-7 73.5v29q0 34 6.5 74.5t25 81t52.5 79t89.5 68t135 47.5t189.5 18h41q108 0 187 -15.5t134 -41t89.5 -57.5t54 -64.5t26.5 -62.5t7 -52v-11h-247q-2 7 -11.5 27.5t-38 42
t-81 38t-141.5 16.5q-84 0 -137 -17t-83.5 -44.5t-42 -62t-11.5 -69.5v-12q0 -33 12.5 -69t44 -66t85 -49.5t134.5 -19.5q90 0 143 18t81 41.5t36.5 45t10.5 27.5h247v-11q0 -23 -7.5 -55t-27.5 -65.5t-55 -66t-90.5 -58t-134 -41.5t-184.5 -16h-41z" />
    <glyph glyph-name="cacute" unicode="&#x107;" horiz-adv-x="850" 
d="M410 744h230l-107 -154h-213zM397 -15q-115 0 -188 26.5t-114.5 67t-57 89.5t-15.5 94v20q0 45 15.5 93t56.5 87.5t114 65t188 25.5h57q84 0 144.5 -12.5t102.5 -32.5t68 -45.5t40 -51.5t18.5 -50.5t4.5 -42.5v-3h-229q-2 8 -8.5 24t-25 32.5t-53 28.5t-91.5 12h-3
q-49 0 -81.5 -11t-52.5 -30t-28.5 -43t-8.5 -49v-7q0 -27 8.5 -53t28.5 -46t53 -32.5t81 -12.5h3q56 0 90.5 12.5t53.5 29t25.5 33t8.5 24.5h229v-2q0 -19 -4 -44t-17.5 -51.5t-39 -52.5t-67.5 -46.5t-103.5 -33t-147.5 -12.5h-55z" />
    <glyph glyph-name="Ccircumflex" unicode="&#x108;" horiz-adv-x="1089" 
d="M830 796h-220l-66 58l-65 -58h-217l157 150h251zM525 -13q-108 0 -186.5 18.5t-134 49t-90 69.5t-54 80.5t-26.5 82t-7 73.5v29q0 34 6.5 74.5t25 81t52.5 79t89.5 68t135 47.5t189.5 18h41q108 0 187 -15.5t134 -41t89.5 -57.5t54 -64.5t26.5 -62.5t7 -52v-11h-247
q-2 7 -11.5 27.5t-38 42t-81 38t-141.5 16.5q-84 0 -137 -17t-83.5 -44.5t-42 -62t-11.5 -69.5v-12q0 -33 12.5 -69t44 -66t85 -49.5t134.5 -19.5q90 0 143 18t81 41.5t36.5 45t10.5 27.5h247v-11q0 -23 -7.5 -55t-27.5 -65.5t-55 -66t-90.5 -58t-134 -41.5t-184.5 -16h-41z
" />
    <glyph glyph-name="ccircumflex" unicode="&#x109;" horiz-adv-x="850" 
d="M701 589h-215l-61 64l-61 -64h-212l150 155h247zM397 -15q-115 0 -188 26.5t-114.5 67t-57 89.5t-15.5 94v20q0 45 15.5 93t56.5 87.5t114 65t188 25.5h57q84 0 144.5 -12.5t102.5 -32.5t68 -45.5t40 -51.5t18.5 -50.5t4.5 -42.5v-3h-229q-2 8 -8.5 24t-25 32.5t-53 28.5
t-91.5 12h-3q-49 0 -81.5 -11t-52.5 -30t-28.5 -43t-8.5 -49v-7q0 -27 8.5 -53t28.5 -46t53 -32.5t81 -12.5h3q56 0 90.5 12.5t53.5 29t25.5 33t8.5 24.5h229v-2q0 -19 -4 -44t-17.5 -51.5t-39 -52.5t-67.5 -46.5t-103.5 -33t-147.5 -12.5h-55z" />
    <glyph glyph-name="Cdotaccent" unicode="&#x10a;" horiz-adv-x="1089" 
d="M658 796h-223v154h223v-154zM525 -13q-108 0 -186.5 18.5t-134 49t-90 69.5t-54 80.5t-26.5 82t-7 73.5v29q0 34 6.5 74.5t25 81t52.5 79t89.5 68t135 47.5t189.5 18h41q108 0 187 -15.5t134 -41t89.5 -57.5t54 -64.5t26.5 -62.5t7 -52v-11h-247q-2 7 -11.5 27.5t-38 42
t-81 38t-141.5 16.5q-84 0 -137 -17t-83.5 -44.5t-42 -62t-11.5 -69.5v-12q0 -33 12.5 -69t44 -66t85 -49.5t134.5 -19.5q90 0 143 18t81 41.5t36.5 45t10.5 27.5h247v-11q0 -23 -7.5 -55t-27.5 -65.5t-55 -66t-90.5 -58t-134 -41.5t-184.5 -16h-41z" />
    <glyph glyph-name="cdotaccent" unicode="&#x10b;" horiz-adv-x="850" 
d="M538 590h-223v154h223v-154zM397 -15q-115 0 -188 26.5t-114.5 67t-57 89.5t-15.5 94v20q0 45 15.5 93t56.5 87.5t114 65t188 25.5h57q84 0 144.5 -12.5t102.5 -32.5t68 -45.5t40 -51.5t18.5 -50.5t4.5 -42.5v-3h-229q-2 8 -8.5 24t-25 32.5t-53 28.5t-91.5 12h-3
q-49 0 -81.5 -11t-52.5 -30t-28.5 -43t-8.5 -49v-7q0 -27 8.5 -53t28.5 -46t53 -32.5t81 -12.5h3q56 0 90.5 12.5t53.5 29t25.5 33t8.5 24.5h229v-2q0 -19 -4 -44t-17.5 -51.5t-39 -52.5t-67.5 -46.5t-103.5 -33t-147.5 -12.5h-55z" />
    <glyph glyph-name="Ccaron" unicode="&#x10c;" horiz-adv-x="1089" 
d="M262 946h220l66 -58l65 58h217l-157 -150h-251zM525 -13q-108 0 -186.5 18.5t-134 49t-90 69.5t-54 80.5t-26.5 82t-7 73.5v29q0 34 6.5 74.5t25 81t52.5 79t89.5 68t135 47.5t189.5 18h41q108 0 187 -15.5t134 -41t89.5 -57.5t54 -64.5t26.5 -62.5t7 -52v-11h-247
q-2 7 -11.5 27.5t-38 42t-81 38t-141.5 16.5q-84 0 -137 -17t-83.5 -44.5t-42 -62t-11.5 -69.5v-12q0 -33 12.5 -69t44 -66t85 -49.5t134.5 -19.5q90 0 143 18t81 41.5t36.5 45t10.5 27.5h247v-11q0 -23 -7.5 -55t-27.5 -65.5t-55 -66t-90.5 -58t-134 -41.5t-184.5 -16h-41z
" />
    <glyph glyph-name="ccaron" unicode="&#x10d;" horiz-adv-x="850" 
d="M152 744h215l61 -63l61 63h212l-150 -154h-247zM397 -15q-115 0 -188 26.5t-114.5 67t-57 89.5t-15.5 94v20q0 45 15.5 93t56.5 87.5t114 65t188 25.5h57q84 0 144.5 -12.5t102.5 -32.5t68 -45.5t40 -51.5t18.5 -50.5t4.5 -42.5v-3h-229q-2 8 -8.5 24t-25 32.5t-53 28.5
t-91.5 12h-3q-49 0 -81.5 -11t-52.5 -30t-28.5 -43t-8.5 -49v-7q0 -27 8.5 -53t28.5 -46t53 -32.5t81 -12.5h3q56 0 90.5 12.5t53.5 29t25.5 33t8.5 24.5h229v-2q0 -19 -4 -44t-17.5 -51.5t-39 -52.5t-67.5 -46.5t-103.5 -33t-147.5 -12.5h-55z" />
    <glyph glyph-name="Dcaron" unicode="&#x10e;" horiz-adv-x="1098" 
d="M57 744h493q108 0 188.5 -14.5t139 -39.5t96.5 -59t60.5 -73.5t31.5 -81.5t9 -84v-30q0 -40 -8.5 -82.5t-30.5 -82.5t-60 -76t-96 -63t-139 -42.5t-190 -15.5h-494v744zM290 179h242q99 0 158 19.5t90.5 48t41 62t9.5 62.5v6q0 28 -9 61.5t-40 62.5t-90.5 48t-159.5 19
h-242v-389zM183 946h220l66 -58l65 58h217l-157 -150h-251z" />
    <glyph glyph-name="dcaron" unicode="&#x10f;" horiz-adv-x="909" 
d="M638 272q0 26 -13.5 51t-39 44.5t-64 31t-87.5 11.5h-5q-53 0 -87.5 -11.5t-54.5 -31t-28.5 -44.5t-8.5 -51v-4q0 -24 10 -49t31.5 -45t56 -32.5t83.5 -12.5h5q50 0 87.5 12t63 31.5t38.5 44.5t13 51v4zM862 744v-744h-222v82q-6 -8 -24 -23.5t-50 -31.5t-79.5 -28
t-112.5 -12h-13q-90 0 -154 22t-105 60t-60.5 88t-19.5 107v19q0 54 17.5 102.5t57 85.5t102.5 58.5t153 21.5h16q63 0 109.5 -10t79 -24t52.5 -28.5t29 -22.5v278h224zM908 744h179l-30 -166h-164z" />
    <glyph glyph-name="Dcroat" unicode="&#x110;" horiz-adv-x="1104" 
d="M63 300h-62v149h62v295h493q108 0 188.5 -14.5t139 -39.5t96.5 -59t60.5 -73.5t31.5 -81.5t9 -84v-30q0 -40 -8.5 -82.5t-30.5 -82.5t-60 -76t-96 -63t-139 -42.5t-190 -15.5h-494v300zM296 449h331v-149h-331v-121h242q99 0 158 19.5t90.5 48t41 62t9.5 62.5v6
q0 28 -9 61.5t-40 62.5t-90.5 48t-159.5 19h-242v-119z" />
    <glyph glyph-name="dcroat" unicode="&#x111;" horiz-adv-x="909" 
d="M352 694h587v-103h-587v103zM638 272q0 26 -13.5 51t-39 44.5t-64 31t-87.5 11.5h-5q-53 0 -87.5 -11.5t-54.5 -31t-28.5 -44.5t-8.5 -51v-4q0 -24 10 -49t31.5 -45t56 -32.5t83.5 -12.5h5q50 0 87.5 12t63 31.5t38.5 44.5t13 51v4zM862 744v-744h-222v82
q-6 -8 -24 -23.5t-50 -31.5t-79.5 -28t-112.5 -12h-13q-90 0 -154 22t-105 60t-60.5 88t-19.5 107v19q0 54 17.5 102.5t57 85.5t102.5 58.5t153 21.5h16q63 0 109.5 -10t79 -24t52.5 -28.5t29 -22.5v278h224z" />
    <glyph glyph-name="Emacron" unicode="&#x112;" horiz-adv-x="891" 
d="M841 744v-169h-554v-110h541v-170h-541v-122h564v-173h-794v744h784zM238 930h441v-126h-441v126z" />
    <glyph glyph-name="emacron" unicode="&#x113;" horiz-adv-x="851" 
d="M424 428q-84 0 -125 -24t-54 -67h360q-11 43 -53 67t-127 24h-1zM827 189q0 -27 -12.5 -62.5t-51.5 -67t-112 -53t-193 -21.5h-57q-108 0 -180.5 23t-116.5 61.5t-63 88t-19 102.5v22q0 52 17.5 100.5t60 86.5t114.5 61t181 23h61q118 0 191.5 -27t114 -69t54.5 -93.5
t14 -100.5v-37h-589q10 -47 54 -76t136 -29h1q55 0 89 9t53 20.5t25.5 23t7.5 16.5h220v-1zM215 723h422v-122h-422v122z" />
    <glyph glyph-name="Ebreve" unicode="&#x114;" horiz-adv-x="891" 
d="M841 744v-169h-554v-110h541v-170h-541v-122h564v-173h-794v744h784zM444 787q-68 0 -110.5 18.5t-66 44t-32 53t-8.5 46.5v2h172q0 -5 2.5 -13t9 -16t18.5 -13.5t33 -5.5q20 0 32 5.5t18.5 13.5t9 16t2.5 13h168v-2q0 -19 -10 -46.5t-34.5 -53t-66 -44t-103.5 -18.5h-34
v0z" />
    <glyph glyph-name="ebreve" unicode="&#x115;" horiz-adv-x="851" 
d="M412 582q-68 0 -110.5 18t-65.5 43t-31 52.5t-8 46.5v2h170q0 -5 2.5 -13t9 -16t18.5 -14t32 -6q19 0 31 6t18.5 14t9 16t2.5 13h166v-2q0 -19 -10 -46.5t-34 -52.5t-65 -43t-103 -18h-32v0zM424 428q-84 0 -125 -24t-54 -67h360q-11 43 -53 67t-127 24h-1zM827 189
q0 -27 -12.5 -62.5t-51.5 -67t-112 -53t-193 -21.5h-57q-108 0 -180.5 23t-116.5 61.5t-63 88t-19 102.5v22q0 52 17.5 100.5t60 86.5t114.5 61t181 23h61q118 0 191.5 -27t114 -69t54.5 -93.5t14 -100.5v-37h-589q10 -47 54 -76t136 -29h1q55 0 89 9t53 20.5t25.5 23
t7.5 16.5h220v-1z" />
    <glyph glyph-name="Edotaccent" unicode="&#x116;" horiz-adv-x="891" 
d="M841 744v-169h-554v-110h541v-170h-541v-122h564v-173h-794v744h784zM570 796h-223v154h223v-154z" />
    <glyph glyph-name="edotaccent" unicode="&#x117;" horiz-adv-x="851" 
d="M538 590h-223v154h223v-154zM424 428q-84 0 -125 -24t-54 -67h360q-11 43 -53 67t-127 24h-1zM827 189q0 -27 -12.5 -62.5t-51.5 -67t-112 -53t-193 -21.5h-57q-108 0 -180.5 23t-116.5 61.5t-63 88t-19 102.5v22q0 52 17.5 100.5t60 86.5t114.5 61t181 23h61
q118 0 191.5 -27t114 -69t54.5 -93.5t14 -100.5v-37h-589q10 -47 54 -76t136 -29h1q55 0 89 9t53 20.5t25.5 23t7.5 16.5h220v-1z" />
    <glyph glyph-name="Eogonek" unicode="&#x118;" horiz-adv-x="891" 
d="M602 -188q-66 0 -98 18.5t-32 52.5v2q0 40 44.5 66t124.5 49h96q-26 -18 -42.5 -33t-16.5 -30q0 -23 38 -23h25v-102h-139zM841 744v-169h-554v-110h541v-170h-541v-122h564v-173h-794v744h784z" />
    <glyph glyph-name="eogonek" unicode="&#x119;" horiz-adv-x="851" 
d="M424 428q-84 0 -125 -24t-54 -67h360q-11 43 -53 67t-127 24h-1zM696 -188h-139q-66 0 -98 18.5t-32 52.5v2q0 38 39.5 61.5t112.5 46.5q-26 -4 -56 -6t-65 -2h-57q-108 0 -180.5 23t-116.5 61.5t-63 88t-19 102.5v22q0 52 17.5 100.5t60 86.5t114.5 61t181 23h61
q118 0 191.5 -27t114 -69t54.5 -93.5t14 -100.5v-37h-589q10 -47 54 -76t136 -29h1q55 0 89 9t53 20.5t25.5 23t7.5 16.5h220v-1q0 -30 -9.5 -55t-27 -47.5t-42.5 -44t-56 -42.5q-26 -18 -42.5 -33t-16.5 -30q0 -23 38 -23h25v-102z" />
    <glyph glyph-name="Ecaron" unicode="&#x11a;" horiz-adv-x="891" 
d="M841 744v-169h-554v-110h541v-170h-541v-122h564v-173h-794v744h784zM175 946h220l66 -58l65 58h217l-157 -150h-251z" />
    <glyph glyph-name="ecaron" unicode="&#x11b;" horiz-adv-x="851" 
d="M152 744h215l61 -63l61 63h212l-150 -154h-247zM424 428q-84 0 -125 -24t-54 -67h360q-11 43 -53 67t-127 24h-1zM827 189q0 -27 -12.5 -62.5t-51.5 -67t-112 -53t-193 -21.5h-57q-108 0 -180.5 23t-116.5 61.5t-63 88t-19 102.5v22q0 52 17.5 100.5t60 86.5t114.5 61
t181 23h61q118 0 191.5 -27t114 -69t54.5 -93.5t14 -100.5v-37h-589q10 -47 54 -76t136 -29h1q55 0 89 9t53 20.5t25.5 23t7.5 16.5h220v-1z" />
    <glyph glyph-name="Gcircumflex" unicode="&#x11c;" horiz-adv-x="1121" 
d="M836 796h-220l-66 58l-65 -58h-217l157 150h251zM523 -13q-101 0 -177 17.5t-131 46.5t-91 67t-57.5 79.5t-30.5 84t-9 79.5v28q0 36 7.5 77.5t28 82.5t56 78.5t91.5 66.5t135 46t186 17h43q104 0 181 -14t131 -37t89 -52.5t55 -60.5t28 -62t9 -56v-1h-248q-2 6 -11 23.5
t-36.5 36t-79 32.5t-138.5 14q-85 0 -140 -17t-86.5 -45t-44 -64t-12.5 -75v-11q0 -36 15 -72t48.5 -64.5t87 -46t130.5 -17.5q83 0 138.5 13.5t88.5 31.5t47 35.5t14 25.5v2h-292v141h524v-417h-140q-1 10 -4 25t-7 31.5t-9 32t-10 27.5q-12 -14 -37 -36t-67.5 -42.5
t-105 -35.5t-148.5 -15h-21z" />
    <glyph glyph-name="gcircumflex" unicode="&#x11d;" horiz-adv-x="917" 
d="M433 411q-54 0 -89.5 -10.5t-56.5 -27t-29.5 -38.5t-8.5 -44v-5q0 -23 9.5 -45.5t31 -40t57 -28.5t86.5 -11h6q53 0 91.5 10.5t63 28t36.5 40t12 45.5v4q0 24 -12 46t-37 39t-63.5 27t-90.5 10h-6zM421 -195q-84 0 -144 11t-101 29t-65 40t-36.5 43t-16 39.5t-3.5 29.5v3
h225q1 -5 6.5 -13.5t23 -16.5t51.5 -14t91 -6h3q62 0 100 14.5t58.5 37t27 50t6.5 53.5q-10 -9 -28.5 -23t-49 -26.5t-76 -22t-108.5 -9.5h-12q-95 0 -161.5 20.5t-108.5 56t-61.5 82t-19.5 98.5v20q0 49 17 94t55 79.5t99.5 55.5t151.5 21h21q67 0 115 -9.5t81 -23t53 -28
t31 -24.5v72h224v-440q0 -24 -5 -55.5t-19.5 -64t-40.5 -63.5t-68 -55.5t-102.5 -39.5t-142.5 -15h-71zM704 590h-215l-61 64l-61 -64h-212l150 155h247z" />
    <glyph glyph-name="Gbreve" unicode="&#x11e;" horiz-adv-x="1121" 
d="M523 -13q-101 0 -177 17.5t-131 46.5t-91 67t-57.5 79.5t-30.5 84t-9 79.5v28q0 36 7.5 77.5t28 82.5t56 78.5t91.5 66.5t135 46t186 17h43q104 0 181 -14t131 -37t89 -52.5t55 -60.5t28 -62t9 -56v-1h-248q-2 6 -11 23.5t-36.5 36t-79 32.5t-138.5 14q-85 0 -140 -17
t-86.5 -45t-44 -64t-12.5 -75v-11q0 -36 15 -72t48.5 -64.5t87 -46t130.5 -17.5q83 0 138.5 13.5t88.5 31.5t47 35.5t14 25.5v2h-292v141h524v-417h-140q-1 10 -4 25t-7 31.5t-9 32t-10 27.5q-12 -14 -37 -36t-67.5 -42.5t-105 -35.5t-148.5 -15h-21zM537 787
q-68 0 -110.5 18.5t-66 44t-32 53t-8.5 46.5v2h172q0 -5 2.5 -13t9 -16t18.5 -13.5t33 -5.5q20 0 32 5.5t18.5 13.5t9 16t2.5 13h168v-2q0 -19 -10 -46.5t-34.5 -53t-66 -44t-103.5 -18.5h-34v0z" />
    <glyph glyph-name="gbreve" unicode="&#x11f;" horiz-adv-x="917" 
d="M433 411q-54 0 -89.5 -10.5t-56.5 -27t-29.5 -38.5t-8.5 -44v-5q0 -23 9.5 -45.5t31 -40t57 -28.5t86.5 -11h6q53 0 91.5 10.5t63 28t36.5 40t12 45.5v4q0 24 -12 46t-37 39t-63.5 27t-90.5 10h-6zM421 -195q-84 0 -144 11t-101 29t-65 40t-36.5 43t-16 39.5t-3.5 29.5v3
h225q1 -5 6.5 -13.5t23 -16.5t51.5 -14t91 -6h3q62 0 100 14.5t58.5 37t27 50t6.5 53.5q-10 -9 -28.5 -23t-49 -26.5t-76 -22t-108.5 -9.5h-12q-95 0 -161.5 20.5t-108.5 56t-61.5 82t-19.5 98.5v20q0 49 17 94t55 79.5t99.5 55.5t151.5 21h21q67 0 115 -9.5t81 -23t53 -28
t31 -24.5v72h224v-440q0 -24 -5 -55.5t-19.5 -64t-40.5 -63.5t-68 -55.5t-102.5 -39.5t-142.5 -15h-71zM416 582q-68 0 -110.5 18t-65.5 43t-31 52.5t-8 46.5v2h170q0 -5 2.5 -13t9 -16t18.5 -14t32 -6q19 0 31 6t18.5 14t9 16t2.5 13h166v-2q0 -19 -10 -46.5t-34 -52.5
t-65 -43t-103 -18h-32v0z" />
    <glyph glyph-name="Gdotaccent" unicode="&#x120;" horiz-adv-x="1121" 
d="M664 796h-223v154h223v-154zM523 -13q-101 0 -177 17.5t-131 46.5t-91 67t-57.5 79.5t-30.5 84t-9 79.5v28q0 36 7.5 77.5t28 82.5t56 78.5t91.5 66.5t135 46t186 17h43q104 0 181 -14t131 -37t89 -52.5t55 -60.5t28 -62t9 -56v-1h-248q-2 6 -11 23.5t-36.5 36t-79 32.5
t-138.5 14q-85 0 -140 -17t-86.5 -45t-44 -64t-12.5 -75v-11q0 -36 15 -72t48.5 -64.5t87 -46t130.5 -17.5q83 0 138.5 13.5t88.5 31.5t47 35.5t14 25.5v2h-292v141h524v-417h-140q-1 10 -4 25t-7 31.5t-9 32t-10 27.5q-12 -14 -37 -36t-67.5 -42.5t-105 -35.5t-148.5 -15
h-21z" />
    <glyph glyph-name="gdotaccent" unicode="&#x121;" horiz-adv-x="917" 
d="M434 411q-54 0 -89.5 -10.5t-56.5 -27t-29.5 -38.5t-8.5 -44v-5q0 -23 9.5 -45.5t31 -40t57 -28.5t86.5 -11h6q53 0 91.5 10.5t63 28t36.5 40t12 45.5v4q0 24 -12 46t-37 39t-63.5 27t-90.5 10h-6zM422 -195q-84 0 -144 11t-101 29t-65 40t-36.5 43t-16 39.5t-3.5 29.5v3
h225q1 -5 6.5 -13.5t23 -16.5t51.5 -14t91 -6h3q62 0 100 14.5t58.5 37t27 50t6.5 53.5q-10 -9 -28.5 -23t-49 -26.5t-76 -22t-108.5 -9.5h-12q-95 0 -161.5 20.5t-108.5 56t-61.5 82t-19.5 98.5v20q0 49 17 94t55 79.5t99.5 55.5t151.5 21h21q67 0 115 -9.5t81 -23t53 -28
t31 -24.5v72h224v-440q0 -24 -5 -55.5t-19.5 -64t-40.5 -63.5t-68 -55.5t-102.5 -39.5t-142.5 -15h-71zM538 590h-223v154h223v-154z" />
    <glyph glyph-name="uni0122" unicode="&#x122;" horiz-adv-x="1121" 
d="M523 -13q-101 0 -177 17.5t-131 46.5t-91 67t-57.5 79.5t-30.5 84t-9 79.5v28q0 36 7.5 77.5t28 82.5t56 78.5t91.5 66.5t135 46t186 17h43q104 0 181 -14t131 -37t89 -52.5t55 -60.5t28 -62t9 -56v-1h-248q-2 6 -11 23.5t-36.5 36t-79 32.5t-138.5 14q-85 0 -140 -17
t-86.5 -45t-44 -64t-12.5 -75v-11q0 -36 15 -72t48.5 -64.5t87 -46t130.5 -17.5q83 0 138.5 13.5t88.5 31.5t47 35.5t14 25.5v2h-292v141h524v-417h-140q-1 10 -4 25t-7 31.5t-9 32t-10 27.5q-12 -14 -37 -36t-67.5 -42.5t-105 -35.5t-148.5 -15h-21zM489 -283
q9 20 16.5 40.5t12.5 40.5h-100v150h223v-120q0 -14 -3.5 -29t-9.5 -30t-13 -28.5t-13 -23.5h-113z" />
    <glyph glyph-name="uni0123" unicode="&#x123;" horiz-adv-x="917" 
d="M433 411q-54 0 -89.5 -10.5t-56.5 -27t-29.5 -38.5t-8.5 -44v-5q0 -23 9.5 -45.5t31 -40t57 -28.5t86.5 -11h6q53 0 91.5 10.5t63 28t36.5 40t12 45.5v4q0 24 -12 46t-37 39t-63.5 27t-90.5 10h-6zM421 -195q-84 0 -144 11t-101 29t-65 40t-36.5 43t-16 39.5t-3.5 29.5v3
h225q1 -5 6.5 -13.5t23 -16.5t51.5 -14t91 -6h3q62 0 100 14.5t58.5 37t27 50t6.5 53.5q-10 -9 -28.5 -23t-49 -26.5t-76 -22t-108.5 -9.5h-12q-95 0 -161.5 20.5t-108.5 56t-61.5 82t-19.5 98.5v20q0 49 17 94t55 79.5t99.5 55.5t151.5 21h21q67 0 115 -9.5t81 -23t53 -28
t31 -24.5v72h224v-440q0 -24 -5 -55.5t-19.5 -64t-40.5 -63.5t-68 -55.5t-102.5 -39.5t-142.5 -15h-71zM467 821q-9 -20 -16.5 -40.5t-12.5 -40.5h100v-150h-223v120q0 13 3.5 28.5t9.5 30.5t13 28.5t13 23.5h113z" />
    <glyph glyph-name="Hcircumflex" unicode="&#x124;" horiz-adv-x="1080" 
d="M57 744h233v-271h500v271h233v-744h-233v293h-500v-293h-233v744zM824 796h-220l-66 58l-65 -58h-217l157 150h251z" />
    <glyph glyph-name="hcircumflex" unicode="&#x125;" horiz-adv-x="849" 
d="M47 744h223v-296q9 9 29 26t52.5 34t78 29.5t105.5 12.5h7q70 0 119.5 -18t81 -48t46.5 -67.5t15 -76.5v-340h-225v266q0 62 -35 98t-109 36q-75 0 -120 -40t-45 -106v-254h-223v744zM689 796h-220l-66 58l-65 -58h-217l157 150h251z" />
    <glyph glyph-name="Hbar" unicode="&#x126;" horiz-adv-x="1104" 
d="M-5 674h1114v-122h-1114v122zM69 744h233v-271h500v271h233v-744h-233v293h-500v-293h-233v744z" />
    <glyph glyph-name="hbar" unicode="&#x127;" horiz-adv-x="849" 
d="M527 694v-103h-557v103h557zM47 744h223v-296q9 9 29 26t52.5 34t78 29.5t105.5 12.5h7q70 0 119.5 -18t81 -48t46.5 -67.5t15 -76.5v-340h-225v266q0 62 -35 98t-109 36q-75 0 -120 -40t-45 -106v-254h-223v744z" />
    <glyph glyph-name="Itilde" unicode="&#x128;" horiz-adv-x="347" 
d="M290 0h-233v744h233v-744zM296 802q-14 0 -27 1.5t-27.5 5t-32 9t-41.5 13.5q-19 7 -34.5 11t-26.5 4q-10 0 -14 -6.5t-4 -14.5v-31h-146v81q0 16 4 33t15 31.5t30.5 24t50.5 9.5h6q31 0 57.5 -7t70.5 -22q20 -7 34.5 -11t26.5 -4q9 0 13.5 6t4.5 15v30h146v-80
q0 -16 -4 -33t-14.5 -31.5t-30.5 -24t-51 -9.5h-6v0z" />
    <glyph glyph-name="itilde" unicode="&#x129;" horiz-adv-x="317" 
d="M256 594q-18 0 -39.5 6.5t-61.5 22.5q-17 7 -27 10.5t-18 3.5t-10.5 -6t-2.5 -15v-29h-122v72q0 15 3.5 32.5t12.5 31.5t24.5 23.5t40.5 9.5h4q22 0 43 -6.5t59 -22.5q16 -7 26 -10.5t18 -3.5t10.5 6.5t2.5 15.5v29h122v-72q0 -16 -3 -33t-12 -31.5t-24.5 -24t-40.5 -9.5
h-5v0zM270 0h-223v538h223v-538z" />
    <glyph glyph-name="Imacron" unicode="&#x12a;" horiz-adv-x="347" 
d="M-21 930h389v-126h-389v126zM290 0h-233v744h233v-744z" />
    <glyph glyph-name="imacron" unicode="&#x12b;" horiz-adv-x="317" 
d="M-16 723h349v-122h-349v122zM270 0h-223v538h223v-538z" />
    <glyph glyph-name="Ibreve" unicode="&#x12c;" horiz-adv-x="347" 
d="M290 0h-233v744h233v-744zM158 787q-68 0 -110.5 18.5t-66 44t-32 53t-8.5 46.5v2h172q0 -5 2.5 -13t9 -16t18.5 -13.5t33 -5.5q20 0 32 5.5t18.5 13.5t9 16t2.5 13h168v-2q0 -19 -10 -46.5t-34.5 -53t-66 -44t-103.5 -18.5h-34v0z" />
    <glyph glyph-name="ibreve" unicode="&#x12d;" horiz-adv-x="317" 
d="M152 583q-56 0 -92 16.5t-56.5 40.5t-28 51.5t-7.5 50.5v2h144q1 -13 9.5 -28t37.5 -15q14 0 23 4.5t14 11t7 14t2 13.5h144v-2q0 -23 -8 -50.5t-28 -51.5t-56 -40.5t-91 -16.5h-14v0zM270 0h-223v538h223v-538z" />
    <glyph glyph-name="Iogonek" unicode="&#x12e;" horiz-adv-x="347" 
d="M290 0h-233v744h233v-744zM155 -188q-66 0 -98 18.5t-32 52.5v2q0 40 44.5 66t124.5 49h96q-26 -18 -42.5 -33t-16.5 -30q0 -23 38 -23h21v-102h-135z" />
    <glyph glyph-name="iogonek" unicode="&#x12f;" horiz-adv-x="317" 
d="M270 590h-223v154h223v-154zM270 0h-223v538h223v-538zM135 -188q-66 0 -98 18.5t-32 52.5v2q0 40 44.5 66t124.5 49h96q-26 -18 -42.5 -33t-16.5 -30q0 -23 38 -23h21v-102h-135z" />
    <glyph glyph-name="Idotaccent" unicode="&#x130;" horiz-adv-x="347" 
d="M290 0h-233v744h233v-744zM285 796h-223v154h223v-154z" />
    <glyph glyph-name="dotlessi" unicode="&#x131;" horiz-adv-x="317" 
d="M270 0h-223v538h223v-538z" />
    <glyph glyph-name="IJ" unicode="&#x132;" horiz-adv-x="1237" 
d="M290 0h-233v744h233v-744zM743 -11q-116 0 -192.5 30.5t-121.5 77.5t-63 104t-18 110v6h236q1 -12 6.5 -36t24 -48t54 -41.5t95.5 -17.5h12q92 0 135.5 49.5t43.5 134.5v386h234v-392q0 -39 -7 -80.5t-24 -82t-45.5 -77t-71.5 -64t-103 -43.5t-139 -16h-56v0z" />
    <glyph glyph-name="ij" unicode="&#x133;" horiz-adv-x="628" 
d="M270 590h-223v154h223v-154zM270 0h-223v538h223v-538zM581 590h-223v154h223v-154zM326 -31q17 0 24.5 7.5t7.5 30.5v531h223v-587q0 -74 -29.5 -106.5t-72.5 -32.5h-194v157h41z" />
    <glyph glyph-name="Jcircumflex" unicode="&#x134;" horiz-adv-x="896" 
d="M402 -11q-116 0 -192.5 30.5t-121.5 77.5t-63 104t-18 110v6h236q1 -12 6.5 -36t24 -48t54 -41.5t95.5 -17.5h12q92 0 135.5 49.5t43.5 134.5v386h234v-392q0 -39 -7 -80.5t-24 -82t-45.5 -77t-71.5 -64t-103 -43.5t-139 -16h-56v0zM1014 796h-220l-66 58l-65 -58h-217
l157 150h251z" />
    <glyph glyph-name="jcircumflex" unicode="&#x135;" horiz-adv-x="317" 
d="M379 590h-177l-45 64l-45 -64h-174l106 154h227zM15 -31q17 0 24.5 7.5t7.5 30.5v531h223v-587q0 -74 -29.5 -106.5t-72.5 -32.5h-194v157h41z" />
    <glyph glyph-name="uni0136" unicode="&#x136;" horiz-adv-x="968" 
d="M57 0v744h233v-310l381 310h296l-428 -340l448 -404h-304l-393 351v-351h-233zM429 -283q9 20 16.5 40.5t12.5 40.5h-100v150h223v-120q0 -14 -3.5 -29t-9.5 -30t-13 -28.5t-13 -23.5h-113z" />
    <glyph glyph-name="uni0137" unicode="&#x137;" horiz-adv-x="751" 
d="M47 0v744h223v-421l218 215h247l-254 -243l285 -295h-262l-234 247v-247h-223zM345 -283q9 20 16.5 40.5t12.5 40.5h-100v150h223v-120q0 -14 -3.5 -29t-9.5 -30t-13 -28.5t-13 -23.5h-113z" />
    <glyph glyph-name="Lacute" unicode="&#x139;" horiz-adv-x="836" 
d="M290 744v-559h517v-185h-750v744h233zM157 946h240l-105 -150h-225z" />
    <glyph glyph-name="lacute" unicode="&#x13a;" horiz-adv-x="317" 
d="M141 941h230l-102 -145h-213zM270 0h-223v744h223v-744z" />
    <glyph glyph-name="uni013B" unicode="&#x13b;" horiz-adv-x="836" 
d="M290 744v-559h517v-185h-750v744h233zM396 -283q9 20 16.5 40.5t12.5 40.5h-100v150h223v-120q0 -14 -3.5 -29t-9.5 -30t-13 -28.5t-13 -23.5h-113z" />
    <glyph glyph-name="uni013C" unicode="&#x13c;" horiz-adv-x="317" 
d="M270 0h-223v744h223v-744zM118 -283q9 20 16.5 40.5t12.5 40.5h-100v150h223v-120q0 -14 -3.5 -29t-9.5 -30t-13 -28.5t-13 -23.5h-113z" />
    <glyph glyph-name="Lcaron" unicode="&#x13d;" horiz-adv-x="836" 
d="M290 744v-559h517v-185h-750v744h233zM336 744h179l-30 -166h-164z" />
    <glyph glyph-name="lcaron" unicode="&#x13e;" horiz-adv-x="317" 
d="M270 0h-223v744h223v-744zM316 744h179l-30 -166h-164z" />
    <glyph glyph-name="Ldot" unicode="&#x13f;" horiz-adv-x="831" 
d="M290 744v-559h517v-185h-750v744h233zM726 328h-241v175h241v-175z" />
    <glyph glyph-name="ldot" unicode="&#x140;" horiz-adv-x="554" 
d="M547 297h-227v175h227v-175zM270 0h-223v744h223v-744z" />
    <glyph glyph-name="Lslash" unicode="&#x141;" horiz-adv-x="849" 
d="M303 744v-314l311 114v-148l-311 -110v-101h517v-185h-750v204l-72 -25v140l72 26v399h233z" />
    <glyph glyph-name="lslash" unicode="&#x142;" horiz-adv-x="333" 
d="M278 0h-223v268l-55 -26v134l55 27v341h223v-230l55 27v-139l-55 -27v-375z" />
    <glyph glyph-name="Nacute" unicode="&#x143;" horiz-adv-x="1079" 
d="M317 744l475 -468v468h230v-744h-230l-505 493v-493h-230v744h260zM520 946h240l-105 -150h-225z" />
    <glyph glyph-name="nacute" unicode="&#x144;" horiz-adv-x="849" 
d="M47 538h221v-92q10 10 30.5 27.5t53 34.5t78 29.5t105.5 12.5h7q70 0 120 -18t81.5 -48t46 -67.5t14.5 -76.5v-340h-225v266q0 62 -35 98t-109 36q-75 0 -120 -40t-45 -106v-254h-223v538zM408 744h230l-107 -154h-213z" />
    <glyph glyph-name="uni0145" unicode="&#x145;" horiz-adv-x="1079" 
d="M317 744l475 -468v468h230v-744h-230l-505 493v-493h-230v744h260zM497 -283q9 20 16.5 40.5t12.5 40.5h-100v150h223v-120q0 -14 -3.5 -29t-9.5 -30t-13 -28.5t-13 -23.5h-113z" />
    <glyph glyph-name="uni0146" unicode="&#x146;" horiz-adv-x="849" 
d="M47 538h221v-92q10 10 30.5 27.5t53 34.5t78 29.5t105.5 12.5h7q70 0 120 -18t81.5 -48t46 -67.5t14.5 -76.5v-340h-225v266q0 62 -35 98t-109 36q-75 0 -120 -40t-45 -106v-254h-223v538zM384 -283q9 20 16.5 40.5t12.5 40.5h-100v150h223v-120q0 -14 -3.5 -29t-9.5 -30
t-13 -28.5t-13 -23.5h-113z" />
    <glyph glyph-name="Ncaron" unicode="&#x147;" horiz-adv-x="1079" 
d="M317 744l475 -468v468h230v-744h-230l-505 493v-493h-230v744h260zM255 946h220l66 -58l65 58h217l-157 -150h-251z" />
    <glyph glyph-name="ncaron" unicode="&#x148;" horiz-adv-x="849" 
d="M47 538h221v-92q10 10 30.5 27.5t53 34.5t78 29.5t105.5 12.5h7q70 0 120 -18t81.5 -48t46 -67.5t14.5 -76.5v-340h-225v266q0 62 -35 98t-109 36q-75 0 -120 -40t-45 -106v-254h-223v538zM148 744h215l61 -63l61 63h212l-150 -154h-247z" />
    <glyph glyph-name="napostrophe" unicode="&#x149;" horiz-adv-x="1065" 
d="M263 538h221v-92q10 10 30.5 27.5t53 34.5t78 29.5t105.5 12.5h7q70 0 120 -18t81.5 -48t46 -67.5t14.5 -76.5v-340h-225v266q0 62 -35 98t-109 36q-75 0 -120 -40t-45 -106v-254h-223v538zM67 498q13 23 23 48.5t13 45.5h-100v152h232v-125q0 -29 -14.5 -63.5
t-31.5 -57.5h-122z" />
    <glyph glyph-name="Eng" unicode="&#x14a;" horiz-adv-x="1079" 
d="M1022 25q0 -56 -13 -96t-36.5 -66t-55.5 -38.5t-70 -12.5h-160v167h80q22 0 22 14q0 8 -7.5 16t-25.5 26l-469 458v-493h-230v744h260l475 -468v468h230v-719v0z" />
    <glyph glyph-name="eng" unicode="&#x14b;" horiz-adv-x="849" 
d="M804 -49q0 -74 -29.5 -106.5t-72.5 -32.5h-223v162h65q18 0 26.5 8.5t8.5 32.5v251q0 62 -35 98t-109 36q-75 0 -120 -40t-45 -106v-254h-223v538h221v-92q10 10 30.5 27.5t53 34.5t78 29.5t105.5 12.5h7q70 0 120 -18t81.5 -48t46 -67.5t14.5 -76.5v-389z" />
    <glyph glyph-name="Omacron" unicode="&#x14c;" horiz-adv-x="1144" 
d="M594 757q117 0 201 -18t142.5 -48t93.5 -68.5t54.5 -79t25.5 -81t6 -73.5v-30q0 -33 -6 -73t-25 -81.5t-54.5 -80.5t-93.5 -69.5t-142.5 -49t-201.5 -18.5h-43q-118 0 -202.5 18.5t-142.5 49t-93.5 69.5t-54.5 80.5t-25 81.5t-6 73v30q0 33 6 73.5t25 81t54.5 79
t93.5 68.5t142.5 48t202.5 18h43zM873 382q0 32 -11.5 66.5t-44.5 63t-92 47t-153 18.5q-96 0 -155 -18.5t-91.5 -47t-43.5 -63t-11 -66.5v-12q0 -32 11.5 -67.5t44.5 -65.5t92 -49.5t153 -19.5t152.5 19t91.5 48.5t45 65t12 67.5v14zM352 930h441v-126h-441v126z" />
    <glyph glyph-name="omacron" unicode="&#x14d;" horiz-adv-x="886" 
d="M409 -15q-117 0 -192 26t-118.5 66.5t-60 89.5t-16.5 96v18q0 46 16.5 94.5t59.5 88t118 64.5t192 25h71q123 0 198.5 -25.5t117 -65t55.5 -87.5t14 -94v-18q0 -47 -13.5 -96t-54.5 -89.5t-116.5 -66.5t-200.5 -26h-70zM444 130q57 0 94.5 13t59.5 33t31 44.5t9 48.5v5
q0 25 -9 49.5t-31 43.5t-59.5 31t-93.5 12h-1q-57 0 -94.5 -11.5t-59.5 -31t-31 -44t-9 -49.5v-5q0 -24 9 -48.5t31 -44.5t59.5 -33t94.5 -13zM232 723h422v-122h-422v122z" />
    <glyph glyph-name="Obreve" unicode="&#x14e;" horiz-adv-x="1144" 
d="M594 757q117 0 201 -18t142.5 -48t93.5 -68.5t54.5 -79t25.5 -81t6 -73.5v-30q0 -33 -6 -73t-25 -81.5t-54.5 -80.5t-93.5 -69.5t-142.5 -49t-201.5 -18.5h-43q-118 0 -202.5 18.5t-142.5 49t-93.5 69.5t-54.5 80.5t-25 81.5t-6 73v30q0 33 6 73.5t25 81t54.5 79
t93.5 68.5t142.5 48t202.5 18h43zM873 382q0 32 -11.5 66.5t-44.5 63t-92 47t-153 18.5q-96 0 -155 -18.5t-91.5 -47t-43.5 -63t-11 -66.5v-12q0 -32 11.5 -67.5t44.5 -65.5t92 -49.5t153 -19.5t152.5 19t91.5 48.5t45 65t12 67.5v14zM557 787q-68 0 -110.5 18.5t-66 44
t-32 53t-8.5 46.5v2h172q0 -5 2.5 -13t9 -16t18.5 -13.5t33 -5.5q20 0 32 5.5t18.5 13.5t9 16t2.5 13h168v-2q0 -19 -10 -46.5t-34.5 -53t-66 -44t-103.5 -18.5h-34v0z" />
    <glyph glyph-name="obreve" unicode="&#x14f;" horiz-adv-x="886" 
d="M429 582q-68 0 -110.5 18t-65.5 43t-31 52.5t-8 46.5v2h170q0 -5 2.5 -13t9 -16t18.5 -14t32 -6q19 0 31 6t18.5 14t9 16t2.5 13h166v-2q0 -19 -10 -46.5t-34 -52.5t-65 -43t-103 -18h-32v0zM409 -15q-117 0 -192 26t-118.5 66.5t-60 89.5t-16.5 96v18q0 46 16.5 94.5
t59.5 88t118 64.5t192 25h71q123 0 198.5 -25.5t117 -65t55.5 -87.5t14 -94v-18q0 -47 -13.5 -96t-54.5 -89.5t-116.5 -66.5t-200.5 -26h-70zM444 130q57 0 94.5 13t59.5 33t31 44.5t9 48.5v5q0 25 -9 49.5t-31 43.5t-59.5 31t-93.5 12h-1q-57 0 -94.5 -11.5t-59.5 -31
t-31 -44t-9 -49.5v-5q0 -24 9 -48.5t31 -44.5t59.5 -33t94.5 -13z" />
    <glyph glyph-name="Ohungarumlaut" unicode="&#x150;" horiz-adv-x="1144" 
d="M662 946h219l-67 -150h-212zM397 946h219l-60 -150h-212zM594 757q117 0 201 -18t142.5 -48t93.5 -68.5t54.5 -79t25.5 -81t6 -73.5v-30q0 -33 -6 -73t-25 -81.5t-54.5 -80.5t-93.5 -69.5t-142.5 -49t-201.5 -18.5h-43q-118 0 -202.5 18.5t-142.5 49t-93.5 69.5
t-54.5 80.5t-25 81.5t-6 73v30q0 33 6 73.5t25 81t54.5 79t93.5 68.5t142.5 48t202.5 18h43zM873 382q0 32 -11.5 66.5t-44.5 63t-92 47t-153 18.5q-96 0 -155 -18.5t-91.5 -47t-43.5 -63t-11 -66.5v-12q0 -32 11.5 -67.5t44.5 -65.5t92 -49.5t153 -19.5t152.5 19t91.5 48.5
t45 65t12 67.5v14z" />
    <glyph glyph-name="ohungarumlaut" unicode="&#x151;" horiz-adv-x="886" 
d="M535 744h212l-67 -154h-205zM277 744h212l-60 -154h-205zM409 -15q-117 0 -192 26t-118.5 66.5t-60 89.5t-16.5 96v18q0 46 16.5 94.5t59.5 88t118 64.5t192 25h71q123 0 198.5 -25.5t117 -65t55.5 -87.5t14 -94v-18q0 -47 -13.5 -96t-54.5 -89.5t-116.5 -66.5
t-200.5 -26h-70zM444 130q57 0 94.5 13t59.5 33t31 44.5t9 48.5v5q0 25 -9 49.5t-31 43.5t-59.5 31t-93.5 12h-1q-57 0 -94.5 -11.5t-59.5 -31t-31 -44t-9 -49.5v-5q0 -24 9 -48.5t31 -44.5t59.5 -33t94.5 -13z" />
    <glyph glyph-name="OE" unicode="&#x152;" horiz-adv-x="1689" 
d="M568 576q-94 0 -152 -18t-90.5 -46t-43.5 -62.5t-11 -67.5v-12q0 -33 11.5 -68.5t44 -65t90.5 -48.5t151 -19q92 0 150 18.5t90.5 48t44.5 64.5t12 68v14q0 33 -11.5 67.5t-44 62.5t-90.5 46t-151 18zM886 74q-15 -13 -43.5 -28.5t-69 -28.5t-93 -21.5t-117.5 -8.5h-39
q-109 0 -188.5 18.5t-135 48.5t-89.5 69t-52.5 80.5t-25 82t-6.5 73.5v30q0 34 6.5 74.5t25 81t52 79t89 68t135 47.5t189.5 18h39q65 0 117.5 -7.5t92.5 -19t68 -24.5t45 -24v62h753v-169h-544v-110h531v-170h-531v-122h554v-173h-763v74z" />
    <glyph glyph-name="oe" unicode="&#x153;" horiz-adv-x="1466" 
d="M1045 428q-83 0 -124 -24t-54 -67h357q-11 43 -52.5 67t-125.5 24h-1zM441 130q57 0 94.5 13t59 33t30 44.5t8.5 48.5v5q0 25 -8.5 49.5t-30.5 43.5t-58.5 31t-92.5 12h-2q-57 0 -93.5 -11.5t-58.5 -31t-30.5 -44t-8.5 -49.5v-5q0 -24 8.5 -48.5t30.5 -44.5t59 -33
t93 -13zM756 74q-36 -38 -107.5 -63.5t-194.5 -25.5h-49q-116 0 -190.5 26t-117.5 66.5t-59 89.5t-16 96v18q0 46 16 94.5t58.5 88t117 64.5t190.5 25h50q60 0 107.5 -6.5t83.5 -18t62.5 -27.5t45.5 -35q38 39 105 63t179 24h42q118 0 190 -27t111 -69.5t52 -94t13 -99.5
v-37h-582q10 -47 54 -76t134 -29h1q55 0 88.5 9t52.5 20.5t25.5 23t7.5 16.5h217v-1q0 -27 -11.5 -62.5t-49.5 -67t-109.5 -53t-192.5 -21.5h-37q-111 0 -179.5 24.5t-107.5 64.5z" />
    <glyph glyph-name="Racute" unicode="&#x154;" horiz-adv-x="1018" 
d="M290 429h353q50 0 72 21t22 52v1q0 29 -21.5 50.5t-72.5 21.5h-353v-146zM290 0h-233v744h600q93 0 155 -15t99.5 -41.5t53 -61.5t15.5 -75v-12q0 -40 -14.5 -68t-36 -47.5t-45.5 -30.5t-42 -17q28 -8 54 -22t45 -35.5t30.5 -49.5t11.5 -64v-109q0 -45 4.5 -63.5
t9.5 -27.5v-5h-237q-5 7 -8 17t-3 30v86q0 68 -34.5 99.5t-120.5 31.5h-304v-264zM476 946h240l-105 -150h-225z" />
    <glyph glyph-name="racute" unicode="&#x155;" horiz-adv-x="735" 
d="M270 0h-223v538h221v-95q7 11 23.5 29t42.5 35.5t63.5 30t88.5 12.5h11q58 0 100 -18t68 -50t38.5 -76t12.5 -96v-31h-215q0 26 -6 49.5t-19.5 41t-35.5 28t-53 10.5h-1q-28 0 -49.5 -10.5t-36.5 -28.5t-22.5 -41.5t-7.5 -49.5v-278zM343 744h230l-107 -154h-213z" />
    <glyph glyph-name="uni0156" unicode="&#x156;" horiz-adv-x="1018" 
d="M290 429h353q50 0 72 21t22 52v1q0 29 -21.5 50.5t-72.5 21.5h-353v-146zM290 0h-233v744h600q93 0 155 -15t99.5 -41.5t53 -61.5t15.5 -75v-12q0 -40 -14.5 -68t-36 -47.5t-45.5 -30.5t-42 -17q28 -8 54 -22t45 -35.5t30.5 -49.5t11.5 -64v-109q0 -45 4.5 -63.5
t9.5 -27.5v-5h-237q-5 7 -8 17t-3 30v86q0 68 -34.5 99.5t-120.5 31.5h-304v-264zM481 -283q9 20 16.5 40.5t12.5 40.5h-100v150h223v-120q0 -14 -3.5 -29t-9.5 -30t-13 -28.5t-13 -23.5h-113z" />
    <glyph glyph-name="uni0157" unicode="&#x157;" horiz-adv-x="735" 
d="M270 0h-223v538h221v-95q7 11 23.5 29t42.5 35.5t63.5 30t88.5 12.5h11q58 0 100 -18t68 -50t38.5 -76t12.5 -96v-31h-215q0 26 -6 49.5t-19.5 41t-35.5 28t-53 10.5h-1q-28 0 -49.5 -10.5t-36.5 -28.5t-22.5 -41.5t-7.5 -49.5v-278zM118 -283q9 20 16.5 40.5t12.5 40.5
h-100v150h223v-120q0 -14 -3.5 -29t-9.5 -30t-13 -28.5t-13 -23.5h-113z" />
    <glyph glyph-name="Rcaron" unicode="&#x158;" horiz-adv-x="1018" 
d="M290 429h353q50 0 72 21t22 52v1q0 29 -21.5 50.5t-72.5 21.5h-353v-146zM290 0h-233v744h600q93 0 155 -15t99.5 -41.5t53 -61.5t15.5 -75v-12q0 -40 -14.5 -68t-36 -47.5t-45.5 -30.5t-42 -17q28 -8 54 -22t45 -35.5t30.5 -49.5t11.5 -64v-109q0 -45 4.5 -63.5
t9.5 -27.5v-5h-237q-5 7 -8 17t-3 30v86q0 68 -34.5 99.5t-120.5 31.5h-304v-264zM212 946h220l66 -58l65 58h217l-157 -150h-251z" />
    <glyph glyph-name="rcaron" unicode="&#x159;" horiz-adv-x="735" 
d="M270 0h-223v538h221v-95q7 11 23.5 29t42.5 35.5t63.5 30t88.5 12.5h11q58 0 100 -18t68 -50t38.5 -76t12.5 -96v-31h-215q0 26 -6 49.5t-19.5 41t-35.5 28t-53 10.5h-1q-28 0 -49.5 -10.5t-36.5 -28.5t-22.5 -41.5t-7.5 -49.5v-278zM79 744h215l61 -63l61 63h212
l-150 -154h-247z" />
    <glyph glyph-name="Sacute" unicode="&#x15a;" horiz-adv-x="981" 
d="M459 946h240l-105 -150h-225zM454 -13q-97 0 -167.5 13t-118.5 34.5t-77.5 49t-45.5 57t-21 58.5t-5 54v11h243q1 -17 8.5 -37.5t31 -38.5t66.5 -30t115 -12h14q73 0 116.5 6.5t66 18t29 25.5t6.5 29q0 16 -6.5 29t-26.5 23t-59 15.5t-103 7.5l-128 3q-104 3 -174 21
t-112 47.5t-59.5 67.5t-17.5 82v9q0 42 15.5 82.5t60 72.5t123.5 52t206 20h69q132 0 216 -21t132 -54.5t66 -75.5t18 -84v-10h-242q-2 11 -8.5 26t-28 29t-63.5 24t-115 10h-16q-68 0 -106.5 -5.5t-57.5 -14.5t-24 -20.5t-5 -23.5t5.5 -23t23.5 -20t52 -14.5t91 -6.5
l125 -2q105 -2 179.5 -16t122 -41t69.5 -68t22 -96v-14q0 -46 -15.5 -90.5t-62 -80t-132.5 -57t-226 -21.5h-69v0z" />
    <glyph glyph-name="sacute" unicode="&#x15b;" horiz-adv-x="779" 
d="M372 744h230l-107 -154h-213zM363 -15q-118 0 -186.5 20t-104 49.5t-45.5 62.5t-10 59v6h230q0 -7 3.5 -19.5t17 -24.5t41 -20.5t76.5 -8.5h2q46 0 74 4.5t42 11.5t18.5 16t4.5 19v2q0 10 -3.5 18.5t-16 14.5t-36 9.5t-62.5 4.5l-96 2q-88 2 -144 17.5t-88.5 39t-45 52.5
t-12.5 59v6q0 31 11.5 61t47.5 54t103 38.5t178 14.5h40q102 0 167.5 -14.5t103 -38.5t52 -54.5t14.5 -61.5v-7h-227q-1 7 -5 17t-17.5 18t-39.5 14t-71 6h-1q-40 0 -65 -2.5t-39 -7.5t-19 -12.5t-5 -17.5v-2q0 -9 4.5 -16.5t17 -13t34.5 -9t57 -4.5l96 -2
q93 -2 151.5 -13.5t91.5 -32.5t45 -52t12 -71v-6q0 -37 -13.5 -70.5t-52.5 -59t-108.5 -40.5t-180.5 -15h-41v0z" />
    <glyph glyph-name="Scircumflex" unicode="&#x15c;" horiz-adv-x="981" 
d="M770 796h-220l-66 58l-65 -58h-217l157 150h251zM454 -13q-97 0 -167.5 13t-118.5 34.5t-77.5 49t-45.5 57t-21 58.5t-5 54v11h243q1 -17 8.5 -37.5t31 -38.5t66.5 -30t115 -12h14q73 0 116.5 6.5t66 18t29 25.5t6.5 29q0 16 -6.5 29t-26.5 23t-59 15.5t-103 7.5l-128 3
q-104 3 -174 21t-112 47.5t-59.5 67.5t-17.5 82v9q0 42 15.5 82.5t60 72.5t123.5 52t206 20h69q132 0 216 -21t132 -54.5t66 -75.5t18 -84v-10h-242q-2 11 -8.5 26t-28 29t-63.5 24t-115 10h-16q-68 0 -106.5 -5.5t-57.5 -14.5t-24 -20.5t-5 -23.5t5.5 -23t23.5 -20
t52 -14.5t91 -6.5l125 -2q105 -2 179.5 -16t122 -41t69.5 -68t22 -96v-14q0 -46 -15.5 -90.5t-62 -80t-132.5 -57t-226 -21.5h-69v0z" />
    <glyph glyph-name="scircumflex" unicode="&#x15d;" horiz-adv-x="779" 
d="M660 589h-215l-61 64l-61 -64h-212l150 155h247zM363 -15q-118 0 -186.5 20t-104 49.5t-45.5 62.5t-10 59v6h230q0 -7 3.5 -19.5t17 -24.5t41 -20.5t76.5 -8.5h2q46 0 74 4.5t42 11.5t18.5 16t4.5 19v2q0 10 -3.5 18.5t-16 14.5t-36 9.5t-62.5 4.5l-96 2q-88 2 -144 17.5
t-88.5 39t-45 52.5t-12.5 59v6q0 31 11.5 61t47.5 54t103 38.5t178 14.5h40q102 0 167.5 -14.5t103 -38.5t52 -54.5t14.5 -61.5v-7h-227q-1 7 -5 17t-17.5 18t-39.5 14t-71 6h-1q-40 0 -65 -2.5t-39 -7.5t-19 -12.5t-5 -17.5v-2q0 -9 4.5 -16.5t17 -13t34.5 -9t57 -4.5
l96 -2q93 -2 151.5 -13.5t91.5 -32.5t45 -52t12 -71v-6q0 -37 -13.5 -70.5t-52.5 -59t-108.5 -40.5t-180.5 -15h-41v0z" />
    <glyph glyph-name="Scedilla" unicode="&#x15e;" horiz-adv-x="981" 
d="M454 -13q-97 0 -167.5 13t-118.5 34.5t-77.5 49t-45.5 57t-21 58.5t-5 54v11h243q1 -17 8.5 -37.5t31 -38.5t66.5 -30t115 -12h14q73 0 116.5 6.5t66 18t29 25.5t6.5 29q0 16 -6.5 29t-26.5 23t-59 15.5t-103 7.5l-128 3q-104 3 -174 21t-112 47.5t-59.5 67.5t-17.5 82v9
q0 42 15.5 82.5t60 72.5t123.5 52t206 20h69q132 0 216 -21t132 -54.5t66 -75.5t18 -84v-10h-242q-2 11 -8.5 26t-28 29t-63.5 24t-115 10h-16q-68 0 -106.5 -5.5t-57.5 -14.5t-24 -20.5t-5 -23.5t5.5 -23t23.5 -20t52 -14.5t91 -6.5l125 -2q105 -2 179.5 -16t122 -41
t69.5 -68t22 -96v-14q0 -46 -15.5 -90.5t-62 -80t-132.5 -57t-226 -21.5h-69v0zM345 -168h106q24 0 32 6t8 16t-8 16.5t-32 6.5h-71v123h127v-50q56 0 91.5 -7t55.5 -20t27.5 -32t7.5 -42v-3q0 -21 -7.5 -39.5t-27.5 -33t-55.5 -23t-92.5 -8.5h-161v90z" />
    <glyph glyph-name="scedilla" unicode="&#x15f;" horiz-adv-x="779" 
d="M363 -15q-118 0 -186.5 20t-104 49.5t-45.5 62.5t-10 59v6h230q0 -7 3.5 -19.5t17 -24.5t41 -20.5t76.5 -8.5h2q46 0 74 4.5t42 11.5t18.5 16t4.5 19v2q0 10 -3.5 18.5t-16 14.5t-36 9.5t-62.5 4.5l-96 2q-88 2 -144 17.5t-88.5 39t-45 52.5t-12.5 59v6q0 31 11.5 61
t47.5 54t103 38.5t178 14.5h40q102 0 167.5 -14.5t103 -38.5t52 -54.5t14.5 -61.5v-7h-227q-1 7 -5 17t-17.5 18t-39.5 14t-71 6h-1q-40 0 -65 -2.5t-39 -7.5t-19 -12.5t-5 -17.5v-2q0 -9 4.5 -16.5t17 -13t34.5 -9t57 -4.5l96 -2q93 -2 151.5 -13.5t91.5 -32.5t45 -52
t12 -71v-6q0 -37 -13.5 -70.5t-52.5 -59t-108.5 -40.5t-180.5 -15h-41v0zM215 -168h106q24 0 32 6t8 16t-8 16.5t-32 6.5h-71v123h127v-50q56 0 91.5 -7t55.5 -20t27.5 -32t7.5 -42v-3q0 -21 -7.5 -39.5t-27.5 -33t-55.5 -23t-92.5 -8.5h-161v90z" />
    <glyph glyph-name="Scaron" unicode="&#x160;" horiz-adv-x="981" 
d="M454 -13q-97 0 -167.5 13t-118.5 34.5t-77.5 49t-45.5 57t-21 58.5t-5 54v11h243q1 -17 8.5 -37.5t31 -38.5t66.5 -30t115 -12h14q73 0 116.5 6.5t66 18t29 25.5t6.5 29q0 16 -6.5 29t-26.5 23t-59 15.5t-103 7.5l-128 3q-104 3 -174 21t-112 47.5t-59.5 67.5t-17.5 82v9
q0 42 15.5 82.5t60 72.5t123.5 52t206 20h69q132 0 216 -21t132 -54.5t66 -75.5t18 -84v-10h-242q-2 11 -8.5 26t-28 29t-63.5 24t-115 10h-16q-68 0 -106.5 -5.5t-57.5 -14.5t-24 -20.5t-5 -23.5t5.5 -23t23.5 -20t52 -14.5t91 -6.5l125 -2q105 -2 179.5 -16t122 -41
t69.5 -68t22 -96v-14q0 -46 -15.5 -90.5t-62 -80t-132.5 -57t-226 -21.5h-69v0zM191 946h220l66 -58l65 58h217l-157 -150h-251z" />
    <glyph glyph-name="scaron" unicode="&#x161;" horiz-adv-x="779" 
d="M363 -15q-118 0 -186.5 20t-104 49.5t-45.5 62.5t-10 59v6h230q0 -7 3.5 -19.5t17 -24.5t41 -20.5t76.5 -8.5h2q46 0 74 4.5t42 11.5t18.5 16t4.5 19v2q0 10 -3.5 18.5t-16 14.5t-36 9.5t-62.5 4.5l-96 2q-88 2 -144 17.5t-88.5 39t-45 52.5t-12.5 59v6q0 31 11.5 61
t47.5 54t103 38.5t178 14.5h40q102 0 167.5 -14.5t103 -38.5t52 -54.5t14.5 -61.5v-7h-227q-1 7 -5 17t-17.5 18t-39.5 14t-71 6h-1q-40 0 -65 -2.5t-39 -7.5t-19 -12.5t-5 -17.5v-2q0 -9 4.5 -16.5t17 -13t34.5 -9t57 -4.5l96 -2q93 -2 151.5 -13.5t91.5 -32.5t45 -52
t12 -71v-6q0 -37 -13.5 -70.5t-52.5 -59t-108.5 -40.5t-180.5 -15h-41v0zM105 744h215l61 -63l61 63h212l-150 -154h-247z" />
    <glyph glyph-name="uni0162" unicode="&#x162;" horiz-adv-x="932" 
d="M348 568h-320v176h876v-176h-321v-568h-235v568zM426 -283q9 20 16.5 40.5t12.5 40.5h-100v150h223v-120q0 -14 -3.5 -29t-9.5 -30t-13 -28.5t-13 -23.5h-113z" />
    <glyph glyph-name="uni0163" unicode="&#x163;" horiz-adv-x="474" 
d="M252 0q-73 0 -103 41.5t-30 111.5v237h-105v148h105v157h220v-157h106v-148h-106v-195q0 -22 8 -34.5t37 -12.5h61v-148h-193zM263 -283q9 20 16.5 40.5t12.5 40.5h-100v150h223v-120q0 -14 -3.5 -29t-9.5 -30t-13 -28.5t-13 -23.5h-113z" />
    <glyph glyph-name="Tcaron" unicode="&#x164;" horiz-adv-x="932" 
d="M348 568h-320v176h876v-176h-321v-568h-235v568zM182 946h220l66 -58l65 58h217l-157 -150h-251z" />
    <glyph glyph-name="tcaron" unicode="&#x165;" horiz-adv-x="474" 
d="M252 0q-73 0 -103 41.5t-30 111.5v237h-105v148h105v157h220v-157h106v-148h-106v-195q0 -22 8 -34.5t37 -12.5h61v-148h-193zM385 744h179l-30 -166h-164z" />
    <glyph glyph-name="Tbar" unicode="&#x166;" horiz-adv-x="932" 
d="M105 303v134h721v-134h-721zM348 568h-320v176h876v-176h-321v-568h-235v568z" />
    <glyph glyph-name="tbar" unicode="&#x167;" horiz-adv-x="474" 
d="M445 0h-193q-73 0 -103 41.5t-30 111.5v68h-105v124h105v51h-105v142h105v157h220v-157h106v-142h-106v-51h106v-124h-106v-26q0 -22 8 -34.5t37 -12.5h61v-148z" />
    <glyph glyph-name="Utilde" unicode="&#x168;" horiz-adv-x="1053" 
d="M512 -11q-100 0 -173 19.5t-124.5 51.5t-84 73.5t-51 85t-25 86.5t-6.5 78v361h234v-347q0 -36 10 -74t37 -69.5t75 -51.5t124 -20q75 0 122.5 20t74.5 51.5t37 69.5t10 74v347h233v-361q0 -35 -7.5 -78t-26.5 -86.5t-51.5 -85t-83.5 -73.5t-122 -51.5t-166 -19.5h-36z
M649 802q-14 0 -27 1.5t-27.5 5t-32 9t-41.5 13.5q-19 7 -34.5 11t-26.5 4q-10 0 -14 -6.5t-4 -14.5v-31h-146v81q0 16 4 33t15 31.5t30.5 24t50.5 9.5h6q31 0 57.5 -7t70.5 -22q20 -7 34.5 -11t26.5 -4q9 0 13.5 6t4.5 15v30h146v-80q0 -16 -4 -33t-14.5 -31.5t-30.5 -24
t-51 -9.5h-6v0z" />
    <glyph glyph-name="utilde" unicode="&#x169;" horiz-adv-x="838" 
d="M791 0h-221v93l-30 -27t-52 -35t-76.5 -30t-102.5 -13h-8q-69 0 -118 19.5t-79.5 50t-44.5 69t-14 76.5v335h225v-266q0 -60 33.5 -97t104.5 -37q73 0 116.5 40t43.5 106v254h223v-538zM537 594q-13 0 -25 1.5t-26 4.5t-31.5 8.5t-41.5 13.5q-20 7 -33 11t-24 4
q-10 0 -13 -6t-3 -15v-29h-144v76q0 15 4 32.5t14.5 31.5t29.5 23.5t49 9.5h5q15 0 27.5 -1.5t26 -4.5t30 -8.5l40.5 -13.5q20 -7 33 -11t24 -4q9 0 12.5 6.5t3.5 15.5v29h144v-76q0 -16 -3.5 -33t-14 -31.5t-29.5 -24t-49 -9.5h-6v0z" />
    <glyph glyph-name="Umacron" unicode="&#x16a;" horiz-adv-x="1053" 
d="M512 -11q-100 0 -173 19.5t-124.5 51.5t-84 73.5t-51 85t-25 86.5t-6.5 78v361h234v-347q0 -36 10 -74t37 -69.5t75 -51.5t124 -20q75 0 122.5 20t74.5 51.5t37 69.5t10 74v347h233v-361q0 -35 -7.5 -78t-26.5 -86.5t-51.5 -85t-83.5 -73.5t-122 -51.5t-166 -19.5h-36z
M306 930h441v-126h-441v126z" />
    <glyph glyph-name="umacron" unicode="&#x16b;" horiz-adv-x="838" 
d="M791 0h-221v93l-30 -27t-52 -35t-76.5 -30t-102.5 -13h-8q-69 0 -118 19.5t-79.5 50t-44.5 69t-14 76.5v335h225v-266q0 -60 33.5 -97t104.5 -37q73 0 116.5 40t43.5 106v254h223v-538zM207 723h422v-122h-422v122z" />
    <glyph glyph-name="Ubreve" unicode="&#x16c;" horiz-adv-x="1053" 
d="M512 -11q-100 0 -173 19.5t-124.5 51.5t-84 73.5t-51 85t-25 86.5t-6.5 78v361h234v-347q0 -36 10 -74t37 -69.5t75 -51.5t124 -20q75 0 122.5 20t74.5 51.5t37 69.5t10 74v347h233v-361q0 -35 -7.5 -78t-26.5 -86.5t-51.5 -85t-83.5 -73.5t-122 -51.5t-166 -19.5h-36z
M511 787q-68 0 -110.5 18.5t-66 44t-32 53t-8.5 46.5v2h172q0 -5 2.5 -13t9 -16t18.5 -13.5t33 -5.5q20 0 32 5.5t18.5 13.5t9 16t2.5 13h168v-2q0 -19 -10 -46.5t-34.5 -53t-66 -44t-103.5 -18.5h-34v0z" />
    <glyph glyph-name="ubreve" unicode="&#x16d;" horiz-adv-x="838" 
d="M791 0h-221v93l-30 -27t-52 -35t-76.5 -30t-102.5 -13h-8q-69 0 -118 19.5t-79.5 50t-44.5 69t-14 76.5v335h225v-266q0 -60 33.5 -97t104.5 -37q73 0 116.5 40t43.5 106v254h223v-538zM404 582q-68 0 -110.5 18t-65.5 43t-31 52.5t-8 46.5v2h170q0 -5 2.5 -13t9 -16
t18.5 -14t32 -6q19 0 31 6t18.5 14t9 16t2.5 13h166v-2q0 -19 -10 -46.5t-34 -52.5t-65 -43t-103 -18h-32v0z" />
    <glyph glyph-name="Uring" unicode="&#x16e;" horiz-adv-x="1053" 
d="M512 -11q-100 0 -173 19.5t-124.5 51.5t-84 73.5t-51 85t-25 86.5t-6.5 78v361h234v-347q0 -36 10 -74t37 -69.5t75 -51.5t124 -20q75 0 122.5 20t74.5 51.5t37 69.5t10 74v347h233v-361q0 -35 -7.5 -78t-26.5 -86.5t-51.5 -85t-83.5 -73.5t-122 -51.5t-166 -19.5h-36z
M335 892q0 24 9.5 45t32 37t59.5 25t92 9t91 -9t58 -25t31 -37t9 -45q0 -25 -9 -46.5t-31 -37.5t-58 -25t-91 -9q-56 0 -93.5 9.5t-59.5 25.5t-31 37.5t-9 45.5zM450 892q0 -21 18 -34t60 -13q41 0 58 13t17 34q0 20 -17 32.5t-58 12.5q-42 0 -60 -12.5t-18 -32.5z" />
    <glyph glyph-name="uring" unicode="&#x16f;" horiz-adv-x="838" 
d="M791 0h-221v93l-30 -27t-52 -35t-76.5 -30t-102.5 -13h-8q-69 0 -118 19.5t-79.5 50t-44.5 69t-14 76.5v335h225v-266q0 -60 33.5 -97t104.5 -37q73 0 116.5 40t43.5 106v254h223v-538zM229 699q0 24 9.5 45t31.5 37t59 25t91 9t90 -9t57.5 -25t30.5 -37t9 -45
q0 -25 -9 -46.5t-30.5 -37.5t-57.5 -25t-90 -9q-56 0 -92.5 9.5t-58.5 25.5t-31 37.5t-9 45.5zM344 699q0 -21 18 -34t58 -13q39 0 56 13t17 34q0 20 -17 32.5t-56 12.5q-40 0 -58 -12.5t-18 -32.5z" />
    <glyph glyph-name="Uhungarumlaut" unicode="&#x170;" horiz-adv-x="1053" 
d="M512 -11q-100 0 -173 19.5t-124.5 51.5t-84 73.5t-51 85t-25 86.5t-6.5 78v361h234v-347q0 -36 10 -74t37 -69.5t75 -51.5t124 -20q75 0 122.5 20t74.5 51.5t37 69.5t10 74v347h233v-361q0 -35 -7.5 -78t-26.5 -86.5t-51.5 -85t-83.5 -73.5t-122 -51.5t-166 -19.5h-36z
M607 946h219l-67 -150h-212zM342 946h219l-60 -150h-212z" />
    <glyph glyph-name="uhungarumlaut" unicode="&#x171;" horiz-adv-x="838" 
d="M791 0h-221v93l-30 -27t-52 -35t-76.5 -30t-102.5 -13h-8q-69 0 -118 19.5t-79.5 50t-44.5 69t-14 76.5v335h225v-266q0 -60 33.5 -97t104.5 -37q73 0 116.5 40t43.5 106v254h223v-538zM502 744h212l-67 -154h-205zM244 744h212l-60 -154h-205z" />
    <glyph glyph-name="Uogonek" unicode="&#x172;" horiz-adv-x="1053" 
d="M610 -188q-66 0 -98 18.5t-32 52.5v2q0 38 39.5 62t110.5 46q-20 -2 -40 -3t-42 -1h-36q-100 0 -173 19.5t-124.5 51.5t-84 73.5t-51 85t-25 86.5t-6.5 78v361h234v-347q0 -36 10 -74t37 -69.5t75 -51.5t124 -20q75 0 122.5 20t74.5 51.5t37 69.5t10 74v347h233v-361
q0 -114 -58 -211.5t-187 -168.5q-32 -18 -53 -33t-21 -33q0 -23 38 -23h27v-102h-141z" />
    <glyph glyph-name="uogonek" unicode="&#x173;" horiz-adv-x="838" 
d="M791 0h-221v93l-30 -27t-52 -35t-76.5 -30t-102.5 -13h-8q-69 0 -118 19.5t-79.5 50t-44.5 69t-14 76.5v335h225v-266q0 -60 33.5 -97t104.5 -37q73 0 116.5 40t43.5 106v254h223v-538zM656 -188q-66 0 -98 18.5t-32 52.5v2q0 40 44.5 66t124.5 49h96q-26 -18 -42.5 -33
t-16.5 -30q0 -23 38 -23h21v-102h-135z" />
    <glyph glyph-name="Wcircumflex" unicode="&#x174;" horiz-adv-x="1423" 
d="M294 0l-306 744h254l192 -512l166 512h248l170 -497l188 497h229l-301 -744h-235l-179 498l-169 -498h-257zM1006 796h-220l-66 58l-65 -58h-217l157 150h251z" />
    <glyph glyph-name="wcircumflex" unicode="&#x175;" horiz-adv-x="1142" 
d="M213 0l-223 538h232l123 -344l121 344h234l125 -344l119 344h208l-208 -538h-236l-132 356l-132 -356h-231zM859 590h-215l-61 64l-61 -64h-212l150 155h247z" />
    <glyph glyph-name="Ycircumflex" unicode="&#x176;" horiz-adv-x="974" 
d="M376 288l-398 456h289l231 -274l235 274h263l-387 -456v-288h-233v288zM778 796h-220l-66 58l-65 -58h-217l157 150h251z" />
    <glyph glyph-name="ycircumflex" unicode="&#x177;" horiz-adv-x="783" 
d="M119 -28h126q16 0 21 4.5t5 12.5t-6.5 21t-18.5 36l-257 492h240l173 -364l168 364h224l-282 -574q-19 -38 -38.5 -66.5t-43 -47.5t-52 -28.5t-64.5 -9.5h-195v160zM676 590h-215l-61 64l-61 -64h-212l150 155h247z" />
    <glyph glyph-name="Ydieresis" unicode="&#x178;" horiz-adv-x="974" 
d="M376 288l-398 456h289l231 -274l235 274h263l-387 -456v-288h-233v288zM745 796h-222v150h222v-150zM471 796h-222v150h222v-150z" />
    <glyph glyph-name="Zacute" unicode="&#x179;" horiz-adv-x="913" 
d="M872 744v-136l-510 -432h517v-176h-845v137l497 435h-489v172h830zM406 946h240l-105 -150h-225z" />
    <glyph glyph-name="zacute" unicode="&#x17a;" horiz-adv-x="724" 
d="M24 0v130l365 263h-365v145h674v-125l-382 -264h384v-149h-676zM334 744h230l-107 -154h-213z" />
    <glyph glyph-name="Zdotaccent" unicode="&#x17b;" horiz-adv-x="913" 
d="M872 744v-136l-510 -432h517v-176h-845v137l497 435h-489v172h830zM568 796h-223v154h223v-154z" />
    <glyph glyph-name="zdotaccent" unicode="&#x17c;" horiz-adv-x="724" 
d="M24 0v130l365 263h-365v145h674v-125l-382 -264h384v-149h-676zM473 590h-223v154h223v-154z" />
    <glyph glyph-name="Zcaron" unicode="&#x17d;" horiz-adv-x="913" 
d="M872 744v-136l-510 -432h517v-176h-845v137l497 435h-489v172h830zM172 946h220l66 -58l65 58h217l-157 -150h-251z" />
    <glyph glyph-name="zcaron" unicode="&#x17e;" horiz-adv-x="724" 
d="M24 0v130l365 263h-365v145h674v-125l-382 -264h384v-149h-676zM88 744h215l61 -63l61 63h212l-150 -154h-247z" />
    <glyph glyph-name="florin" unicode="&#x192;" horiz-adv-x="509" 
d="M343 329l-28 -517h-217l27 517h-101v148h109l6 125q1 25 8.5 50t27.5 45.5t56.5 33.5t95.5 13h147v-148h-78q-26 0 -32.5 -11.5t-8.5 -32.5l-4 -75h123v-148h-131z" />
    <glyph glyph-name="Aringacute" unicode="&#x1fa;" horiz-adv-x="1044" 
d="M503 1197h230l-107 -154h-213zM509 583l-138 -279h282zM739 136h-451l-67 -136h-237l376 744h302l398 -744h-251zM323 900q0 24 9.5 45t32 37t59.5 25t92 9t91 -9t58 -25t31 -37t9 -45q0 -25 -9 -46.5t-31 -37.5t-58 -25t-91 -9q-56 0 -93.5 9.5t-59.5 25.5t-31 37.5
t-9 45.5zM438 900q0 -21 18 -34t60 -13q41 0 58 13t17 34q0 20 -17 32.5t-58 12.5q-42 0 -60 -12.5t-18 -32.5z" />
    <glyph glyph-name="aringacute" unicode="&#x1fb;" horiz-adv-x="800" 
d="M522 256l-213 -33q-43 -7 -62 -17t-19 -33v-1q0 -11 4.5 -22t16 -19.5t30 -14t47.5 -5.5q45 0 81 11t61.5 29t39.5 41t14 47v17zM528 74q-9 -11 -27 -25t-47.5 -27.5t-72 -22.5t-102.5 -9h-13q-68 0 -115.5 14.5t-77.5 39t-43.5 56t-13.5 66.5v7q0 74 52.5 112t173.5 49
l246 23q19 2 26.5 8.5t7.5 19.5q0 7 -3.5 15t-17.5 14.5t-42 10.5t-77 4h-5q-50 0 -78 -7t-41.5 -16.5t-17 -19.5t-4.5 -17h-207v2q0 18 3 38.5t13.5 40.5t31.5 38.5t56.5 33t88.5 23t128 8.5h55q117 0 183.5 -16t99.5 -41.5t41 -56.5t8 -60v-206q0 -12 5.5 -19.5t22.5 -7.5
h29v-146h-181q-32 0 -55.5 18t-29.5 56zM188 699q0 24 9.5 45t31.5 37t59 25t91 9t90 -9t57.5 -25t30.5 -37t9 -45q0 -25 -9 -46.5t-30.5 -37.5t-57.5 -25t-90 -9q-56 0 -92.5 9.5t-58.5 25.5t-31 37.5t-9 45.5zM303 699q0 -21 18 -34t58 -13q39 0 56 13t17 34
q0 20 -17 32.5t-56 12.5q-40 0 -58 -12.5t-18 -32.5zM367 996h230l-107 -154h-213z" />
    <glyph glyph-name="AEacute" unicode="&#x1fc;" horiz-adv-x="1473" 
d="M649 576l-213 -278h213v278zM649 130h-341l-100 -130h-239l567 744h887v-169h-544v-110h531v-170h-531v-122h554v-173h-784v130zM957 946h240l-105 -150h-225z" />
    <glyph glyph-name="aeacute" unicode="&#x1fd;" horiz-adv-x="1337" 
d="M914 428q-84 0 -124.5 -24t-53.5 -67h358q-10 43 -51.5 67t-126.5 24h-2zM325 110q43 0 78.5 11t60.5 29.5t38.5 41.5t13.5 47v17l-211 -32q-42 -6 -60 -16.5t-18 -32.5v-1q0 -11 5 -22.5t16.5 -20.5t30 -15t46.5 -6zM1314 189q0 -18 -4.5 -40t-18 -45t-38.5 -44
t-65.5 -38t-99 -27t-139.5 -10h-59q-68 0 -120 9.5t-91.5 26t-68 38.5t-47.5 47q-8 -11 -27 -30.5t-51.5 -38.5t-79.5 -33t-110 -14h-13q-75 0 -125.5 14.5t-82 39t-45 56.5t-13.5 66v7q0 74 53.5 113t170.5 50l253 23q23 3 23 28q0 7 -3.5 14.5t-17.5 13.5t-41.5 9.5
t-75.5 3.5h-7q-49 0 -76 -6.5t-40 -16t-16 -19.5t-4 -17h-206v2q0 18 2.5 38.5t12.5 40.5t30.5 38.5t55.5 33t88 23t128 8.5h55q61 0 105 -5.5t73.5 -13t47 -16.5t26.5 -16q9 6 27 15t46 17t67 13.5t91 5.5h64q118 0 190.5 -27t112 -69.5t52.5 -94t13 -99.5v-37h-584
q9 -47 53 -76t136 -29h1q56 0 90 9t52.5 20.5t25 23t6.5 16.5h218v-1zM639 744h230l-107 -154h-213z" />
    <glyph glyph-name="Oslashacute" unicode="&#x1fe;" horiz-adv-x="1144" 
d="M552 946h240l-105 -150h-225zM551 -13q-94 0 -167.5 13.5t-129.5 36.5l-47 -37h-213q17 13 38 30q18 14 43.5 34.5t57.5 45.5q-58 52 -82 116.5t-24 132.5v30q0 34 6 74.5t25 81t54.5 79t93.5 68t142.5 47.5t202.5 18h44q94 0 166 -13t127 -36l47 36h214l-139 -109
q57 -51 82 -114t25 -132v-30q0 -33 -6 -73.5t-25.5 -82t-54.5 -80.5t-93 -69t-142 -48.5t-201 -18.5h-44zM271 370q0 -29 8 -60t31 -59l398 315q-28 5 -61.5 7.5t-74.5 2.5q-96 0 -155 -18t-91.5 -46t-43.5 -62.5t-11 -67.5v-12zM572 169q94 0 152.5 18.5t91.5 48t45 64.5
t12 68v14q0 29 -7 59t-30 56l-401 -317q28 -5 61.5 -8t75.5 -3z" />
    <glyph glyph-name="oslashacute" unicode="&#x1ff;" horiz-adv-x="886" 
d="M427 744h230l-107 -154h-213zM409 -15q-65 0 -121 11t-97 31l-38 -27h-171l119 86q-33 30 -56 74t-23 103v18q0 46 16.5 94.5t60 88t118 64.5t191.5 25h70q76 0 130.5 -13t87.5 -27l36 25h173l-118 -84q34 -30 55.5 -73t21.5 -100v-18q0 -30 -5.5 -62.5t-20.5 -63.5
t-42 -58.5t-70 -48.5t-103.5 -33t-143.5 -12h-70zM246 269q0 -17 4 -34.5t14 -33.5l277 197q-39 12 -96 12h-1q-59 0 -97 -11.5t-60.5 -31t-31.5 -44t-9 -49.5v-5zM444 130q58 0 96.5 13t60.5 33t31 44.5t9 48.5v5q0 17 -3.5 33t-11.5 30l-273 -196q39 -11 91 -11z" />
    <glyph glyph-name="uni0218" unicode="&#x218;" horiz-adv-x="981" 
d="M454 -13q-97 0 -167.5 13t-118.5 34.5t-77.5 49t-45.5 57t-21 58.5t-5 54v11h243q1 -17 8.5 -37.5t31 -38.5t66.5 -30t115 -12h14q73 0 116.5 6.5t66 18t29 25.5t6.5 29q0 16 -6.5 29t-26.5 23t-59 15.5t-103 7.5l-128 3q-104 3 -174 21t-112 47.5t-59.5 67.5t-17.5 82v9
q0 42 15.5 82.5t60 72.5t123.5 52t206 20h69q132 0 216 -21t132 -54.5t66 -75.5t18 -84v-10h-242q-2 11 -8.5 26t-28 29t-63.5 24t-115 10h-16q-68 0 -106.5 -5.5t-57.5 -14.5t-24 -20.5t-5 -23.5t5.5 -23t23.5 -20t52 -14.5t91 -6.5l125 -2q105 -2 179.5 -16t122 -41
t69.5 -68t22 -96v-14q0 -46 -15.5 -90.5t-62 -80t-132.5 -57t-226 -21.5h-69v0zM446 -283q9 20 16.5 40.5t12.5 40.5h-100v150h223v-120q0 -14 -3.5 -29t-9.5 -30t-13 -28.5t-13 -23.5h-113z" />
    <glyph glyph-name="uni0219" unicode="&#x219;" horiz-adv-x="779" 
d="M363 -15q-118 0 -186.5 20t-104 49.5t-45.5 62.5t-10 59v6h230q0 -7 3.5 -19.5t17 -24.5t41 -20.5t76.5 -8.5h2q46 0 74 4.5t42 11.5t18.5 16t4.5 19v2q0 10 -3.5 18.5t-16 14.5t-36 9.5t-62.5 4.5l-96 2q-88 2 -144 17.5t-88.5 39t-45 52.5t-12.5 59v6q0 31 11.5 61
t47.5 54t103 38.5t178 14.5h40q102 0 167.5 -14.5t103 -38.5t52 -54.5t14.5 -61.5v-7h-227q-1 7 -5 17t-17.5 18t-39.5 14t-71 6h-1q-40 0 -65 -2.5t-39 -7.5t-19 -12.5t-5 -17.5v-2q0 -9 4.5 -16.5t17 -13t34.5 -9t57 -4.5l96 -2q93 -2 151.5 -13.5t91.5 -32.5t45 -52
t12 -71v-6q0 -37 -13.5 -70.5t-52.5 -59t-108.5 -40.5t-180.5 -15h-41v0zM348 -283q9 20 16.5 40.5t12.5 40.5h-100v150h223v-120q0 -14 -3.5 -29t-9.5 -30t-13 -28.5t-13 -23.5h-113z" />
    <glyph glyph-name="uni021A" unicode="&#x21a;" horiz-adv-x="932" 
d="M348 568h-320v176h876v-176h-321v-568h-235v568zM426 -283q9 20 16.5 40.5t12.5 40.5h-100v150h223v-120q0 -14 -3.5 -29t-9.5 -30t-13 -28.5t-13 -23.5h-113z" />
    <glyph glyph-name="uni021B" unicode="&#x21b;" horiz-adv-x="474" 
d="M252 0q-73 0 -103 41.5t-30 111.5v237h-105v148h105v157h220v-157h106v-148h-106v-195q0 -22 8 -34.5t37 -12.5h61v-148h-193zM263 -283q9 20 16.5 40.5t12.5 40.5h-100v150h223v-120q0 -14 -3.5 -29t-9.5 -30t-13 -28.5t-13 -23.5h-113z" />
    <glyph glyph-name="uni0237" unicode="&#x237;" horiz-adv-x="317" 
d="M15 -31q17 0 24.5 7.5t7.5 30.5v531h223v-587q0 -74 -29.5 -106.5t-72.5 -32.5h-194v157h41z" />
    <glyph glyph-name="uni02BC" unicode="&#x2bc;" horiz-adv-x="294" 
d="M98 498q13 23 23 48.5t13 45.5h-100v152h232v-125q0 -29 -14.5 -63.5t-31.5 -57.5h-122z" />
    <glyph glyph-name="circumflex" unicode="&#x2c6;" 
d="M627 590h-215l-61 64l-61 -64h-212l150 155h247z" />
    <glyph glyph-name="caron" unicode="&#x2c7;" 
d="M78 744h215l61 -63l61 63h212l-150 -154h-247z" />
    <glyph glyph-name="breve" unicode="&#x2d8;" 
d="M338 582q-68 0 -110.5 18t-65.5 43t-31 52.5t-8 46.5v2h170q0 -5 2.5 -13t9 -16t18.5 -14t32 -6q19 0 31 6t18.5 14t9 16t2.5 13h166v-2q0 -19 -10 -46.5t-34 -52.5t-65 -43t-103 -18h-32v0z" />
    <glyph glyph-name="dotaccent" unicode="&#x2d9;" 
d="M464 590h-223v154h223v-154z" />
    <glyph glyph-name="ring" unicode="&#x2da;" 
d="M164 699q0 24 9.5 45t31.5 37t59 25t91 9t90 -9t57.5 -25t30.5 -37t9 -45q0 -25 -9 -46.5t-30.5 -37.5t-57.5 -25t-90 -9q-56 0 -92.5 9.5t-58.5 25.5t-31 37.5t-9 45.5zM279 699q0 -21 18 -34t58 -13q39 0 56 13t17 34q0 20 -17 32.5t-56 12.5q-40 0 -58 -12.5
t-18 -32.5z" />
    <glyph glyph-name="ogonek" unicode="&#x2db;" 
d="M345 -188q-66 0 -98 18.5t-32 52.5v2q0 40 44.5 66t124.5 49h96q-26 -18 -42.5 -33t-16.5 -30q0 -23 38 -23h21v-102h-135z" />
    <glyph glyph-name="tilde" unicode="&#x2dc;" 
d="M472 594q-13 0 -25 1.5t-26 4.5t-31.5 8.5t-41.5 13.5q-20 7 -33 11t-24 4q-10 0 -13 -6t-3 -15v-29h-144v76q0 15 4 32.5t14.5 31.5t29.5 23.5t49 9.5h5q15 0 27.5 -1.5t26 -4.5t30 -8.5l40.5 -13.5q20 -7 33 -11t24 -4q9 0 12.5 6.5t3.5 15.5v29h144v-76
q0 -16 -3.5 -33t-14 -31.5t-29.5 -24t-49 -9.5h-6v0z" />
    <glyph glyph-name="hungarumlaut" unicode="&#x2dd;" 
d="M403 744h212l-67 -154h-205zM145 744h212l-60 -154h-205z" />
    <glyph glyph-name="uni0401" unicode="&#x401;" horiz-adv-x="891" 
d="M841 744v-169h-554v-110h541v-170h-541v-122h564v-173h-794v744h784zM707 796h-222v150h222v-150zM433 796h-222v150h222v-150z" />
    <glyph glyph-name="uni0402" unicode="&#x402;" horiz-adv-x="1079" 
d="M25 744h876v-176h-421v-115q35 5 76.5 9t85.5 4h22q197 0 297.5 -67t100.5 -216v-10q0 -153 -102 -223.5t-304 -70.5h-61v173h14q71 0 114 10.5t66 28t30.5 40.5t7.5 47v2q0 49 -41.5 81t-131.5 32h-20q-53 0 -88.5 -2.5t-65.5 -7.5v-283h-235v568h-220v176z" />
    <glyph glyph-name="uni0403" unicode="&#x403;" horiz-adv-x="826" 
d="M408 946h240l-105 -150h-225zM54 744h747v-180h-514v-564h-233v744z" />
    <glyph glyph-name="uni0404" unicode="&#x404;" horiz-adv-x="1083" 
d="M1062 289q0 -23 -7.5 -55t-27.5 -65.5t-55 -66t-90.5 -58t-134 -41.5t-184.5 -16h-41q-108 0 -186.5 18.5t-134 49t-90 69.5t-54 80.5t-26.5 82t-7 73.5v29q0 34 6.5 74.5t25 81t52.5 79t89.5 68t135 47.5t189.5 18h41q108 0 187 -15.5t134 -41t90 -57.5t54 -64.5
t26 -62.5t7 -52v-11h-247q-2 7 -11.5 27.5t-38 42t-81 38t-141.5 16.5q-59 0 -103 -9t-74.5 -24t-50 -35.5t-30.5 -43.5h424v-170h-424q11 -25 31 -48t51.5 -40.5t75 -28t102.5 -10.5q90 0 143 18t81 41.5t36.5 45t10.5 27.5h247v-11z" />
    <glyph glyph-name="uni0405" unicode="&#x405;" horiz-adv-x="975" 
d="M454 -13q-97 0 -167.5 13t-118.5 34.5t-77.5 49t-45.5 57t-21 58.5t-5 54v11h243q1 -17 8.5 -37.5t31 -38.5t66.5 -30t115 -12h14q73 0 116.5 6.5t66 18t29 25.5t6.5 29q0 16 -6.5 29t-26.5 23t-59 15.5t-103 7.5l-128 3q-104 3 -174 21t-112 47.5t-59.5 67.5t-17.5 82v9
q0 42 15.5 82.5t60 72.5t123.5 52t206 20h69q132 0 216 -21t132 -54.5t66 -75.5t18 -84v-10h-242q-2 11 -8.5 26t-28 29t-63.5 24t-115 10h-16q-68 0 -106.5 -5.5t-57.5 -14.5t-24 -20.5t-5 -23.5t5.5 -23t23.5 -20t52 -14.5t91 -6.5l125 -2q105 -2 179.5 -16t122 -41
t69.5 -68t22 -96v-14q0 -46 -15.5 -90.5t-62 -80t-132.5 -57t-226 -21.5h-69v0z" />
    <glyph glyph-name="uni0406" unicode="&#x406;" horiz-adv-x="341" 
d="M290 0h-233v744h233v-744z" />
    <glyph glyph-name="uni0407" unicode="&#x407;" horiz-adv-x="347" 
d="M290 0h-233v744h233v-744zM421 796h-222v150h222v-150zM147 796h-222v150h222v-150z" />
    <glyph glyph-name="uni0408" unicode="&#x408;" horiz-adv-x="890" 
d="M402 -11q-116 0 -192.5 30.5t-121.5 77.5t-63 104t-18 110v6h236q1 -12 6.5 -36t24 -48t54 -41.5t95.5 -17.5h12q92 0 135.5 49.5t43.5 134.5v386h234v-392q0 -39 -7 -80.5t-24 -82t-45.5 -77t-71.5 -64t-103 -43.5t-139 -16h-56v0z" />
    <glyph glyph-name="uni0409" unicode="&#x409;" horiz-adv-x="1438" 
d="M25 0v185h15q27 0 44.5 5t30.5 21q11 14 19 44t12.5 90t6.5 156t2 243h685v-228h200q115 0 189 -20t116.5 -54.5t59 -80t16.5 -97.5v-10q0 -52 -16 -98.5t-58.5 -81t-117 -54.5t-190.5 -20h-432v574h-244q0 -137 -5.5 -222t-14.5 -136.5t-20.5 -78.5t-24.5 -49
q-11 -18 -26 -34t-37.5 -28t-54.5 -19t-77 -7h-78zM1033 168q43 0 71 7t44.5 19.5t23 29t6.5 34.5v3q0 19 -6.5 35t-23 28t-44.5 18.5t-71 6.5h-193v-181h193z" />
    <glyph glyph-name="uni040A" unicode="&#x40a;" horiz-adv-x="1468" 
d="M637 312h-350v-312h-233v744h233v-252h350v252h233v-252h200q115 0 189 -18t116.5 -50t59 -76t16.5 -96v-10q0 -52 -16 -96.5t-58.5 -76.5t-117 -50.5t-190.5 -18.5h-432v312zM1063 168q43 0 71 5.5t44.5 15.5t23 24.5t6.5 32.5v3q0 18 -6.5 32t-23 23.5t-44.5 14.5
t-71 5h-193v-156h193z" />
    <glyph glyph-name="uni040B" unicode="&#x40b;" horiz-adv-x="1102" 
d="M480 568v-122q34 8 78.5 14t93.5 6h22q192 0 289 -66t97 -212v-188h-235v148q0 43 -10 71t-31 44.5t-53 23t-77 6.5h-20q-48 0 -84 -4.5t-70 -11.5v-277h-235v568h-220v176h876v-176h-421z" />
    <glyph glyph-name="uni040C" unicode="&#x40c;" horiz-adv-x="962" 
d="M57 0v744h233v-310l381 310h296l-428 -340l448 -404h-304l-393 351v-351h-233zM448 946h240l-105 -150h-225z" />
    <glyph glyph-name="uni040E" unicode="&#x40e;" horiz-adv-x="899" 
d="M580 172q-28 -47 -50 -79.5t-48 -53t-60.5 -30t-88.5 -9.5h-146v180h131q16 0 21 4.5t5 11.5v1q0 9 -4.5 17t-11.5 18l-351 512h270l231 -361l210 361h234zM477 787q-68 0 -110.5 18.5t-66 44t-32 53t-8.5 46.5v2h172q0 -5 2.5 -13t9 -16t18.5 -13.5t33 -5.5q20 0 32 5.5
t18.5 13.5t9 16t2.5 13h168v-2q0 -19 -10 -46.5t-34.5 -53t-66 -44t-103.5 -18.5h-34v0z" />
    <glyph glyph-name="uni040F" unicode="&#x40f;" horiz-adv-x="1033" 
d="M54 744h233v-564h459v564h233v-744h-351v-125h-223v125h-351v744z" />
    <glyph glyph-name="uni0410" unicode="&#x410;" horiz-adv-x="1038" 
d="M509 583l-138 -279h282zM739 136h-451l-67 -136h-237l376 744h302l398 -744h-251z" />
    <glyph glyph-name="uni0411" unicode="&#x411;" horiz-adv-x="993" 
d="M54 744h870v-157h-637v-113h310q115 0 189 -17t116.5 -47.5t59 -72.5t16.5 -91v-10q0 -51 -16 -94t-58.5 -74.5t-117 -49.5t-190.5 -18h-542v744zM595 162q41 0 68 6t43 16.5t22.5 24.5t6.5 31v3q0 17 -6.5 30.5t-22.5 23.5t-43 15t-68 5h-308v-155h308z" />
    <glyph glyph-name="uni0412" unicode="&#x412;" horiz-adv-x="1019" 
d="M57 744h637q80 0 132.5 -14t83.5 -38t43.5 -54.5t12.5 -63.5v-14q0 -36 -13.5 -62t-32 -43t-39 -26.5t-33.5 -13.5q19 -5 46.5 -16.5t52.5 -33t43 -55t18 -82.5v-14q0 -44 -14 -83t-49.5 -68t-95 -46t-149.5 -17h-643v744zM290 587v-121h364q24 0 40 5t25 13.5t12.5 19.5
t3.5 22v2q0 12 -3.5 22.5t-12.5 18.5t-25 13t-40 5h-364zM290 308v-146h384q29 0 47 7t28 18t13.5 24t3.5 24v4q0 12 -3.5 24.5t-13.5 22t-28 16t-47 6.5h-384z" />
    <glyph glyph-name="uni0413" unicode="&#x413;" horiz-adv-x="826" 
d="M54 744h747v-180h-514v-564h-233v744z" />
    <glyph glyph-name="uni0414" unicode="&#x414;" horiz-adv-x="1072" 
d="M100 180q14 29 22.5 75.5t13 115t6 161t1.5 212.5h804v-564h120v-305h-223v125h-616v-125h-223v305h95zM714 180v384h-365q0 -57 -1.5 -114t-6 -108t-12 -93t-19.5 -69h404z" />
    <glyph glyph-name="uni0415" unicode="&#x415;" horiz-adv-x="885" 
d="M841 744v-169h-554v-110h541v-170h-541v-122h564v-173h-794v744h784z" />
    <glyph glyph-name="uni0416" unicode="&#x416;" horiz-adv-x="1477" 
d="M622 330l-333 -330h-304l411 403l-391 341h296l321 -289v289h233v-289l321 289h296l-391 -341l411 -403h-304l-333 330v-330h-233v330z" />
    <glyph glyph-name="uni0417" unicode="&#x417;" horiz-adv-x="1020" 
d="M995 220q0 -46 -19 -87.5t-69.5 -73t-138 -50t-223.5 -18.5h-54q-100 0 -184 14.5t-145.5 47.5t-96 86t-34.5 130v11h245q0 -64 63.5 -94t188.5 -30q123 0 175 20t52 57v3q0 37 -46.5 52.5t-138.5 15.5h-221v161h220q88 0 127.5 13t39.5 42v3q0 15 -11 27t-36 20
t-66 12.5t-101 4.5q-48 0 -91.5 -5t-77.5 -18t-54 -35t-20 -56h-245v18q0 63 34 111.5t94 81.5t143 50t182 17h50q129 0 213.5 -15.5t134.5 -41.5t70 -61.5t20 -74.5v-11q0 -26 -11.5 -51.5t-35.5 -46.5t-62 -35t-91 -18q55 -4 96.5 -19t69 -37t41 -50.5t13.5 -59.5v-10z
" />
    <glyph glyph-name="uni0418" unicode="&#x418;" horiz-adv-x="1073" 
d="M786 491l-499 -491h-233v744h233v-493l499 493h233v-744h-233v491z" />
    <glyph glyph-name="uni0419" unicode="&#x419;" horiz-adv-x="1073" 
d="M786 491l-499 -491h-233v744h233v-493l499 493h233v-744h-233v491zM527 787q-68 0 -110.5 18.5t-66 44t-32 53t-8.5 46.5v2h172q0 -5 2.5 -13t9 -16t18.5 -13.5t33 -5.5q20 0 32 5.5t18.5 13.5t9 16t2.5 13h168v-2q0 -19 -10 -46.5t-34.5 -53t-66 -44t-103.5 -18.5h-34v0
z" />
    <glyph glyph-name="uni041A" unicode="&#x41a;" horiz-adv-x="962" 
d="M287 351v-351h-233v744h233v-310l381 310h296l-428 -340l448 -404h-304z" />
    <glyph glyph-name="uni041B" unicode="&#x41b;" horiz-adv-x="1004" 
d="M717 574h-354q0 -91 -2 -158.5t-6.5 -117t-10 -83t-13 -57t-16 -40t-17.5 -30.5q-14 -21 -31.5 -37.5t-41.5 -28t-57 -17t-78 -5.5h-65v185h15q27 0 44.5 5t30.5 21q11 14 19 44t12.5 90t6.5 156t2 243h795v-744h-233v574z" />
    <glyph glyph-name="uni041C" unicode="&#x41c;" horiz-adv-x="1273" 
d="M57 744h331l257 -463l258 463h319v-744h-230v515l-293 -515h-125l-293 515v-515h-224v744z" />
    <glyph glyph-name="uni041D" unicode="&#x41d;" horiz-adv-x="1074" 
d="M54 744h233v-271h500v271h233v-744h-233v293h-500v-293h-233v744z" />
    <glyph glyph-name="uni041E" unicode="&#x41e;" horiz-adv-x="1138" 
d="M594 757q117 0 201 -18t142.5 -48t93.5 -68.5t54.5 -79t25.5 -81t6 -73.5v-30q0 -33 -6 -73t-25 -81.5t-54.5 -80.5t-93.5 -69.5t-142.5 -49t-201.5 -18.5h-43q-118 0 -202.5 18.5t-142.5 49t-93.5 69.5t-54.5 80.5t-25 81.5t-6 73v30q0 33 6 73.5t25 81t54.5 79
t93.5 68.5t142.5 48t202.5 18h43zM873 382q0 32 -11.5 66.5t-44.5 63t-92 47t-153 18.5q-96 0 -155 -18.5t-91.5 -47t-43.5 -63t-11 -66.5v-12q0 -32 11.5 -67.5t44.5 -65.5t92 -49.5t153 -19.5t152.5 19t91.5 48.5t45 65t12 67.5v14z" />
    <glyph glyph-name="uni041F" unicode="&#x41f;" horiz-adv-x="1033" 
d="M54 744h925v-744h-233v564h-459v-564h-233v744z" />
    <glyph glyph-name="uni0420" unicode="&#x420;" horiz-adv-x="976" 
d="M290 248v-248h-233v744h558q100 0 167 -18.5t107 -51.5t56.5 -77t16.5 -95v-10q0 -50 -17 -94.5t-57 -77.5t-106.5 -52.5t-166.5 -19.5h-325zM290 415h321q55 0 81.5 20t26.5 58v3q0 38 -26 58.5t-82 20.5h-321v-160z" />
    <glyph glyph-name="uni0421" unicode="&#x421;" horiz-adv-x="1083" 
d="M525 -13q-108 0 -186.5 18.5t-134 49t-90 69.5t-54 80.5t-26.5 82t-7 73.5v29q0 34 6.5 74.5t25 81t52.5 79t89.5 68t135 47.5t189.5 18h41q108 0 187 -15.5t134 -41t89.5 -57.5t54 -64.5t26.5 -62.5t7 -52v-11h-247q-2 7 -11.5 27.5t-38 42t-81 38t-141.5 16.5
q-84 0 -137 -17t-83.5 -44.5t-42 -62t-11.5 -69.5v-12q0 -33 12.5 -69t44 -66t85 -49.5t134.5 -19.5q90 0 143 18t81 41.5t36.5 45t10.5 27.5h247v-11q0 -23 -7.5 -55t-27.5 -65.5t-55 -66t-90.5 -58t-134 -41.5t-184.5 -16h-41z" />
    <glyph glyph-name="uni0422" unicode="&#x422;" horiz-adv-x="926" 
d="M348 568h-320v176h876v-176h-321v-568h-235v568z" />
    <glyph glyph-name="uni0423" unicode="&#x423;" horiz-adv-x="899" 
d="M580 172q-28 -47 -50 -79.5t-48 -53t-60.5 -30t-88.5 -9.5h-146v180h131q16 0 21 4.5t5 11.5v1q0 9 -4.5 17t-11.5 18l-351 512h270l231 -361l210 361h234z" />
    <glyph glyph-name="uni0424" unicode="&#x424;" horiz-adv-x="1359" 
d="M563 754h233v-67h191q66 0 130 -16.5t114.5 -51.5t81.5 -91t31 -135v-11q0 -80 -31 -136t-81 -91.5t-114 -52t-130 -16.5h-192v-96h-233v96h-192q-66 0 -130 16.5t-114 52t-81 91.5t-31 136v10q0 79 31 135t81.5 91.5t114.5 52t130 16.5h191v67zM796 256h139
q83 0 128.5 34t45.5 94v8q0 60 -46 92.5t-128 32.5h-139v-261zM424 517q-83 0 -128.5 -32.5t-45.5 -92.5v-8q0 -60 45.5 -94t128.5 -34h139v261h-139z" />
    <glyph glyph-name="uni0425" unicode="&#x425;" horiz-adv-x="1008" 
d="M-10 0l370 376l-362 368h312l210 -218l210 218h286l-357 -363l365 -381h-293l-228 231l-226 -231h-287z" />
    <glyph glyph-name="uni0426" unicode="&#x426;" horiz-adv-x="1104" 
d="M54 744h233v-564h459v564h233v-564h120v-305h-223v125h-822v744z" />
    <glyph glyph-name="uni0427" unicode="&#x427;" horiz-adv-x="912" 
d="M625 256q-45 -9 -100 -15t-128 -6q-92 0 -163 13t-120 43t-74 80.5t-25 125.5v247h233v-191q0 -44 13.5 -71t40 -42t65.5 -20t89 -5q37 0 81.5 3t87.5 14v312h233v-744h-233v256z" />
    <glyph glyph-name="uni0428" unicode="&#x428;" horiz-adv-x="1465" 
d="M54 744h243v-564h314v564h243v-564h314v564h243v-744h-1357v744z" />
    <glyph glyph-name="uni0429" unicode="&#x429;" horiz-adv-x="1536" 
d="M54 744h243v-564h314v564h243v-564h314v564h243v-564h120v-305h-223v125h-1254v744z" />
    <glyph glyph-name="uni042A" unicode="&#x42a;" horiz-adv-x="1128" 
d="M730 516q115 0 189 -20t116.5 -54.5t59 -80t16.5 -97.5v-10q0 -52 -16 -98.5t-58.5 -81t-117 -54.5t-190.5 -20h-522v564h-198v180h431v-228h290zM723 168q43 0 71 7t44.5 19.5t23 29t6.5 34.5v3q0 19 -6.5 35t-23 28t-44.5 18.5t-71 6.5h-283v-181h283z" />
    <glyph glyph-name="uni042B" unicode="&#x42b;" horiz-adv-x="1307" 
d="M577 516q115 0 189 -20t116.5 -54.5t59 -80t16.5 -97.5v-10q0 -52 -16 -98.5t-58.5 -81t-117 -54.5t-190.5 -20h-522v744h233v-228h290zM570 168q43 0 71 7t44.5 19.5t23 29t6.5 34.5v3q0 19 -6.5 35t-23 28t-44.5 18.5t-71 6.5h-283v-181h283zM1256 0h-233v744h233v-744
z" />
    <glyph glyph-name="uni042C" unicode="&#x42c;" horiz-adv-x="975" 
d="M577 516q115 0 189 -20t116.5 -54.5t59 -80t16.5 -97.5v-10q0 -52 -16 -98.5t-58.5 -81t-117 -54.5t-190.5 -20h-522v744h233v-228h290zM570 168q43 0 71 7t44.5 19.5t23 29t6.5 34.5v3q0 19 -6.5 35t-23 28t-44.5 18.5t-71 6.5h-283v-181h283z" />
    <glyph glyph-name="uni042D" unicode="&#x42d;" horiz-adv-x="1083" 
d="M1059 360q0 -33 -7 -73.5t-26.5 -82t-54 -80.5t-90 -69.5t-134 -49t-186.5 -18.5h-41q-106 0 -184.5 16t-134 41.5t-90.5 58t-55 66t-27.5 65t-7.5 55.5v11h245q1 -4 4.5 -15.5t13 -26t27 -30.5t47.5 -29.5t74 -22t107 -8.5q61 0 106 10.5t76 28t50.5 40.5t29.5 48h-412
v170h412q-10 23 -29 43.5t-49.5 35.5t-75 24t-106.5 9q-93 0 -146.5 -16.5t-81 -38t-36 -42t-10.5 -27.5h-245v11q0 22 7 52t26.5 62.5t54 64.5t89.5 57.5t134 41t187 15.5h41q110 0 189.5 -18t135 -47.5t89.5 -68t52.5 -79t25 -81t6.5 -74.5v-29z" />
    <glyph glyph-name="uni042E" unicode="&#x42e;" horiz-adv-x="1415" 
d="M1391 359q0 -33 -6.5 -73t-25 -81.5t-51.5 -80.5t-86.5 -69.5t-130.5 -49t-183 -18.5h-43q-135 0 -224 29t-143 74t-79 99t-33 104h-99v-293h-233v744h233v-271h102q10 48 37 98.5t81.5 92t141.5 67.5t216 26h43q105 0 182 -18t130.5 -48t87 -68.5t52 -79t25 -81
t6.5 -73.5v-30zM1147 382q0 32 -11.5 66.5t-41 63t-80 47t-128.5 18.5q-79 0 -129.5 -18.5t-80 -47t-40.5 -63t-11 -66.5v-12q0 -32 11.5 -67.5t41 -65.5t80 -49.5t128.5 -19.5t128.5 19t80 48.5t41 65t11.5 67.5v14z" />
    <glyph glyph-name="uni042F" unicode="&#x42f;" horiz-adv-x="1012" 
d="M572 264l-276 -264h-298l299 276q-75 5 -127 23.5t-84 48t-46.5 67.5t-14.5 81v12q0 44 15.5 86.5t53 75.5t99.5 53.5t155 20.5h610v-744h-233v264h-153zM725 575h-363q-51 0 -72.5 -21.5t-21.5 -50.5v-1q0 -31 22 -52t72 -21h363v146z" />
    <glyph glyph-name="uni0430" unicode="&#x430;" horiz-adv-x="794" 
d="M522 256l-213 -33q-43 -7 -62 -17t-19 -33v-1q0 -11 4.5 -22t16 -19.5t30 -14t47.5 -5.5q45 0 81 11t61.5 29t39.5 41t14 47v17zM528 74q-9 -11 -27 -25t-47.5 -27.5t-72 -22.5t-102.5 -9h-13q-68 0 -115.5 14.5t-77.5 39t-43.5 56t-13.5 66.5v7q0 74 52.5 112t173.5 49
l246 23q19 2 26.5 8.5t7.5 19.5q0 7 -3.5 15t-17.5 14.5t-42 10.5t-77 4h-5q-50 0 -78 -7t-41.5 -16.5t-17 -19.5t-4.5 -17h-207v2q0 18 3 38.5t13.5 40.5t31.5 38.5t56.5 33t88.5 23t128 8.5h55q117 0 183.5 -16t99.5 -41.5t41 -56.5t8 -60v-206q0 -12 5.5 -19.5t22.5 -7.5
h29v-146h-181q-32 0 -55.5 18t-29.5 56z" />
    <glyph glyph-name="uni0431" unicode="&#x431;" horiz-adv-x="854" 
d="M835 245q0 -80 -36.5 -130.5t-94 -79t-128 -39.5t-139.5 -11h-20q-72 0 -143.5 12.5t-128 47.5t-91.5 97t-35 161v70q0 81 19 147.5t66.5 114t127 73t199.5 25.5h121q20 0 30.5 3.5t15.5 8.5q6 5 7 12h216q0 -47 -11.5 -81.5t-38.5 -57t-71.5 -33.5t-111.5 -11h-136
q-62 0 -105 -9.5t-69.5 -28.5t-38.5 -48t-12 -69v-5q12 16 36 33.5t59.5 32t82.5 24t106 9.5h6q29 0 64 -4t70 -14t68.5 -28t59 -45t41 -65.5t15.5 -90.5v-21zM427 130q91 0 135.5 34.5t44.5 82.5v11q0 53 -45 82.5t-135 29.5q-89 0 -134.5 -29t-45.5 -83v-11
q0 -50 45 -83.5t135 -33.5z" />
    <glyph glyph-name="uni0432" unicode="&#x432;" horiz-adv-x="799" 
d="M44 0v538h398q86 0 145 -8t95 -24t51.5 -39.5t15.5 -53.5v-10q0 -44 -32.5 -72t-88.5 -41q28 -6 54.5 -16.5t47 -26.5t32.5 -37.5t12 -47.5v-10q0 -32 -14.5 -59.5t-47 -48t-85 -32.5t-128.5 -12h-455zM431 339q52 0 71.5 10t19.5 30v3q0 19 -19.5 28.5t-72.5 9.5h-163
v-81h164zM451 121q96 0 96 52v5q0 48 -97 48h-183v-105h184z" />
    <glyph glyph-name="uni0433" unicode="&#x433;" horiz-adv-x="581" 
d="M44 538h512v-148h-289v-390h-223v538z" />
    <glyph glyph-name="uni0434" unicode="&#x434;" horiz-adv-x="920" 
d="M5 148h81q11 26 18.5 57t12.5 76t8 107t5 150h675v-390h110v-268h-213v120h-485v-120h-212v268zM582 148v247h-249q-3 -85 -10.5 -143t-24.5 -104h284z" />
    <glyph glyph-name="uni0435" unicode="&#x435;" horiz-adv-x="845" 
d="M424 428q-84 0 -125 -24t-54 -67h360q-11 43 -53 67t-127 24h-1zM827 189q0 -27 -12.5 -62.5t-51.5 -67t-112 -53t-193 -21.5h-57q-108 0 -180.5 23t-116.5 61.5t-63 88t-19 102.5v22q0 52 17.5 100.5t60 86.5t114.5 61t181 23h61q118 0 191.5 -27t114 -69t54.5 -93.5
t14 -100.5v-37h-589q10 -47 54 -76t136 -29h1q55 0 89 9t53 20.5t25.5 23t7.5 16.5h220v-1z" />
    <glyph glyph-name="uni0436" unicode="&#x436;" horiz-adv-x="1139" 
d="M458 244l-214 -244h-262l268 294l-237 244h247l198 -213v213h223v-213l198 213h247l-237 -244l268 -294h-262l-214 244v-244h-223v244z" />
    <glyph glyph-name="uni0437" unicode="&#x437;" horiz-adv-x="796" 
d="M781 149q0 -33 -19.5 -63t-62 -52.5t-109 -35.5t-160.5 -13h-23q-86 0 -158 13.5t-123.5 41t-80.5 68.5t-29 96v5h229q0 -48 40.5 -69t125.5 -21q68 0 104.5 13.5t36.5 39.5v4q0 15 -9 24t-24 13.5t-34.5 6t-40.5 1.5h-163v118h173q74 0 74 40v3q0 26 -35.5 36t-94.5 10
q-45 0 -74 -5.5t-46 -14.5t-24 -21t-9 -24h-229v8q0 46 26 80t75.5 56.5t121.5 34t163 11.5h16q79 0 141.5 -9t106 -26t67 -42t23.5 -58v-10q0 -45 -35 -78t-117 -41q84 -8 130.5 -44t46.5 -86v-10z" />
    <glyph glyph-name="uni0438" unicode="&#x438;" horiz-adv-x="877" 
d="M44 538h223v-339l338 339h228v-538h-223v339l-338 -339h-228v538z" />
    <glyph glyph-name="uni0439" unicode="&#x439;" horiz-adv-x="877" 
d="M44 538h223v-339l338 339h228v-538h-223v339l-338 -339h-228v538zM426 582q-68 0 -110.5 18t-65.5 43t-31 52.5t-8 46.5v2h170q0 -5 2.5 -13t9 -16t18.5 -14t32 -6q19 0 31 6t18.5 14t9 16t2.5 13h166v-2q0 -19 -10 -46.5t-34 -52.5t-65 -43t-103 -18h-32v0z" />
    <glyph glyph-name="uni043A" unicode="&#x43a;" horiz-adv-x="745" 
d="M267 247v-247h-223v538h223v-215l218 215h247l-254 -243l285 -295h-262z" />
    <glyph glyph-name="uni043B" unicode="&#x43b;" horiz-adv-x="773" 
d="M506 390h-216q0 -56 -1 -99t-4 -76t-7 -57.5t-10 -44.5q-15 -49 -60.5 -81t-130.5 -32h-67v148h12q22 0 35.5 12t19.5 44q3 16 5.5 34t4 52.5t2.5 93t1 154.5h639v-538h-223v390z" />
    <glyph glyph-name="uni043C" unicode="&#x43c;" horiz-adv-x="1025" 
d="M252 308v-308h-208v538h270l201 -311l205 311h261v-538h-223v305l-198 -305h-110z" />
    <glyph glyph-name="uni043D" unicode="&#x43d;" horiz-adv-x="836" 
d="M44 0v538h223v-196h302v196h223v-538h-223v194h-302v-194h-223z" />
    <glyph glyph-name="uni043E" unicode="&#x43e;" horiz-adv-x="880" 
d="M409 -15q-117 0 -192 26t-118.5 66.5t-60 89.5t-16.5 96v18q0 46 16.5 94.5t59.5 88t118 64.5t192 25h71q123 0 198.5 -25.5t117 -65t55.5 -87.5t14 -94v-18q0 -47 -13.5 -96t-54.5 -89.5t-116.5 -66.5t-200.5 -26h-70zM444 130q57 0 94.5 13t59.5 33t31 44.5t9 48.5v5
q0 25 -9 49.5t-31 43.5t-59.5 31t-93.5 12h-1q-57 0 -94.5 -11.5t-59.5 -31t-31 -44t-9 -49.5v-5q0 -24 9 -48.5t31 -44.5t59.5 -33t94.5 -13z" />
    <glyph glyph-name="uni043F" unicode="&#x43f;" horiz-adv-x="816" 
d="M44 538h728v-538h-223v390h-282v-390h-223v538z" />
    <glyph glyph-name="uni0440" unicode="&#x440;" horiz-adv-x="902" 
d="M270 269q0 -25 12 -50t36.5 -45t62 -32.5t88.5 -12.5h5q54 0 89.5 12.5t56.5 33t29.5 45.5t8.5 49v4q0 26 -8.5 51t-29.5 44.5t-56.5 31.5t-89.5 12h-5q-52 0 -89.5 -12t-62 -31.5t-36 -44.5t-11.5 -51v-4zM270 538v-77q9 8 29.5 23t54.5 30t81 26t108 11h18
q91 0 153.5 -21.5t100.5 -58t54.5 -86t16.5 -104.5v-19q0 -53 -17 -102.5t-56 -88t-102.5 -61.5t-156.5 -23h-16q-60 0 -107 11t-80.5 26t-53.5 29.5t-27 22.5v-264h-223v726h223z" />
    <glyph glyph-name="uni0441" unicode="&#x441;" horiz-adv-x="844" 
d="M397 -15q-115 0 -188 26.5t-114.5 67t-57 89.5t-15.5 94v20q0 45 15.5 93t56.5 87.5t114 65t188 25.5h57q84 0 144.5 -12.5t102.5 -32.5t68 -45.5t40 -51.5t18.5 -50.5t4.5 -42.5v-3h-229q-2 8 -8.5 24t-25 32.5t-53 28.5t-91.5 12h-3q-49 0 -81.5 -11t-52.5 -30
t-28.5 -43t-8.5 -49v-7q0 -27 8.5 -53t28.5 -46t53 -32.5t81 -12.5h3q56 0 90.5 12.5t53.5 29t25.5 33t8.5 24.5h229v-2q0 -19 -4 -44t-17.5 -51.5t-39 -52.5t-67.5 -46.5t-103.5 -33t-147.5 -12.5h-55z" />
    <glyph glyph-name="uni0442" unicode="&#x442;" horiz-adv-x="723" 
d="M250 390h-225v148h673v-148h-225v-390h-223v390z" />
    <glyph glyph-name="uni0443" unicode="&#x443;" horiz-adv-x="777" 
d="M119 -28h126q16 0 21 4.5t5 12.5t-6.5 21t-18.5 36l-257 492h240l173 -364l168 364h224l-282 -574q-19 -38 -38.5 -66.5t-43 -47.5t-52 -28.5t-64.5 -9.5h-195v160z" />
    <glyph glyph-name="uni0444" unicode="&#x444;" horiz-adv-x="1117" 
d="M670 -15v-173h-223v173h-30q-114 0 -190 26.5t-122.5 67t-66 89.5t-19.5 95v10q0 52 21 102.5t68.5 90t123 63.5t185.5 24h30v191h223v-191h30q109 0 184.5 -24t123 -63t69 -88.5t21.5 -100.5v-14q0 -46 -21 -95t-68 -89.5t-123 -67t-186 -26.5h-30zM447 130v280h-20
q-91 0 -135.5 -40t-44.5 -101v-4q0 -57 44 -96t136 -39h20zM670 410v-280h20q52 0 87 10.5t55.5 29t29 43t8.5 52.5v4q0 30 -8.5 56t-29.5 44.5t-55.5 29.5t-86.5 11h-20z" />
    <glyph glyph-name="uni0445" unicode="&#x445;" horiz-adv-x="785" 
d="M-11 0l281 273l-272 265h263l141 -141l141 141h250l-270 -261l279 -277h-252l-158 154l-155 -154h-248z" />
    <glyph glyph-name="uni0446" unicode="&#x446;" horiz-adv-x="857" 
d="M852 -120h-213v120h-595v538h223v-390h252v390h223v-390h110v-268z" />
    <glyph glyph-name="uni0447" unicode="&#x447;" horiz-adv-x="761" 
d="M717 538v-538h-223v184q-14 -3 -58 -8.5t-103 -5.5q-72 0 -130.5 7t-99.5 28.5t-63 60.5t-22 103v169h223v-133q0 -26 8.5 -43t27 -26.5t47.5 -13.5t71 -4q28 0 56.5 3t42.5 5v212h223z" />
    <glyph glyph-name="uni0448" unicode="&#x448;" horiz-adv-x="1141" 
d="M44 538h223v-390h192v390h223v-390h192v390h223v-538h-1053v538z" />
    <glyph glyph-name="uni0449" unicode="&#x449;" horiz-adv-x="1212" 
d="M44 538h223v-390h192v390h223v-390h192v390h223v-390h110v-268h-213v120h-950v538z" />
    <glyph glyph-name="uni044A" unicode="&#x44a;" horiz-adv-x="914" 
d="M15 538h391v-140h241q60 0 105.5 -14.5t75.5 -39.5t45.5 -59.5t15.5 -73.5v-10q0 -39 -15 -75.5t-45.5 -64t-76 -44.5t-105.5 -17h-464v398h-168v140zM591 137q36 0 53.5 18.5t17.5 41.5v5q0 24 -17.5 41.5t-53.5 17.5h-185v-124h185z" />
    <glyph glyph-name="uni044B" unicode="&#x44b;" horiz-adv-x="1067" 
d="M44 538h223v-140h241q60 0 105.5 -14.5t75.5 -39.5t45.5 -59.5t15.5 -73.5v-10q0 -39 -15 -75.5t-45.5 -64t-76 -44.5t-105.5 -17h-464v538zM452 137q36 0 53.5 18.5t17.5 41.5v5q0 24 -17.5 41.5t-53.5 17.5h-185v-124h185zM1026 0h-223v538h223v-538z" />
    <glyph glyph-name="uni044C" unicode="&#x44c;" horiz-adv-x="775" 
d="M44 538h223v-140h241q60 0 105.5 -14.5t75.5 -39.5t45.5 -59.5t15.5 -73.5v-10q0 -39 -15 -75.5t-45.5 -64t-76 -44.5t-105.5 -17h-464v538zM452 137q36 0 53.5 18.5t17.5 41.5v5q0 24 -17.5 41.5t-53.5 17.5h-185v-124h185z" />
    <glyph glyph-name="uni044D" unicode="&#x44d;" horiz-adv-x="844" 
d="M825 262q0 -45 -14 -94t-54.5 -89.5t-114 -67t-192.5 -26.5h-55q-86 0 -147.5 12.5t-103.5 33t-67.5 46.5t-39 52.5t-17.5 51.5t-4 44v2h229q1 -12 8 -30.5t26 -36t53.5 -30t90.5 -12.5h3q73 0 111 21.5t51 65.5h-270v132h271q-13 41 -51 63t-112 22h-3
q-57 0 -91.5 -12.5t-53 -29.5t-25 -35t-8.5 -30h-229v3q0 18 4.5 42.5t18.5 50.5t40 51.5t68 45.5t102.5 32.5t144.5 12.5h57q115 0 188 -25.5t114 -65t56.5 -87.5t15.5 -93v-20z" />
    <glyph glyph-name="uni044E" unicode="&#x44e;" horiz-adv-x="1156" 
d="M1137 263q0 -47 -13 -96t-53 -89.5t-114 -66.5t-195 -26h-50q-94 0 -160 18t-109.5 48t-67.5 68t-33 78h-75v-197h-223v538h223v-199h74q8 40 31 78.5t66.5 68.5t110 48.5t162.5 18.5h51q119 0 192.5 -25.5t114 -65t54.5 -87.5t14 -94v-18zM563 269q0 -24 7 -48.5
t26.5 -44.5t53.5 -33t87 -13q54 0 87.5 13t53 33t26.5 44.5t7 48.5v5q0 25 -7.5 49.5t-26.5 43.5t-53 31t-86 12h-1q-54 0 -87.5 -11.5t-53 -31t-26.5 -44t-7 -49.5v-5z" />
    <glyph glyph-name="uni044F" unicode="&#x44f;" horiz-adv-x="804" 
d="M434 154l-159 -154h-255l179 171q-79 16 -121 60t-42 112v10q0 88 64.5 136.5t181.5 48.5h478v-538h-223v154h-103zM342 406q-26 0 -42 -5t-25 -13.5t-12.5 -18.5t-3.5 -19v-4q0 -10 3.5 -19.5t12.5 -17.5t25.5 -13t42.5 -5h194v115h-195z" />
    <glyph glyph-name="uni0451" unicode="&#x451;" horiz-adv-x="851" 
d="M424 428q-84 0 -125 -24t-54 -67h360q-11 43 -53 67t-127 24h-1zM827 189q0 -27 -12.5 -62.5t-51.5 -67t-112 -53t-193 -21.5h-57q-108 0 -180.5 23t-116.5 61.5t-63 88t-19 102.5v22q0 52 17.5 100.5t60 86.5t114.5 61t181 23h61q118 0 191.5 -27t114 -69t54.5 -93.5
t14 -100.5v-37h-589q10 -47 54 -76t136 -29h1q55 0 89 9t53 20.5t25.5 23t7.5 16.5h220v-1zM667 590h-216v154h216v-154zM401 590h-215v154h215v-154z" />
    <glyph glyph-name="uni0452" unicode="&#x452;" horiz-adv-x="843" 
d="M801 -49q0 -74 -29.5 -106.5t-72.5 -32.5h-194v157h41q17 0 23.5 6t6.5 36v255q0 62 -35 98t-109 36q-75 0 -120 -40t-45 -106v-254h-223v591h-77v103h77v50h223v-50h257v-103h-257v-143q9 9 29 26t52.5 34t78 29.5t105.5 12.5h7q70 0 119.5 -18t81 -48t46.5 -67.5
t15 -76.5v-389z" />
    <glyph glyph-name="uni0453" unicode="&#x453;" horiz-adv-x="581" 
d="M44 538h512v-148h-289v-390h-223v538zM283 744h230l-107 -154h-213z" />
    <glyph glyph-name="uni0454" unicode="&#x454;" horiz-adv-x="849" 
d="M828 225q0 -19 -4 -44t-17.5 -51.5t-39 -52.5t-67.5 -46.5t-103.5 -33t-147.5 -12.5h-55q-115 0 -188 26.5t-114.5 67t-57 89.5t-15.5 94v20q0 45 15.5 93t56.5 87.5t114 65t188 25.5h57q84 0 144.5 -12.5t102.5 -32.5t68 -45.5t40 -51.5t18.5 -50.5t4.5 -42.5v-3h-229
q-2 12 -8.5 30t-25 35t-53 29.5t-91.5 12.5h-3q-72 0 -110 -23.5t-52 -61.5h270v-132h-267q15 -38 52.5 -62.5t106.5 -24.5h3q56 0 90.5 12.5t53.5 30t25.5 36t8.5 30.5h229v-2z" />
    <glyph glyph-name="uni0455" unicode="&#x455;" horiz-adv-x="773" 
d="M363 -15q-118 0 -186.5 20t-104 49.5t-45.5 62.5t-10 59v6h230q0 -7 3.5 -19.5t17 -24.5t41 -20.5t76.5 -8.5h2q46 0 74 4.5t42 11.5t18.5 16t4.5 19v2q0 10 -3.5 18.5t-16 14.5t-36 9.5t-62.5 4.5l-96 2q-88 2 -144 17.5t-88.5 39t-45 52.5t-12.5 59v6q0 31 11.5 61
t47.5 54t103 38.5t178 14.5h40q102 0 167.5 -14.5t103 -38.5t52 -54.5t14.5 -61.5v-7h-227q-1 7 -5 17t-17.5 18t-39.5 14t-71 6h-1q-40 0 -65 -2.5t-39 -7.5t-19 -12.5t-5 -17.5v-2q0 -9 4.5 -16.5t17 -13t34.5 -9t57 -4.5l96 -2q93 -2 151.5 -13.5t91.5 -32.5t45 -52
t12 -71v-6q0 -37 -13.5 -70.5t-52.5 -59t-108.5 -40.5t-180.5 -15h-41v0z" />
    <glyph glyph-name="uni0456" unicode="&#x456;" horiz-adv-x="311" 
d="M270 590h-223v154h223v-154zM270 0h-223v538h223v-538z" />
    <glyph glyph-name="uni0457" unicode="&#x457;" horiz-adv-x="311" 
d="M140 590h-135v154h135v-154zM306 590h-136v154h136v-154zM270 0h-223v538h223v-538z" />
    <glyph glyph-name="uni0458" unicode="&#x458;" horiz-adv-x="311" 
d="M270 590h-223v154h223v-154zM15 -31q17 0 24.5 7.5t7.5 30.5v531h223v-587q0 -74 -29.5 -106.5t-72.5 -32.5h-194v157h41z" />
    <glyph glyph-name="uni0459" unicode="&#x459;" horiz-adv-x="1217" 
d="M719 538v-140h231q60 0 105.5 -14.5t75.5 -39.5t45.5 -59.5t15.5 -73.5v-10q0 -39 -15 -75.5t-45.5 -64t-76 -44.5t-105.5 -17h-454v390h-206q0 -56 -1 -98.5t-3.5 -74.5t-6 -54.5t-7.5 -38.5q-17 -60 -63 -92t-134 -32h-65v148h12q22 0 35.5 12t19.5 44q3 16 5.5 34
t4 53t2.5 93t1 154h629zM894 137q36 0 53.5 18.5t17.5 41.5v5q0 24 -17.5 41.5t-53.5 17.5h-175v-124h175z" />
    <glyph glyph-name="uni045A" unicode="&#x45a;" horiz-adv-x="1220" 
d="M44 0v538h223v-180h252v180h223v-180h211q121 0 181.5 -44t60.5 -123v-10q0 -39 -15 -72t-45.5 -57.5t-76 -38t-105.5 -13.5h-434v224h-252v-224h-223zM742 127h155q36 0 53.5 13.5t17.5 36.5v5q0 49 -71 49h-155v-104z" />
    <glyph glyph-name="uni045B" unicode="&#x45b;" horiz-adv-x="849" 
d="M47 744h223v-50h257v-103h-257v-143q9 9 29 26t52.5 34t78 29.5t105.5 12.5h7q70 0 119.5 -18t81 -48t46.5 -67.5t15 -76.5v-340h-225v266q0 62 -35 98t-109 36q-75 0 -120 -40t-45 -106v-254h-223v591h-77v103h77v50z" />
    <glyph glyph-name="uni045C" unicode="&#x45c;" horiz-adv-x="745" 
d="M353 744h230l-107 -154h-213zM267 247v-247h-223v538h223v-215l218 215h247l-254 -243l285 -295h-262z" />
    <glyph glyph-name="uni045E" unicode="&#x45e;" horiz-adv-x="777" 
d="M119 -28h126q16 0 21 4.5t5 12.5t-6.5 21t-18.5 36l-257 492h240l173 -364l168 364h224l-282 -574q-19 -38 -38.5 -66.5t-43 -47.5t-52 -28.5t-64.5 -9.5h-195v160zM387 582q-68 0 -110.5 18t-65.5 43t-31 52.5t-8 46.5v2h170q0 -5 2.5 -13t9 -16t18.5 -14t32 -6
q19 0 31 6t18.5 14t9 16t2.5 13h166v-2q0 -19 -10 -46.5t-34 -52.5t-65 -43t-103 -18h-32v0z" />
    <glyph glyph-name="uni045F" unicode="&#x45f;" horiz-adv-x="816" 
d="M514 0v-120h-212v120h-258v538h223v-390h282v390h223v-538h-258z" />
    <glyph glyph-name="uni0490" unicode="&#x490;" horiz-adv-x="828" 
d="M56 744h524v125h223v-305h-514v-564h-233v744z" />
    <glyph glyph-name="uni0491" unicode="&#x491;" horiz-adv-x="581" 
d="M44 538h299v120h213v-268h-289v-390h-223v538z" />
    <glyph glyph-name="uni0492" unicode="&#x492;" horiz-adv-x="828" 
d="M56 744h747v-180h-514v-115h165v-149h-165v-300h-233v300h-58v149h58v295z" />
    <glyph glyph-name="uni0493" unicode="&#x493;" horiz-adv-x="622" 
d="M85 538h512v-148h-289v-82h144v-106h-144v-202h-223v202h-75v106h75v230z" />
    <glyph glyph-name="uni0496" unicode="&#x496;" horiz-adv-x="1513" 
d="M1269 -125v125h-81l-333 330v-330h-233v330l-333 -330h-304l411 403l-391 341h296l321 -289v289h233v-289l321 289h296l-391 -341l227 -223h184v-305h-223z" />
    <glyph glyph-name="uni0497" unicode="&#x497;" horiz-adv-x="1162" 
d="M458 244l-214 -244h-262l268 294l-237 244h247l198 -213v213h223v-213l198 213h247l-237 -244l133 -146h135v-268h-205v120h-57l-214 244v-244h-223v244z" />
    <glyph glyph-name="uni049A" unicode="&#x49a;" horiz-adv-x="1005" 
d="M761 -125v125h-81l-393 351v-351h-233v744h233v-310l381 310h296l-428 -340l248 -224h200v-305h-223z" />
    <glyph glyph-name="uni049B" unicode="&#x49b;" horiz-adv-x="769" 
d="M267 247v-247h-223v538h223v-215l218 215h247l-254 -243l142 -147h144v-268h-205v120h-58z" />
    <glyph glyph-name="uni04A2" unicode="&#x4a2;" horiz-adv-x="1145" 
d="M917 -125v125h-130v293h-500v-293h-233v744h233v-271h500v271h233v-564h120v-305h-223z" />
    <glyph glyph-name="uni04A3" unicode="&#x4a3;" horiz-adv-x="907" 
d="M44 0v538h223v-196h302v196h223v-390h110v-268h-213v120h-120v194h-302v-194h-223z" />
    <glyph glyph-name="uni04AE" unicode="&#x4ae;" horiz-adv-x="968" 
d="M376 288l-398 456h289l231 -274l235 274h263l-387 -456v-288h-233v288z" />
    <glyph glyph-name="uni04AF" unicode="&#x4af;" horiz-adv-x="777" 
d="M505 -188h-223v190l-296 536h240l173 -332l168 332h224l-286 -538v-188z" />
    <glyph glyph-name="uni04B0" unicode="&#x4b0;" horiz-adv-x="968" 
d="M376 288l-398 456h289l231 -274l235 274h263l-387 -456h191v-160h-191v-128h-233v128h-197v160h197z" />
    <glyph glyph-name="uni04B1" unicode="&#x4b1;" horiz-adv-x="777" 
d="M505 -188h-223v85h-171v103h171v2l-296 536h240l173 -332l168 332h224l-286 -538h171v-103h-171v-85z" />
    <glyph glyph-name="uni04B2" unicode="&#x4b2;" horiz-adv-x="1042" 
d="M798 -125v125h-67l-228 231l-226 -231h-287l370 376l-362 368h312l210 -218l210 218h286l-357 -363l192 -201h170v-177l3 -3h-3v-125h-223z" />
    <glyph glyph-name="uni04B3" unicode="&#x4b3;" horiz-adv-x="804" 
d="M-11 0l281 273l-272 265h263l141 -141l141 141h250l-270 -261l130 -129h146v-145l3 -3h-3v-120h-205v120h-44l-158 154l-155 -154h-248z" />
    <glyph glyph-name="uni04BA" unicode="&#x4ba;" horiz-adv-x="912" 
d="M287.038 488.016q44.9971 8.99902 99.9941 14.999q54.9961 6 127.992 6q91.9941 0 162.99 -12.999q70.9951 -13 119.992 -42.998t73.9951 -80.4951q24.999 -50.4971 24.999 -125.492v-246.985h-232.985v190.989q0 43.9971 -13.5 70.9951q-13.499 26.998 -39.9971 41.998
q-26.499 14.999 -65.4961 19.998q-38.998 5 -88.9951 5q-36.9971 0 -81.4941 -3q-44.498 -3 -87.4951 -13.999v-311.981h-232.985v743.955h232.985v-255.984z" />
    <glyph glyph-name="uni04BB" unicode="&#x4bb;" horiz-adv-x="843" 
d="M47 744h223v-296q9 9 29 26t52.5 34t78 29.5t105.5 12.5h7q70 0 119.5 -18t81 -48t46.5 -67.5t15 -76.5v-340h-225v266q0 62 -35 98t-109 36q-75 0 -120 -40t-45 -106v-254h-223v744z" />
    <glyph glyph-name="uni04C0" unicode="&#x4c0;" horiz-adv-x="341" 
d="M290 0h-233v744h233v-744z" />
    <glyph glyph-name="uni04CF" unicode="&#x4cf;" horiz-adv-x="311" 
d="M270 0h-223v744h223v-744z" />
    <glyph glyph-name="uni04D8" unicode="&#x4d8;" horiz-adv-x="1086" 
d="M1062 360q0 -33 -7 -73.5t-26.5 -82t-54 -80.5t-90 -69.5t-134 -49t-186.5 -18.5h-41q-106 0 -184.5 19t-134 51.5t-90.5 74t-55 87t-27.5 91.5t-7.5 86v49h788q-7 29 -24 53t-48.5 41.5t-79.5 27.5t-116 10q-89 0 -141.5 -9.5t-81 -23t-38 -28.5t-11.5 -26h-247v11
q0 22 7 49.5t26 55.5t54 55.5t90 48.5t134 34t187 13h41q110 0 189.5 -18t135 -47.5t89.5 -68t52.5 -79t25 -81t6.5 -74.5v-29zM289 287q10 -29 29 -51.5t49 -37.5t73 -22.5t102 -7.5q121 0 182 30t81 89h-516z" />
    <glyph glyph-name="uni04D9" unicode="&#x4d9;" horiz-adv-x="845" 
d="M421.025 110.026q83.9951 0 124.993 23.998q40.9971 23.999 53.9961 66.9961h-359.978q10.999 -42.9971 52.9961 -66.9961q41.998 -23.998 126.993 -23.998h0.999023zM18.0508 349.012q0 26.998 12.499 62.4961t51.4971 66.9961q38.9971 31.498 111.993 52.9961
q72.9951 21.499 192.988 21.499h56.9961q107.993 0 180.489 -22.999q72.4951 -22.998 116.492 -61.4961q43.998 -38.4971 62.9971 -87.9941q18.998 -49.4971 18.998 -102.494v-21.998q0 -51.9971 -17.499 -100.494q-17.498 -48.4971 -59.9961 -86.4951
q-42.4971 -37.9971 -114.493 -60.9961q-71.9951 -22.998 -180.988 -22.998h-60.9971q-117.992 0 -191.488 26.998q-73.4951 26.998 -113.992 68.9961q-40.498 41.9971 -54.4971 93.4941t-13.999 100.493v36.998h588.964q-9.99902 46.9971 -53.9971 75.9951
q-43.9971 28.999 -135.991 28.999h-1q-54.9971 0 -88.9941 -9q-33.998 -8.99902 -52.9971 -20.499q-18.999 -11.499 -25.499 -22.998q-6.49902 -11.499 -7.49902 -16.499h-219.986v1z" />
    <glyph glyph-name="uni04E8" unicode="&#x4e8;" horiz-adv-x="1138" 
d="M591 757q117 0 201 -18t142.5 -48t93.5 -68.5t54.5 -79t25.5 -81t6 -73.5v-30q0 -33 -6 -73t-25 -81.5t-54.5 -80.5t-93.5 -69.5t-142.5 -49t-201.5 -18.5h-43q-118 0 -202.5 18.5t-142.5 49t-93.5 69.5t-54.5 80.5t-25 81.5t-6 73v30q0 33 6 73.5t25 81t54.5 79
t93.5 68.5t142.5 48t202.5 18h43zM569 577q-70 0 -120 -10t-84 -27.5t-54 -40t-30 -46.5h576q-11 24 -31 46.5t-54.5 40t-84 27.5t-118.5 10zM569 168q68 0 117.5 10.5t83.5 28t54 40t31 47.5h-572q11 -25 31.5 -47.5t54.5 -40t83 -28t117 -10.5z" />
    <glyph glyph-name="uni04E9" unicode="&#x4e9;" horiz-adv-x="880" 
d="M409 -15q-117 0 -192 26t-118.5 66.5t-60 89.5t-16.5 96v18q0 46 16.5 94.5t59.5 88t118 64.5t192 25h71q123 0 198.5 -25.5t117 -65t55.5 -87.5t14 -94v-18q0 -47 -13.5 -96t-54.5 -89.5t-116.5 -66.5t-200.5 -26h-70zM444 130q57 0 94.5 13t59.5 33q20 18 29 40h-366
q9 -22 29 -40q22 -20 59.5 -33t94.5 -13zM598 367q-22 19 -59.5 31t-93.5 12h-1q-57 0 -94.5 -11.5t-59.5 -31.5q-19 -17 -29 -37h365q-9 20 -28 37z" />
    <glyph glyph-name="Wgrave" unicode="&#x1e80;" horiz-adv-x="1423" 
d="M294 0l-306 744h254l192 -512l166 512h248l170 -497l188 497h229l-301 -744h-235l-179 498l-169 -498h-257zM830 796h-225l-105 150h240z" />
    <glyph glyph-name="wgrave" unicode="&#x1e81;" horiz-adv-x="1142" 
d="M213 0l-223 538h232l123 -344l121 344h234l125 -344l119 344h208l-208 -538h-236l-132 356l-132 -356h-231zM470 590l-107 154h232l90 -154h-215z" />
    <glyph glyph-name="Wacute" unicode="&#x1e82;" horiz-adv-x="1423" 
d="M294 0l-306 744h254l192 -512l166 512h248l170 -497l188 497h229l-301 -744h-235l-179 498l-169 -498h-257zM707 946h240l-105 -150h-225z" />
    <glyph glyph-name="wacute" unicode="&#x1e83;" horiz-adv-x="1142" 
d="M213 0l-223 538h232l123 -344l121 344h234l125 -344l119 344h208l-208 -538h-236l-132 356l-132 -356h-231zM572 744h230l-107 -154h-213z" />
    <glyph glyph-name="Wdieresis" unicode="&#x1e84;" horiz-adv-x="1423" 
d="M294 0l-306 744h254l192 -512l166 512h248l170 -497l188 497h229l-301 -744h-235l-179 498l-169 -498h-257zM970 796h-222v150h222v-150zM696 796h-222v150h222v-150z" />
    <glyph glyph-name="wdieresis" unicode="&#x1e85;" horiz-adv-x="1142" 
d="M213 0l-223 538h232l123 -344l121 344h234l125 -344l119 344h208l-208 -538h-236l-132 356l-132 -356h-231zM824 590h-216v154h216v-154zM558 590h-215v154h215v-154z" />
    <glyph glyph-name="Ygrave" unicode="&#x1ef2;" horiz-adv-x="974" 
d="M376 288l-398 456h289l231 -274l235 274h263l-387 -456v-288h-233v288zM618 796h-225l-105 150h240z" />
    <glyph glyph-name="ygrave" unicode="&#x1ef3;" horiz-adv-x="783" 
d="M119 -28h126q16 0 21 4.5t5 12.5t-6.5 21t-18.5 36l-257 492h240l173 -364l168 364h224l-282 -574q-19 -38 -38.5 -66.5t-43 -47.5t-52 -28.5t-64.5 -9.5h-195v160zM298 590l-107 154h232l90 -154h-215z" />
    <glyph glyph-name="uni2009" unicode="&#x2009;" horiz-adv-x="30" 
 />
    <glyph glyph-name="endash" unicode="&#x2013;" horiz-adv-x="891" 
d="M853 364v-130h-815v130h815z" />
    <glyph glyph-name="emdash" unicode="&#x2014;" horiz-adv-x="1307" 
d="M1269 364v-130h-1231v130h1231z" />
    <glyph glyph-name="quoteleft" unicode="&#x2018;" horiz-adv-x="300" 
d="M202 744q-13 -23 -23 -48.5t-13 -45.5h100v-152h-232v125q0 29 14.5 63.5t31.5 57.5h122z" />
    <glyph glyph-name="quoteright" unicode="&#x2019;" horiz-adv-x="300" 
d="M98 498q13 23 23 48.5t13 45.5h-100v152h232v-125q0 -29 -14.5 -63.5t-31.5 -57.5h-122z" />
    <glyph glyph-name="quotesinglbase" unicode="&#x201a;" horiz-adv-x="300" 
d="M98 -94q13 23 23 48.5t13 45.5h-100v152h232v-125q0 -29 -14.5 -63.5t-31.5 -57.5h-122z" />
    <glyph glyph-name="quotedblleft" unicode="&#x201c;" horiz-adv-x="571" 
d="M202 744q-13 -23 -23 -48.5t-13 -45.5h100v-152h-232v125q0 29 14.5 63.5t31.5 57.5h122zM473 744q-13 -23 -23 -48.5t-13 -45.5h100v-152h-232v125q0 29 14.5 63.5t31.5 57.5h122z" />
    <glyph glyph-name="quotedblright" unicode="&#x201d;" horiz-adv-x="571" 
d="M98 498q13 23 23 48.5t13 45.5h-100v152h232v-125q0 -29 -14.5 -63.5t-31.5 -57.5h-122zM369 498q13 23 23 48.5t13 45.5h-100v152h232v-125q0 -29 -14.5 -63.5t-31.5 -57.5h-122z" />
    <glyph glyph-name="quotedblbase" unicode="&#x201e;" horiz-adv-x="571" 
d="M369 -94q13 23 23 48.5t13 45.5h-100v152h232v-125q0 -29 -14.5 -63.5t-31.5 -57.5h-122zM98 -94q13 23 23 48.5t13 45.5h-100v152h232v-125q0 -29 -14.5 -63.5t-31.5 -57.5h-122z" />
    <glyph glyph-name="dagger" unicode="&#x2020;" horiz-adv-x="578" 
d="M183 427h-156v155h156v162h211v-162h157v-155h-157v-427h-211v427z" />
    <glyph glyph-name="daggerdbl" unicode="&#x2021;" horiz-adv-x="586" 
d="M33 150v152h157v144h-157v152h157v146h206v-146h157v-152h-157v-144h157v-152h-157v-150h-206v150h-157z" />
    <glyph glyph-name="bullet" unicode="&#x2022;" horiz-adv-x="430" 
d="M400 330q0 -40 -14 -73t-38.5 -57t-58.5 -37t-74 -13t-74 13t-58.5 37t-38.5 57t-14 73t14 73t38.5 56.5t58.5 36.5t74 13t74 -13t58.5 -36.5t38.5 -56.5t14 -73z" />
    <glyph glyph-name="ellipsis" unicode="&#x2026;" horiz-adv-x="909" 
d="M276 0h-241v175h241v-175zM575 0h-241v175h241v-175zM874 0h-241v175h241v-175z" />
    <glyph glyph-name="perthousand" unicode="&#x2030;" horiz-adv-x="2031" 
d="M310 321q-91 0 -146.5 22.5t-85.5 54.5t-40 68.5t-10 63.5v17q0 28 10 63.5t40 67t85.5 53.5t146.5 22h24q91 0 146 -22t85 -53.5t40 -67t10 -63.5v-17q0 -18 -4 -40.5t-15 -46t-30.5 -45.5t-50.5 -39t-75.5 -27.5t-105.5 -10.5h-24zM1204 744l-802 -744h-197l801 744
h198zM321 444q37 0 62.5 8t41.5 21t22.5 29t6.5 32v8q0 18 -6.5 34t-22 28t-41 19t-63.5 7t-63 -7t-40 -19t-21.5 -28t-6.5 -34v-6q0 -17 6.5 -33.5t22 -29.5t40.5 -21t62 -8zM1076 -8q-90 0 -145.5 22.5t-86 55t-40.5 69t-10 63.5v17q0 28 10 63.5t40.5 67t86 53.5
t145.5 22h25q90 0 145.5 -22t85.5 -53.5t40 -67t10 -63.5v-17q0 -27 -10 -63.5t-40 -69t-85 -55t-146 -22.5h-25zM1698 -8q-90 0 -145.5 22.5t-86 55t-40.5 69t-10 63.5v17q0 28 10 63.5t40.5 67t86 53.5t145.5 22h25q60 0 104.5 -10t75.5 -27t50.5 -38.5t30.5 -44.5
t15 -45.5t4 -40.5v-17q0 -27 -9.5 -63.5t-39.5 -69t-85 -55t-146 -22.5h-25zM1088 116q37 0 62.5 8t41.5 21t22.5 29t6.5 32v8q0 17 -6.5 33t-22 28t-41 19.5t-63.5 7.5t-63.5 -7.5t-40.5 -19.5t-21.5 -28t-6.5 -33v-6q0 -17 6.5 -33.5t22 -29.5t40.5 -21t63 -8zM1710 116
q37 0 62.5 8t41 21t22.5 29t7 32v8q0 17 -6.5 33t-22.5 28t-41.5 19.5t-62.5 7.5q-38 0 -63.5 -7.5t-40.5 -19.5t-21.5 -28t-6.5 -33v-6q0 -17 6.5 -33.5t22 -29.5t40.5 -21t63 -8z" />
    <glyph glyph-name="minute" unicode="&#x2032;" horiz-adv-x="256" 
d="M196 497h-179l43 247h179z" />
    <glyph glyph-name="second" unicode="&#x2033;" horiz-adv-x="476" 
d="M194 497h-177l43 247h177zM239 497l43 247h177l-43 -247h-177z" />
    <glyph glyph-name="guilsinglleft" unicode="&#x2039;" horiz-adv-x="336" 
d="M147 117l-133 170l135 168h171l-132 -168l127 -170h-168z" />
    <glyph glyph-name="guilsinglright" unicode="&#x203a;" horiz-adv-x="336" 
d="M21 117l127 170l-132 168h171l135 -168l-132 -170h-169z" />
    <glyph glyph-name="fraction" unicode="&#x2044;" horiz-adv-x="954" 
d="M951 744l-781 -744h-167l776 744h172z" />
    <glyph glyph-name="uni2070" unicode="&#x2070;" horiz-adv-x="593" 
d="M309 750q87 0 139 -19t80 -46.5t37 -59t9 -56.5v-15q0 -24 -9 -56t-36.5 -60t-80 -47.5t-139.5 -19.5h-23q-87 0 -140 19.5t-81 47.5t-37 60t-9 56v15q0 25 9 56.5t37 59t81 46.5t140 19h23zM419 566q0 13 -5.5 27.5t-19 26t-37 19t-60.5 7.5t-61 -7.5t-37.5 -19
t-18.5 -26t-5 -27.5v-6q0 -14 5.5 -28.5t19 -27t37 -20.5t60.5 -8q36 0 60 8t37.5 20t19 27t5.5 29v6z" />
    <glyph glyph-name="uni2074" unicode="&#x2074;" horiz-adv-x="522" 
d="M14 528q19 16 39 34q17 15 39 34.5t45 39.5q54 48 122 109h169v-201h79v-99h-79v-69h-149v69h-265v83zM279 544v112l-128 -112h128z" />
    <glyph glyph-name="uni2075" unicode="&#x2075;" horiz-adv-x="510" 
d="M240 371q-76 0 -119.5 14t-65 33t-27 39.5t-5.5 33.5v3h156q0 -2 2.5 -7t11 -10t25 -9t45.5 -4q25 0 41 3.5t24.5 9t11.5 12.5t3 15v3q0 7 -3 14t-12 12.5t-24.5 9t-40.5 3.5q-29 0 -45.5 -4t-25 -9t-11 -10t-2.5 -6h-148v227h438v-91h-290v-57q3 2 11 7t23.5 10.5
t38 9.5t54.5 4h5q56 0 92 -9.5t56.5 -25.5t28 -37.5t7.5 -45.5v-3q0 -24 -8 -48t-30.5 -43.5t-63.5 -31.5t-107 -12h-46z" />
    <glyph glyph-name="uni2076" unicode="&#x2076;" horiz-adv-x="550" 
d="M259 371q-79 0 -126.5 18.5t-72.5 46t-33 60t-8 59.5v12q0 26 8 58t33 59.5t71.5 46.5t123.5 19h31q71 0 116.5 -11.5t71.5 -28.5t36 -37.5t10 -38.5v-3h-150q0 2 -3 6.5t-12 9.5t-27 8.5t-49 3.5q-35 0 -56 -8t-32.5 -20t-15.5 -25t-4 -23v-2q4 3 13.5 8.5t26.5 11.5
t43.5 10t65.5 4h7q66 0 107 -8.5t64 -23.5t31 -34.5t8 -41.5v-4q0 -21 -7.5 -44.5t-32.5 -43t-73 -32t-129 -12.5h-36zM184 498q0 -6 3.5 -12t14.5 -11t30 -8t51 -3t51.5 3t29.5 7.5t13 11t3 12.5v3q0 6 -3.5 12.5t-14 11t-29.5 7.5t-50 3q-32 0 -51 -3t-30 -7.5
t-14.5 -10.5t-3.5 -13v-3z" />
    <glyph glyph-name="uni2077" unicode="&#x2077;" horiz-adv-x="510" 
d="M496 744v-89q-10 -11 -34.5 -38.5t-54.5 -65.5q-21 -27 -33 -49t-17.5 -41.5t-7 -38.5t-1.5 -41v-5h-164v38q0 22 4.5 40t16 36t29.5 38.5t45 46.5q36 35 52.5 51.5t16.5 23.5h-186v-75h-145v169h479z" />
    <glyph glyph-name="uni2078" unicode="&#x2078;" horiz-adv-x="528" 
d="M507 644q0 -29 -25 -48.5t-57 -25.5q39 -5 65 -27t26 -54v-7q0 -15 -7 -34t-32 -36.5t-72.5 -29t-128.5 -11.5h-24q-82 0 -129.5 11.5t-72 29t-31.5 36.5t-7 34v7q0 31 26 53t65 28q-33 6 -57.5 25.5t-24.5 48.5v6q0 13 6 30.5t29 32.5t69.5 25.5t126.5 10.5h24
q80 0 126 -10.5t69.5 -25.5t29.5 -32.5t6 -30.5v-6zM351 639q0 5 -2.5 10t-11.5 8.5t-26.5 6t-47.5 2.5t-47 -2.5t-26 -6t-11.5 -8.5t-2.5 -10v-1q0 -5 2.5 -10t11.5 -9t26.5 -6.5t46.5 -2.5q30 0 47.5 2.5t26.5 6.5t11.5 9t2.5 10v1zM362 495q0 6 -3.5 11t-14 9.5t-30 7
t-51.5 2.5t-51 -2.5t-29.5 -7t-13.5 -9.5t-3 -11v-2q0 -6 3.5 -11.5t13.5 -10t29 -7t51 -2.5t51.5 2.5t30 7t14 10t3.5 11.5v2z" />
    <glyph glyph-name="uni2079" unicode="&#x2079;" horiz-adv-x="550" 
d="M365 622q0 6 -3.5 12.5t-14 11.5t-30 8t-50.5 3q-32 0 -51.5 -3t-30 -7.5t-14 -11t-3.5 -12.5v-2q0 -6 4 -12.5t14.5 -11.5t30 -8t50.5 -3t50.5 3t30 7.5t14 10.5t3.5 13v2zM261 371q-73 0 -118.5 12t-70.5 30t-33.5 38.5t-8.5 36.5v2h150q0 -2 2.5 -6.5t11.5 -9t27 -8.5
t50 -4q34 0 55 8t32 19.5t15 24.5t4 23v2q-4 -2 -13 -7.5t-25.5 -11t-42 -10t-63.5 -4.5h-6q-66 0 -108 9.5t-65 25t-31.5 36t-8.5 42.5v4q0 21 6.5 43t31 41t72 31t128.5 12h35q79 0 127 -18t74 -45.5t34 -59.5t8 -59v-12q0 -26 -8 -58.5t-33.5 -60.5t-72.5 -47t-124 -19
h-31z" />
    <glyph glyph-name="uni2080" unicode="&#x2080;" horiz-adv-x="593" 
d="M309 280q87 0 139 -19t80 -46.5t37 -59t9 -56.5v-15q0 -24 -9 -56t-36.5 -60t-80 -47.5t-139.5 -19.5h-23q-87 0 -140 19.5t-81 47.5t-37 60t-9 56v15q0 25 9 56.5t37 59t81 46.5t140 19h23zM419 96q0 13 -5.5 27.5t-19 26t-37 19t-60.5 7.5t-61 -7.5t-37.5 -19
t-18.5 -26t-5 -27.5v-6q0 -14 5.5 -28.5t19 -27t37 -20.5t60.5 -8q36 0 60 8t37.5 20t19 27t5.5 29v6z" />
    <glyph glyph-name="uni2081" unicode="&#x2081;" horiz-adv-x="294" 
d="M15 117v82q51 3 79.5 22.5t42.5 52.5h120v-368h-147v211h-95z" />
    <glyph glyph-name="uni2082" unicode="&#x2082;" horiz-adv-x="514" 
d="M14 -94v43q0 25 7 51t31.5 50t71.5 44t127 35q28 5 45.5 9.5t27 9t12.5 8.5t3 9q0 4 -2.5 8.5t-10.5 7.5t-23.5 5t-41.5 2q-31 0 -48.5 -5t-26.5 -12t-12 -15.5t-3 -14.5h-151v4q0 18 6.5 41t29.5 44t68.5 35.5t122.5 14.5h19q73 0 117.5 -9.5t69 -25.5t33 -37.5
t8.5 -45.5v-4q0 -29 -14 -47.5t-41 -31t-66.5 -20.5t-90.5 -16q-54 -8 -90.5 -14.5t-44.5 -18.5h347v-104h-480z" />
    <glyph glyph-name="uni2083" unicode="&#x2083;" horiz-adv-x="527" 
d="M241 -99q-80 0 -126.5 16.5t-70 39t-29.5 46t-6 38.5v5h156q0 -4 2 -11.5t11.5 -15t28.5 -13.5t53 -6q33 0 52.5 3t29 7.5t12.5 10t3 10.5v2q0 10 -9 16t-36 6h-122v88h116q27 0 35.5 5.5t8.5 13.5v2q0 4 -3 8.5t-12.5 7.5t-28.5 5t-51 2q-34 0 -52.5 -4.5t-27.5 -10.5
t-10.5 -12t-1.5 -8h-149v5q0 12 5.5 33t27.5 41t67 34.5t123 14.5h31q81 0 128 -9t71 -23.5t31 -31.5t7 -32v-3q0 -23 -19 -40t-51 -22q36 -6 59.5 -28t23.5 -59v-4q0 -23 -9.5 -46t-36.5 -41t-74.5 -29t-123.5 -11h-33z" />
    <glyph glyph-name="uni2084" unicode="&#x2084;" horiz-adv-x="522" 
d="M14 58q19 16 39 34q17 15 39 34.5t45 39.5q54 48 122 109h169v-201h79v-99h-79v-69h-149v69h-265v83zM279 74v112l-128 -112h128z" />
    <glyph glyph-name="uni2085" unicode="&#x2085;" horiz-adv-x="510" 
d="M240 -99q-76 0 -119.5 14t-65 33t-27 39.5t-5.5 33.5v3h156q0 -2 2.5 -7t11 -10t25 -9t45.5 -4q25 0 41 3.5t24.5 9t11.5 12.5t3 15v3q0 7 -3 14t-12 12.5t-24.5 9t-40.5 3.5q-29 0 -45.5 -4t-25 -9t-11 -10t-2.5 -6h-148v227h438v-91h-290v-57q3 2 11 7t23.5 10.5
t38 9.5t54.5 4h5q56 0 92 -9.5t56.5 -25.5t28 -37.5t7.5 -45.5v-3q0 -24 -8 -48t-30.5 -43.5t-63.5 -31.5t-107 -12h-46z" />
    <glyph glyph-name="uni2086" unicode="&#x2086;" horiz-adv-x="550" 
d="M259 -99q-79 0 -126.5 18.5t-72.5 46t-33 60t-8 59.5v12q0 26 8 58t33 59.5t71.5 46.5t123.5 19h31q71 0 116.5 -11.5t71.5 -28.5t36 -37.5t10 -38.5v-3h-150q0 2 -3 6.5t-12 9.5t-27 8.5t-49 3.5q-35 0 -56 -8t-32.5 -20t-15.5 -25t-4 -23v-2q4 3 13.5 8.5t26.5 11.5
t43.5 10t65.5 4h7q66 0 107 -8.5t64 -23.5t31 -34.5t8 -41.5v-4q0 -21 -7.5 -44.5t-32.5 -43t-73 -32t-129 -12.5h-36zM184 28q0 -6 3.5 -12t14.5 -11t30 -8t51 -3t51.5 3t29.5 7.5t13 11t3 12.5v3q0 6 -3.5 12.5t-14 11t-29.5 7.5t-50 3q-32 0 -51 -3t-30 -7.5t-14.5 -10.5
t-3.5 -13v-3z" />
    <glyph glyph-name="uni2087" unicode="&#x2087;" horiz-adv-x="510" 
d="M496 274v-89q-10 -11 -34.5 -38.5t-54.5 -65.5q-21 -27 -33 -49t-17.5 -41.5t-7 -38.5t-1.5 -41v-5h-164v38q0 22 4.5 40t16 36t29.5 38.5t45 46.5q36 35 52.5 51.5t16.5 23.5h-186v-75h-145v169h479z" />
    <glyph glyph-name="uni2088" unicode="&#x2088;" horiz-adv-x="528" 
d="M507 174q0 -29 -25 -48.5t-57 -25.5q39 -5 65 -27t26 -54v-7q0 -15 -7 -34t-32 -36.5t-72.5 -29t-128.5 -11.5h-24q-82 0 -129.5 11.5t-72 29t-31.5 36.5t-7 34v7q0 31 26 53t65 28q-33 6 -57.5 25.5t-24.5 48.5v6q0 13 6 30.5t29 32.5t69.5 25.5t126.5 10.5h24
q80 0 126 -10.5t69.5 -25.5t29.5 -32.5t6 -30.5v-6zM351 169q0 5 -2.5 10t-11.5 8.5t-26.5 6t-47.5 2.5t-47 -2.5t-26 -6t-11.5 -8.5t-2.5 -10v-1q0 -5 2.5 -10t11.5 -9t26.5 -6.5t46.5 -2.5q30 0 47.5 2.5t26.5 6.5t11.5 9t2.5 10v1zM362 25q0 6 -3.5 11t-14 9.5t-30 7
t-51.5 2.5t-51 -2.5t-29.5 -7t-13.5 -9.5t-3 -11v-2q0 -6 3.5 -11.5t13.5 -10t29 -7t51 -2.5t51.5 2.5t30 7t14 10t3.5 11.5v2z" />
    <glyph glyph-name="uni2089" unicode="&#x2089;" horiz-adv-x="550" 
d="M365 152q0 6 -3.5 12.5t-14 11.5t-30 8t-50.5 3q-32 0 -51.5 -3t-30 -7.5t-14 -11t-3.5 -12.5v-2q0 -6 4 -12.5t14.5 -11.5t30 -8t50.5 -3t50.5 3t30 7.5t14 10.5t3.5 13v2zM261 -99q-73 0 -118.5 12t-70.5 30t-33.5 38.5t-8.5 36.5v2h150q0 -2 2.5 -6.5t11.5 -9t27 -8.5
t50 -4q34 0 55 8t32 19.5t15 24.5t4 23v2q-4 -2 -13 -7.5t-25.5 -11t-42 -10t-63.5 -4.5h-6q-66 0 -108 9.5t-65 25t-31.5 36t-8.5 42.5v4q0 21 6.5 43t31 41t72 31t128.5 12h35q79 0 127 -18t74 -45.5t34 -59.5t8 -59v-12q0 -26 -8 -58.5t-33.5 -60.5t-72.5 -47t-124 -19
h-31z" />
    <glyph glyph-name="Euro" unicode="&#x20ac;" horiz-adv-x="1128" 
d="M586 -13q-114 0 -195.5 24.5t-136.5 64t-86 88.5t-45 98h-112v87h98v55h-98v88h113q14 48 44.5 95.5t85 85t136 61t196.5 23.5h43q99 0 173 -15.5t126.5 -41t86.5 -57t53.5 -64t27 -63t7.5 -52.5v-11h-248q-1 5 -5.5 16t-14.5 25t-27.5 29t-45 27t-66 20t-91.5 8
q-95 0 -148 -24t-78 -62h307v-88h-333q-1 -5 -1 -10v-10v-12v-11.5t1 -11.5h333v-87h-304q26 -41 79.5 -68t145.5 -27q80 0 128.5 18t74.5 41.5t35 45t11 28.5h248v-11q0 -24 -7.5 -55.5t-27 -65t-53.5 -66t-86.5 -58t-126.5 -41.5t-174 -16h-43v0z" />
    <glyph glyph-name="uni20B4" unicode="&#x20b4;" horiz-adv-x="1049" 
d="M1044 413h-1039v88h728q10 15 10 35v1q0 12 -7.5 23.5t-29 20.5t-59 14.5t-97.5 5.5h-16q-73 0 -115 -5t-64 -13.5t-28.5 -19t-7.5 -21.5h-242v10q0 42 18 79.5t66 65t132 44t216 16.5h69q123 0 201.5 -18t123.5 -46t62.5 -62t17.5 -66v-9q0 -31 -12 -55h73v-88zM993 223
q0 -24 -5 -51.5t-21 -53.5t-45.5 -50t-77.5 -42t-118.5 -28.5t-167.5 -10.5h-69q-140 0 -226 22t-132.5 54.5t-62 70t-15.5 67.5v14q0 27 11 55h-59v88h1039v-88h-735q-8 -11 -10 -22t-2 -22v-1q0 -15 9.5 -29t33.5 -25.5t66.5 -18t108.5 -6.5h14q76 0 119.5 7.5t65.5 20
t28.5 28t7.5 32.5h243v-11z" />
    <glyph glyph-name="uni20B8" unicode="&#x20b8;" horiz-adv-x="926" 
d="M25 744h876v-88h-876v88zM25 601h876v-176h-321v-425h-235v425h-320v176z" />
    <glyph glyph-name="uni20BD" unicode="&#x20bd;" horiz-adv-x="1037" 
d="M1020 492q0 -50 -17 -94.5t-57 -77.5t-106.5 -52.5t-166.5 -19.5h-325v-55h376v-88h-376v-105h-233v105h-110v88h110v55h-110v88h110v408h558q100 0 167 -18.5t107 -51.5t56.5 -77t16.5 -95v-10zM348 391h321q55 0 81.5 23t26.5 67v3q0 44 -26 67.5t-82 23.5h-321v-184z
" />
    <glyph glyph-name="uni2116" unicode="&#x2116;" horiz-adv-x="1698" 
d="M1357 321q-91 0 -146.5 22.5t-85.5 54.5t-40 68.5t-10 63.5v17q0 28 10 63.5t40 67t85.5 53.5t146.5 22h24q91 0 146 -22t85 -53.5t40 -67t10 -63.5v-17q0 -18 -4 -40.5t-15 -46t-30.5 -45.5t-50.5 -39t-75.5 -27.5t-105.5 -10.5h-24zM1368 444q37 0 62.5 8t41.5 21
t22.5 29t6.5 32v8q0 18 -6.5 34t-22 28t-41 19t-63.5 7t-63 -7t-40 -19t-21.5 -28t-6.5 -34v-6q0 -17 6.5 -33.5t22 -29.5t40.5 -21t62 -8zM1084 289h579v-108h-579v108zM317 744l475 -468v468h230v-744h-230l-505 493v-493h-230v744h260z" />
    <glyph glyph-name="trademark" unicode="&#x2122;" horiz-adv-x="1106" 
d="M303 636v-250h-147v250h-138v108h423v-108h-138zM483 744h210l88 -189l88 189h201v-358h-131v243l-114 -243h-98l-114 243v-243h-130v358z" />
    <glyph glyph-name="onethird" unicode="&#x2153;" horiz-adv-x="1021" 
d="M15 587v82q51 3 79.5 22.5t42.5 52.5h120v-368h-147v211h-95zM891 744l-781 -744h-167l776 744h172zM735 -5q-80 0 -126.5 16.5t-70 39t-29.5 46t-6 38.5v5h156q0 -4 2 -11.5t11.5 -15t28.5 -13.5t53 -6q33 0 52.5 3t29 7.5t12.5 10t3 10.5v2q0 10 -9 16t-36 6h-122v88
h116q27 0 35.5 5.5t8.5 13.5v2q0 4 -3 8.5t-12.5 7.5t-28.5 5t-51 2q-34 0 -52.5 -4.5t-27.5 -10.5t-10.5 -12t-1.5 -8h-149v5q0 12 5.5 33t27.5 41t67 34.5t123 14.5h31q81 0 128 -9t71 -23.5t31 -31.5t7 -32v-3q0 -23 -19 -40t-51 -22q36 -6 59.5 -28t23.5 -59v-4
q0 -23 -9.5 -46t-36.5 -41t-74.5 -29t-123.5 -11h-33z" />
    <glyph glyph-name="twothirds" unicode="&#x2154;" horiz-adv-x="1247" 
d="M1118 744l-781 -744h-167l776 744h172zM14 376v43q0 25 7 51t31.5 50t71.5 44t127 35q28 5 45.5 9.5t27 9t12.5 8.5t3 9q0 4 -2.5 8.5t-10.5 7.5t-23.5 5t-41.5 2q-31 0 -48.5 -5t-26.5 -12t-12 -15.5t-3 -14.5h-151v4q0 18 6.5 41t29.5 44t68.5 35.5t122.5 14.5h19
q73 0 117.5 -9.5t69 -25.5t33 -37.5t8.5 -45.5v-4q0 -29 -14 -47.5t-41 -31t-66.5 -20.5t-90.5 -16q-54 -8 -90.5 -14.5t-44.5 -18.5h347v-104h-480zM961 -5q-80 0 -126.5 16.5t-70 39t-29.5 46t-6 38.5v5h156q0 -4 2 -11.5t11.5 -15t28.5 -13.5t53 -6q33 0 52.5 3t29 7.5
t12.5 10t3 10.5v2q0 10 -9 16t-36 6h-122v88h116q27 0 35.5 5.5t8.5 13.5v2q0 4 -3 8.5t-12.5 7.5t-28.5 5t-51 2q-34 0 -52.5 -4.5t-27.5 -10.5t-10.5 -12t-1.5 -8h-149v5q0 12 5.5 33t27.5 41t67 34.5t123 14.5h31q81 0 128 -9t71 -23.5t31 -31.5t7 -32v-3q0 -23 -19 -40
t-51 -22q36 -6 59.5 -28t23.5 -59v-4q0 -23 -9.5 -46t-36.5 -41t-74.5 -29t-123.5 -11h-33z" />
    <glyph glyph-name="oneeighth" unicode="&#x215b;" horiz-adv-x="1028" 
d="M891 744l-781 -744h-167l776 744h172zM15 587v82q51 3 79.5 22.5t42.5 52.5h120v-368h-147v211h-95zM1007 268q0 -29 -25 -48.5t-57 -25.5q39 -5 65 -27t26 -54v-7q0 -15 -7 -34t-32 -36.5t-72.5 -29t-128.5 -11.5h-24q-82 0 -129.5 11.5t-72 29t-31.5 36.5t-7 34v7
q0 31 26 53t65 28q-33 6 -57.5 25.5t-24.5 48.5v6q0 13 6 30.5t29 32.5t69.5 25.5t126.5 10.5h24q80 0 126 -10.5t69.5 -25.5t29.5 -32.5t6 -30.5v-6zM851 263q0 5 -2.5 10t-11.5 8.5t-26.5 6t-47.5 2.5t-47 -2.5t-26 -6t-11.5 -8.5t-2.5 -10v-1q0 -5 2.5 -10t11.5 -9
t26.5 -6.5t46.5 -2.5q30 0 47.5 2.5t26.5 6.5t11.5 9t2.5 10v1zM862 119q0 6 -3.5 11t-14 9.5t-30 7t-51.5 2.5t-51 -2.5t-29.5 -7t-13.5 -9.5t-3 -11v-2q0 -6 3.5 -11.5t13.5 -10t29 -7t51 -2.5t51.5 2.5t30 7t14 10t3.5 11.5v2z" />
    <glyph glyph-name="threeeighths" unicode="&#x215c;" horiz-adv-x="1226" 
d="M1088 744l-781 -744h-167l776 744h172zM241 372q-80 0 -126.5 16.5t-70 39t-29.5 46t-6 38.5v5h156q0 -4 2 -11.5t11.5 -15t28.5 -13.5t53 -6q33 0 52.5 3t29 7.5t12.5 10t3 10.5v2q0 10 -9 16t-36 6h-122v88h116q27 0 35.5 5.5t8.5 13.5v2q0 4 -3 8.5t-12.5 7.5t-28.5 5
t-51 2q-34 0 -52.5 -4.5t-27.5 -10.5t-10.5 -12t-1.5 -8h-149v5q0 12 5.5 33t27.5 41t67 34.5t123 14.5h31q81 0 128 -9t71 -23.5t31 -31.5t7 -32v-3q0 -23 -19 -40t-51 -22q36 -6 59.5 -28t23.5 -59v-4q0 -23 -9.5 -46t-36.5 -41t-74.5 -29t-123.5 -11h-33zM1205 268
q0 -29 -25 -48.5t-57 -25.5q39 -5 65 -27t26 -54v-7q0 -15 -7 -34t-32 -36.5t-72.5 -29t-128.5 -11.5h-24q-82 0 -129.5 11.5t-72 29t-31.5 36.5t-7 34v7q0 31 26 53t65 28q-33 6 -57.5 25.5t-24.5 48.5v6q0 13 6 30.5t29 32.5t69.5 25.5t126.5 10.5h24q80 0 126 -10.5
t69.5 -25.5t29.5 -32.5t6 -30.5v-6zM1049 263q0 5 -2.5 10t-11.5 8.5t-26.5 6t-47.5 2.5t-47 -2.5t-26 -6t-11.5 -8.5t-2.5 -10v-1q0 -5 2.5 -10t11.5 -9t26.5 -6.5t46.5 -2.5q30 0 47.5 2.5t26.5 6.5t11.5 9t2.5 10v1zM1060 119q0 6 -3.5 11t-14 9.5t-30 7t-51.5 2.5
t-51 -2.5t-29.5 -7t-13.5 -9.5t-3 -11v-2q0 -6 3.5 -11.5t13.5 -10t29 -7t51 -2.5t51.5 2.5t30 7t14 10t3.5 11.5v2z" />
    <glyph glyph-name="fiveeighths" unicode="&#x215d;" horiz-adv-x="1199" 
d="M1061 744l-781 -744h-167l776 744h172zM240 371q-76 0 -119.5 14t-65 33t-27 39.5t-5.5 33.5v3h156q0 -2 2.5 -7t11 -10t25 -9t45.5 -4q25 0 41 3.5t24.5 9t11.5 12.5t3 15v3q0 7 -3 14t-12 12.5t-24.5 9t-40.5 3.5q-29 0 -45.5 -4t-25 -9t-11 -10t-2.5 -6h-148v227h438
v-91h-290v-57q3 2 11 7t23.5 10.5t38 9.5t54.5 4h5q56 0 92 -9.5t56.5 -25.5t28 -37.5t7.5 -45.5v-3q0 -24 -8 -48t-30.5 -43.5t-63.5 -31.5t-107 -12h-46zM1178 268q0 -29 -25 -48.5t-57 -25.5q39 -5 65 -27t26 -54v-7q0 -15 -7 -34t-32 -36.5t-72.5 -29t-128.5 -11.5h-24
q-82 0 -129.5 11.5t-72 29t-31.5 36.5t-7 34v7q0 31 26 53t65 28q-33 6 -57.5 25.5t-24.5 48.5v6q0 13 6 30.5t29 32.5t69.5 25.5t126.5 10.5h24q80 0 126 -10.5t69.5 -25.5t29.5 -32.5t6 -30.5v-6zM1022 263q0 5 -2.5 10t-11.5 8.5t-26.5 6t-47.5 2.5t-47 -2.5t-26 -6
t-11.5 -8.5t-2.5 -10v-1q0 -5 2.5 -10t11.5 -9t26.5 -6.5t46.5 -2.5q30 0 47.5 2.5t26.5 6.5t11.5 9t2.5 10v1zM1033 119q0 6 -3.5 11t-14 9.5t-30 7t-51.5 2.5t-51 -2.5t-29.5 -7t-13.5 -9.5t-3 -11v-2q0 -6 3.5 -11.5t13.5 -10t29 -7t51 -2.5t51.5 2.5t30 7t14 10
t3.5 11.5v2z" />
    <glyph glyph-name="seveneighths" unicode="&#x215e;" horiz-adv-x="1127" 
d="M989 744l-781 -744h-167l776 744h172zM496 744v-89q-10 -11 -34.5 -38.5t-54.5 -65.5q-21 -27 -33 -49t-17.5 -41.5t-7 -38.5t-1.5 -41v-5h-164v38q0 22 4.5 40t16 36t29.5 38.5t45 46.5q36 35 52.5 51.5t16.5 23.5h-186v-75h-145v169h479zM1106 268q0 -29 -25 -48.5
t-57 -25.5q39 -5 65 -27t26 -54v-7q0 -15 -7 -34t-32 -36.5t-72.5 -29t-128.5 -11.5h-24q-82 0 -129.5 11.5t-72 29t-31.5 36.5t-7 34v7q0 31 26 53t65 28q-33 6 -57.5 25.5t-24.5 48.5v6q0 13 6 30.5t29 32.5t69.5 25.5t126.5 10.5h24q80 0 126 -10.5t69.5 -25.5
t29.5 -32.5t6 -30.5v-6zM950 263q0 5 -2.5 10t-11.5 8.5t-26.5 6t-47.5 2.5t-47 -2.5t-26 -6t-11.5 -8.5t-2.5 -10v-1q0 -5 2.5 -10t11.5 -9t26.5 -6.5t46.5 -2.5q30 0 47.5 2.5t26.5 6.5t11.5 9t2.5 10v1zM961 119q0 6 -3.5 11t-14 9.5t-30 7t-51.5 2.5t-51 -2.5t-29.5 -7
t-13.5 -9.5t-3 -11v-2q0 -6 3.5 -11.5t13.5 -10t29 -7t51 -2.5t51.5 2.5t30 7t14 10t3.5 11.5v2z" />
    <glyph glyph-name="minus" unicode="&#x2212;" horiz-adv-x="582" 
d="M544 378v-140h-506v140h506z" />
    <glyph glyph-name="uni24C5" unicode="&#x24c5;" horiz-adv-x="1165" 
d="M1138 359q0 -72 -24 -139t-85 -118.5t-165.5 -82t-265.5 -30.5h-31q-161 0 -265.5 30.5t-165.5 82t-85 118.5t-24 139v28q0 70 24 136.5t85 118t165.5 82.5t266.5 31h29q162 0 266.5 -31t165.5 -82.5t85 -118t24 -136.5v-28zM595 80q122 0 203 24t129 64t67.5 91.5
t19.5 106.5v12q0 61 -19.5 113.5t-67.5 90.5t-128.5 60t-203.5 22h-25q-123 0 -203.5 -22t-128.5 -60t-67.5 -90.5t-19.5 -113.5v-12q0 -55 19.5 -106.5t67.5 -91.5t129 -64t203 -24h25zM506 262v-104h-175v432h332q74 0 120 -13t72 -34.5t35 -50.5t9 -62v-8q0 -32 -9.5 -61
t-35.5 -51t-72 -35t-119 -13h-157zM506 374h152q68 0 68 49v4q0 48 -68 48h-152v-101z" />
    <glyph glyph-name="zero.den" unicode="&#xe402;" horiz-adv-x="593" 
d="M309 374q87 0 139 -19t80 -46.5t37 -59t9 -56.5v-15q0 -24 -9 -56t-36.5 -60t-80 -47.5t-139.5 -19.5h-23q-87 0 -140 19.5t-81 47.5t-37 60t-9 56v15q0 25 9 56.5t37 59t81 46.5t140 19h23zM419 190q0 13 -5.5 27.5t-19 26t-37 19t-60.5 7.5t-61 -7.5t-37.5 -19
t-18.5 -26t-5 -27.5v-6q0 -14 5.5 -28.5t19 -27t37 -20.5t60.5 -8q36 0 60 8t37.5 20t19 27t5.5 29v6z" />
    <glyph glyph-name="one.den" unicode="&#xe403;" horiz-adv-x="294" 
d="M15 211v82q51 3 79.5 22.5t42.5 52.5h120v-368h-147v211h-95z" />
    <glyph glyph-name="two.den" unicode="&#xe404;" horiz-adv-x="514" 
d="M14 0v43q0 25 7 51t31.5 50t71.5 44t127 35q28 5 45.5 9.5t27 9t12.5 8.5t3 9q0 4 -2.5 8.5t-10.5 7.5t-23.5 5t-41.5 2q-31 0 -48.5 -5t-26.5 -12t-12 -15.5t-3 -14.5h-151v4q0 18 6.5 41t29.5 44t68.5 35.5t122.5 14.5h19q73 0 117.5 -9.5t69 -25.5t33 -37.5t8.5 -45.5
v-4q0 -29 -14 -47.5t-41 -31t-66.5 -20.5t-90.5 -16q-54 -8 -90.5 -14.5t-44.5 -18.5h347v-104h-480z" />
    <glyph glyph-name="three.den" unicode="&#xe405;" horiz-adv-x="527" 
d="M241 -5q-80 0 -126.5 16.5t-70 39t-29.5 46t-6 38.5v5h156q0 -4 2 -11.5t11.5 -15t28.5 -13.5t53 -6q33 0 52.5 3t29 7.5t12.5 10t3 10.5v2q0 10 -9 16t-36 6h-122v88h116q27 0 35.5 5.5t8.5 13.5v2q0 4 -3 8.5t-12.5 7.5t-28.5 5t-51 2q-34 0 -52.5 -4.5t-27.5 -10.5
t-10.5 -12t-1.5 -8h-149v5q0 12 5.5 33t27.5 41t67 34.5t123 14.5h31q81 0 128 -9t71 -23.5t31 -31.5t7 -32v-3q0 -23 -19 -40t-51 -22q36 -6 59.5 -28t23.5 -59v-4q0 -23 -9.5 -46t-36.5 -41t-74.5 -29t-123.5 -11h-33z" />
    <glyph glyph-name="four.den" unicode="&#xe406;" horiz-adv-x="522" 
d="M14 152q19 16 39 34q17 15 39 34.5t45 39.5q54 48 122 109h169v-201h79v-99h-79v-69h-149v69h-265v83zM279 168v112l-128 -112h128z" />
    <glyph glyph-name="five.den" unicode="&#xe407;" horiz-adv-x="510" 
d="M240 -5q-76 0 -119.5 14t-65 33t-27 39.5t-5.5 33.5v3h156q0 -2 2.5 -7t11 -10t25 -9t45.5 -4q25 0 41 3.5t24.5 9t11.5 12.5t3 15v3q0 7 -3 14t-12 12.5t-24.5 9t-40.5 3.5q-29 0 -45.5 -4t-25 -9t-11 -10t-2.5 -6h-148v227h438v-91h-290v-57q3 2 11 7t23.5 10.5t38 9.5
t54.5 4h5q56 0 92 -9.5t56.5 -25.5t28 -37.5t7.5 -45.5v-3q0 -24 -8 -48t-30.5 -43.5t-63.5 -31.5t-107 -12h-46z" />
    <glyph glyph-name="six.den" unicode="&#xe408;" horiz-adv-x="550" 
d="M259 -5q-79 0 -126.5 18.5t-72.5 46t-33 60t-8 59.5v12q0 26 8 58t33 59.5t71.5 46.5t123.5 19h31q71 0 116.5 -11.5t71.5 -28.5t36 -37.5t10 -38.5v-3h-150q0 2 -3 6.5t-12 9.5t-27 8.5t-49 3.5q-35 0 -56 -8t-32.5 -20t-15.5 -25t-4 -23v-2q4 3 13.5 8.5t26.5 11.5
t43.5 10t65.5 4h7q66 0 107 -8.5t64 -23.5t31 -34.5t8 -41.5v-4q0 -21 -7.5 -44.5t-32.5 -43t-73 -32t-129 -12.5h-36zM184 122q0 -6 3.5 -12t14.5 -11t30 -8t51 -3t51.5 3t29.5 7.5t13 11t3 12.5v3q0 6 -3.5 12.5t-14 11t-29.5 7.5t-50 3q-32 0 -51 -3t-30 -7.5
t-14.5 -10.5t-3.5 -13v-3z" />
    <glyph glyph-name="seven.den" unicode="&#xe409;" horiz-adv-x="510" 
d="M496 368v-89q-10 -11 -34.5 -38.5t-54.5 -65.5q-21 -27 -33 -49t-17.5 -41.5t-7 -38.5t-1.5 -41v-5h-164v38q0 22 4.5 40t16 36t29.5 38.5t45 46.5q36 35 52.5 51.5t16.5 23.5h-186v-75h-145v169h479z" />
    <glyph glyph-name="eight.den" unicode="&#xe40a;" horiz-adv-x="528" 
d="M507 268q0 -29 -25 -48.5t-57 -25.5q39 -5 65 -27t26 -54v-7q0 -15 -7 -34t-32 -36.5t-72.5 -29t-128.5 -11.5h-24q-82 0 -129.5 11.5t-72 29t-31.5 36.5t-7 34v7q0 31 26 53t65 28q-33 6 -57.5 25.5t-24.5 48.5v6q0 13 6 30.5t29 32.5t69.5 25.5t126.5 10.5h24
q80 0 126 -10.5t69.5 -25.5t29.5 -32.5t6 -30.5v-6zM351 263q0 5 -2.5 10t-11.5 8.5t-26.5 6t-47.5 2.5t-47 -2.5t-26 -6t-11.5 -8.5t-2.5 -10v-1q0 -5 2.5 -10t11.5 -9t26.5 -6.5t46.5 -2.5q30 0 47.5 2.5t26.5 6.5t11.5 9t2.5 10v1zM362 119q0 6 -3.5 11t-14 9.5t-30 7
t-51.5 2.5t-51 -2.5t-29.5 -7t-13.5 -9.5t-3 -11v-2q0 -6 3.5 -11.5t13.5 -10t29 -7t51 -2.5t51.5 2.5t30 7t14 10t3.5 11.5v2z" />
    <glyph glyph-name="nine.den" unicode="&#xe40b;" horiz-adv-x="550" 
d="M365 246q0 6 -3.5 12.5t-14 11.5t-30 8t-50.5 3q-32 0 -51.5 -3t-30 -7.5t-14 -11t-3.5 -12.5v-2q0 -6 4 -12.5t14.5 -11.5t30 -8t50.5 -3t50.5 3t30 7.5t14 10.5t3.5 13v2zM261 -5q-73 0 -118.5 12t-70.5 30t-33.5 38.5t-8.5 36.5v2h150q0 -2 2.5 -6.5t11.5 -9t27 -8.5
t50 -4q34 0 55 8t32 19.5t15 24.5t4 23v2q-4 -2 -13 -7.5t-25.5 -11t-42 -10t-63.5 -4.5h-6q-66 0 -108 9.5t-65 25t-31.5 36t-8.5 42.5v4q0 21 6.5 43t31 41t72 31t128.5 12h35q79 0 127 -18t74 -45.5t34 -59.5t8 -59v-12q0 -26 -8 -58.5t-33.5 -60.5t-72.5 -47t-124 -19
h-31z" />
    <glyph glyph-name="zero.num" unicode="&#xe416;" horiz-adv-x="593" 
d="M309 750q87 0 139 -19t80 -46.5t37 -59t9 -56.5v-15q0 -24 -9 -56t-36.5 -60t-80 -47.5t-139.5 -19.5h-23q-87 0 -140 19.5t-81 47.5t-37 60t-9 56v15q0 25 9 56.5t37 59t81 46.5t140 19h23zM419 566q0 13 -5.5 27.5t-19 26t-37 19t-60.5 7.5t-61 -7.5t-37.5 -19
t-18.5 -26t-5 -27.5v-6q0 -14 5.5 -28.5t19 -27t37 -20.5t60.5 -8q36 0 60 8t37.5 20t19 27t5.5 29v6z" />
    <glyph glyph-name="one.num" unicode="&#xe417;" horiz-adv-x="294" 
d="M15 587v82q51 3 79.5 22.5t42.5 52.5h120v-368h-147v211h-95z" />
    <glyph glyph-name="two.num" unicode="&#xe418;" horiz-adv-x="514" 
d="M14 376v43q0 25 7 51t31.5 50t71.5 44t127 35q28 5 45.5 9.5t27 9t12.5 8.5t3 9q0 4 -2.5 8.5t-10.5 7.5t-23.5 5t-41.5 2q-31 0 -48.5 -5t-26.5 -12t-12 -15.5t-3 -14.5h-151v4q0 18 6.5 41t29.5 44t68.5 35.5t122.5 14.5h19q73 0 117.5 -9.5t69 -25.5t33 -37.5
t8.5 -45.5v-4q0 -29 -14 -47.5t-41 -31t-66.5 -20.5t-90.5 -16q-54 -8 -90.5 -14.5t-44.5 -18.5h347v-104h-480z" />
    <glyph glyph-name="three.num" unicode="&#xe419;" horiz-adv-x="527" 
d="M241 371q-80 0 -126.5 16.5t-70 39t-29.5 46t-6 38.5v5h156q0 -4 2 -11.5t11.5 -15t28.5 -13.5t53 -6q33 0 52.5 3t29 7.5t12.5 10t3 10.5v2q0 10 -9 16t-36 6h-122v88h116q27 0 35.5 5.5t8.5 13.5v2q0 4 -3 8.5t-12.5 7.5t-28.5 5t-51 2q-34 0 -52.5 -4.5t-27.5 -10.5
t-10.5 -12t-1.5 -8h-149v5q0 12 5.5 33t27.5 41t67 34.5t123 14.5h31q81 0 128 -9t71 -23.5t31 -31.5t7 -32v-3q0 -23 -19 -40t-51 -22q36 -6 59.5 -28t23.5 -59v-4q0 -23 -9.5 -46t-36.5 -41t-74.5 -29t-123.5 -11h-33z" />
    <glyph glyph-name="four.num" unicode="&#xe41a;" horiz-adv-x="522" 
d="M14 528q19 16 39 34q17 15 39 34.5t45 39.5q54 48 122 109h169v-201h79v-99h-79v-69h-149v69h-265v83zM279 544v112l-128 -112h128z" />
    <glyph glyph-name="five.num" unicode="&#xe41b;" horiz-adv-x="510" 
d="M240 371q-76 0 -119.5 14t-65 33t-27 39.5t-5.5 33.5v3h156q0 -2 2.5 -7t11 -10t25 -9t45.5 -4q25 0 41 3.5t24.5 9t11.5 12.5t3 15v3q0 7 -3 14t-12 12.5t-24.5 9t-40.5 3.5q-29 0 -45.5 -4t-25 -9t-11 -10t-2.5 -6h-148v227h438v-91h-290v-57q3 2 11 7t23.5 10.5
t38 9.5t54.5 4h5q56 0 92 -9.5t56.5 -25.5t28 -37.5t7.5 -45.5v-3q0 -24 -8 -48t-30.5 -43.5t-63.5 -31.5t-107 -12h-46z" />
    <glyph glyph-name="six.num" unicode="&#xe41c;" horiz-adv-x="550" 
d="M259 371q-79 0 -126.5 18.5t-72.5 46t-33 60t-8 59.5v12q0 26 8 58t33 59.5t71.5 46.5t123.5 19h31q71 0 116.5 -11.5t71.5 -28.5t36 -37.5t10 -38.5v-3h-150q0 2 -3 6.5t-12 9.5t-27 8.5t-49 3.5q-35 0 -56 -8t-32.5 -20t-15.5 -25t-4 -23v-2q4 3 13.5 8.5t26.5 11.5
t43.5 10t65.5 4h7q66 0 107 -8.5t64 -23.5t31 -34.5t8 -41.5v-4q0 -21 -7.5 -44.5t-32.5 -43t-73 -32t-129 -12.5h-36zM184 498q0 -6 3.5 -12t14.5 -11t30 -8t51 -3t51.5 3t29.5 7.5t13 11t3 12.5v3q0 6 -3.5 12.5t-14 11t-29.5 7.5t-50 3q-32 0 -51 -3t-30 -7.5
t-14.5 -10.5t-3.5 -13v-3z" />
    <glyph glyph-name="seven.num" unicode="&#xe41d;" horiz-adv-x="510" 
d="M496 744v-89q-10 -11 -34.5 -38.5t-54.5 -65.5q-21 -27 -33 -49t-17.5 -41.5t-7 -38.5t-1.5 -41v-5h-164v38q0 22 4.5 40t16 36t29.5 38.5t45 46.5q36 35 52.5 51.5t16.5 23.5h-186v-75h-145v169h479z" />
    <glyph glyph-name="eight.num" unicode="&#xe41e;" horiz-adv-x="528" 
d="M507 644q0 -29 -25 -48.5t-57 -25.5q39 -5 65 -27t26 -54v-7q0 -15 -7 -34t-32 -36.5t-72.5 -29t-128.5 -11.5h-24q-82 0 -129.5 11.5t-72 29t-31.5 36.5t-7 34v7q0 31 26 53t65 28q-33 6 -57.5 25.5t-24.5 48.5v6q0 13 6 30.5t29 32.5t69.5 25.5t126.5 10.5h24
q80 0 126 -10.5t69.5 -25.5t29.5 -32.5t6 -30.5v-6zM351 639q0 5 -2.5 10t-11.5 8.5t-26.5 6t-47.5 2.5t-47 -2.5t-26 -6t-11.5 -8.5t-2.5 -10v-1q0 -5 2.5 -10t11.5 -9t26.5 -6.5t46.5 -2.5q30 0 47.5 2.5t26.5 6.5t11.5 9t2.5 10v1zM362 495q0 6 -3.5 11t-14 9.5t-30 7
t-51.5 2.5t-51 -2.5t-29.5 -7t-13.5 -9.5t-3 -11v-2q0 -6 3.5 -11.5t13.5 -10t29 -7t51 -2.5t51.5 2.5t30 7t14 10t3.5 11.5v2z" />
    <glyph glyph-name="nine.num" unicode="&#xe41f;" horiz-adv-x="550" 
d="M365 622q0 6 -3.5 12.5t-14 11.5t-30 8t-50.5 3q-32 0 -51.5 -3t-30 -7.5t-14 -11t-3.5 -12.5v-2q0 -6 4 -12.5t14.5 -11.5t30 -8t50.5 -3t50.5 3t30 7.5t14 10.5t3.5 13v2zM261 371q-73 0 -118.5 12t-70.5 30t-33.5 38.5t-8.5 36.5v2h150q0 -2 2.5 -6.5t11.5 -9t27 -8.5
t50 -4q34 0 55 8t32 19.5t15 24.5t4 23v2q-4 -2 -13 -7.5t-25.5 -11t-42 -10t-63.5 -4.5h-6q-66 0 -108 9.5t-65 25t-31.5 36t-8.5 42.5v4q0 21 6.5 43t31 41t72 31t128.5 12h35q79 0 127 -18t74 -45.5t34 -59.5t8 -59v-12q0 -26 -8 -58.5t-33.5 -60.5t-72.5 -47t-124 -19
h-31z" />
    <glyph glyph-name="uniFB03" unicode="&#xfb03;" horiz-adv-x="1199" 
d="M117 0v390h-103v148h103v64q0 25 7.5 50.5t28 45.5t57 33t94.5 13h161v-132h-86q-26 0 -34 -10.5t-8 -33.5v-30h189v64q0 25 7.5 50.5t28 45.5t57 33t94.5 13h159v-132h-84q-26 0 -34 -10.5t-8 -33.5v-30h126v-148h-126v-390h-220v390h-189v-390h-220zM1158 590h-223v154
h223v-154zM1158 0h-223v538h223v-538z" />
    <glyph glyph-name="uniFB04" unicode="&#xfb04;" horiz-adv-x="1199" 
d="M117 0v390h-103v148h103v64q0 25 7.5 50.5t28 45.5t57 33t94.5 13h161v-132h-86q-26 0 -34 -10.5t-8 -33.5v-30h189v64q0 25 7.5 50.5t28 45.5t57 33t94.5 13h159v-132h-84q-26 0 -34 -10.5t-8 -33.5v-30h126v-148h-126v-390h-220v390h-189v-390h-220zM1158 0h-223v744
h223v-744z" />
    <glyph glyph-name="idotaccent" horiz-adv-x="317" 
d="M270 590h-223v154h223v-154zM270 0h-223v538h223v-538z" />
    <glyph glyph-name="space_uni0326" 
d="M313 -283q9 20 16.5 40.5t12.5 40.5h-100v150h223v-120q0 -14 -3.5 -29t-9.5 -30t-13 -28.5t-13 -23.5h-113z" />
    <glyph glyph-name="J.alt" horiz-adv-x="505" 
d="M29 185h107q45 0 67.5 22.5t22.5 85.5v451h233v-501q0 -118 -53.5 -180.5t-166.5 -62.5h-210v185z" />
    <glyph glyph-name="IJ.alt" horiz-adv-x="846" 
d="M290 0h-233v744h233v-744zM370 185h107q45 0 67.5 22.5t22.5 85.5v451h233v-501q0 -118 -53.5 -180.5t-166.5 -62.5h-210v185z" />
    <glyph glyph-name="a.alt" horiz-adv-x="783" 
d="M522 256l-213 -33q-43 -7 -62 -17t-19 -33v-1q0 -11 4.5 -22t16 -19.5t30 -14t47.5 -5.5q45 0 81 11t61.5 29t39.5 41t14 47v17zM528 74q-9 -11 -27 -25t-47.5 -27.5t-72 -22.5t-102.5 -9h-13q-68 0 -115.5 14.5t-77.5 39t-43.5 56t-13.5 66.5v7q0 74 52.5 112t173.5 49
l246 23q19 2 26.5 8.5t7.5 19.5q0 7 -3.5 15t-17.5 14.5t-42 10.5t-77 4h-5q-50 0 -78 -7t-41.5 -16.5t-17 -19.5t-4.5 -17h-207v2q0 18 3 38.5t13.5 40.5t31.5 38.5t56.5 33t88.5 23t128 8.5h55q117 0 183.5 -16t99.5 -42t41 -58.5t8 -65.5v-189q0 -45 1.5 -75t3.5 -50
t4.5 -31.5t4.5 -20.5v-5h-212q-4 8 -7.5 26.5t-3.5 47.5z" />
    <glyph glyph-name="a.alt2" horiz-adv-x="883" 
d="M612 272q0 25 -13 50t-37.5 44.5t-60 31.5t-80.5 12h-5q-48 0 -80 -12.5t-51 -32t-27 -44t-8 -49.5v-4q0 -23 9 -48t29.5 -45t52.5 -33t78 -13h5q45 0 80 12.5t59 32.5t36.5 44.5t12.5 49.5v4zM836 538v-538h-222v83q-6 -9 -23.5 -25t-48 -32t-74.5 -27.5t-103 -11.5h-14
q-85 0 -147 22.5t-102.5 60.5t-60 88t-19.5 106v19q0 52 19 100.5t58.5 85.5t99.5 59.5t142 22.5h15q58 0 102.5 -10t75.5 -23.5t50 -28t28 -23.5v72h224z" />
    <glyph glyph-name="r.alt" horiz-adv-x="546" 
d="M270 0h-223v538h221v-125q12 24 31 48t48.5 44t71 32.5t97.5 12.5v-215q-9 3 -33 8t-65 5q-78 0 -113 -32.5t-35 -80.5v-235z" />
    <glyph glyph-name="Jcircumflex.alt" horiz-adv-x="505" 
d="M29 185h107q45 0 67.5 22.5t22.5 85.5v451h233v-501q0 -118 -53.5 -180.5t-166.5 -62.5h-210v185zM625 796h-220l-66 58l-65 -58h-217l157 150h251z" />
    <glyph glyph-name="aacute.alt" horiz-adv-x="783" 
d="M362 744h230l-107 -154h-213zM522 256l-213 -33q-43 -7 -62 -17t-19 -33v-1q0 -11 4.5 -22t16 -19.5t30 -14t47.5 -5.5q45 0 81 11t61.5 29t39.5 41t14 47v17zM528 74q-9 -11 -27 -25t-47.5 -27.5t-72 -22.5t-102.5 -9h-13q-68 0 -115.5 14.5t-77.5 39t-43.5 56
t-13.5 66.5v7q0 74 52.5 112t173.5 49l246 23q19 2 26.5 8.5t7.5 19.5q0 7 -3.5 15t-17.5 14.5t-42 10.5t-77 4h-5q-50 0 -78 -7t-41.5 -16.5t-17 -19.5t-4.5 -17h-207v2q0 18 3 38.5t13.5 40.5t31.5 38.5t56.5 33t88.5 23t128 8.5h55q117 0 183.5 -16t99.5 -42t41 -58.5
t8 -65.5v-189q0 -45 1.5 -75t3.5 -50t4.5 -31.5t4.5 -20.5v-5h-212q-4 8 -7.5 26.5t-3.5 47.5z" />
    <glyph glyph-name="aacute.alt2" horiz-adv-x="883" 
d="M612 272q0 25 -13 50t-37.5 44.5t-60 31.5t-80.5 12h-5q-48 0 -80 -12.5t-51 -32t-27 -44t-8 -49.5v-4q0 -23 9 -48t29.5 -45t52.5 -33t78 -13h5q45 0 80 12.5t59 32.5t36.5 44.5t12.5 49.5v4zM836 538v-538h-222v83q-6 -9 -23.5 -25t-48 -32t-74.5 -27.5t-103 -11.5h-14
q-85 0 -147 22.5t-102.5 60.5t-60 88t-19.5 106v19q0 52 19 100.5t58.5 85.5t99.5 59.5t142 22.5h15q58 0 102.5 -10t75.5 -23.5t50 -28t28 -23.5v72h224zM403 744h230l-107 -154h-213z" />
    <glyph glyph-name="abreve.alt" horiz-adv-x="783" 
d="M366 582q-68 0 -110.5 18t-65.5 43t-31 52.5t-8 46.5v2h170q0 -5 2.5 -13t9 -16t18.5 -14t32 -6q19 0 31 6t18.5 14t9 16t2.5 13h166v-2q0 -19 -10 -46.5t-34 -52.5t-65 -43t-103 -18h-32v0zM522 256l-213 -33q-43 -7 -62 -17t-19 -33v-1q0 -11 4.5 -22t16 -19.5t30 -14
t47.5 -5.5q45 0 81 11t61.5 29t39.5 41t14 47v17zM528 74q-9 -11 -27 -25t-47.5 -27.5t-72 -22.5t-102.5 -9h-13q-68 0 -115.5 14.5t-77.5 39t-43.5 56t-13.5 66.5v7q0 74 52.5 112t173.5 49l246 23q19 2 26.5 8.5t7.5 19.5q0 7 -3.5 15t-17.5 14.5t-42 10.5t-77 4h-5
q-50 0 -78 -7t-41.5 -16.5t-17 -19.5t-4.5 -17h-207v2q0 18 3 38.5t13.5 40.5t31.5 38.5t56.5 33t88.5 23t128 8.5h55q117 0 183.5 -16t99.5 -42t41 -58.5t8 -65.5v-189q0 -45 1.5 -75t3.5 -50t4.5 -31.5t4.5 -20.5v-5h-212q-4 8 -7.5 26.5t-3.5 47.5z" />
    <glyph glyph-name="abreve.alt2" horiz-adv-x="883" 
d="M612 272q0 25 -13 50t-37.5 44.5t-60 31.5t-80.5 12h-5q-48 0 -80 -12.5t-51 -32t-27 -44t-8 -49.5v-4q0 -23 9 -48t29.5 -45t52.5 -33t78 -13h5q45 0 80 12.5t59 32.5t36.5 44.5t12.5 49.5v4zM836 538v-538h-222v83q-6 -9 -23.5 -25t-48 -32t-74.5 -27.5t-103 -11.5h-14
q-85 0 -147 22.5t-102.5 60.5t-60 88t-19.5 106v19q0 52 19 100.5t58.5 85.5t99.5 59.5t142 22.5h15q58 0 102.5 -10t75.5 -23.5t50 -28t28 -23.5v72h224zM407 582q-68 0 -110.5 18t-65.5 43t-31 52.5t-8 46.5v2h170q0 -5 2.5 -13t9 -16t18.5 -14t32 -6q19 0 31 6t18.5 14
t9 16t2.5 13h166v-2q0 -19 -10 -46.5t-34 -52.5t-65 -43t-103 -18h-32v0z" />
    <glyph glyph-name="acircumflex.alt" horiz-adv-x="783" 
d="M653 589h-215l-61 64l-61 -64h-212l150 155h247zM522 256l-213 -33q-43 -7 -62 -17t-19 -33v-1q0 -11 4.5 -22t16 -19.5t30 -14t47.5 -5.5q45 0 81 11t61.5 29t39.5 41t14 47v17zM528 74q-9 -11 -27 -25t-47.5 -27.5t-72 -22.5t-102.5 -9h-13q-68 0 -115.5 14.5t-77.5 39
t-43.5 56t-13.5 66.5v7q0 74 52.5 112t173.5 49l246 23q19 2 26.5 8.5t7.5 19.5q0 7 -3.5 15t-17.5 14.5t-42 10.5t-77 4h-5q-50 0 -78 -7t-41.5 -16.5t-17 -19.5t-4.5 -17h-207v2q0 18 3 38.5t13.5 40.5t31.5 38.5t56.5 33t88.5 23t128 8.5h55q117 0 183.5 -16t99.5 -42
t41 -58.5t8 -65.5v-189q0 -45 1.5 -75t3.5 -50t4.5 -31.5t4.5 -20.5v-5h-212q-4 8 -7.5 26.5t-3.5 47.5z" />
    <glyph glyph-name="acircumflex.alt2" horiz-adv-x="883" 
d="M612 272q0 25 -13 50t-37.5 44.5t-60 31.5t-80.5 12h-5q-48 0 -80 -12.5t-51 -32t-27 -44t-8 -49.5v-4q0 -23 9 -48t29.5 -45t52.5 -33t78 -13h5q45 0 80 12.5t59 32.5t36.5 44.5t12.5 49.5v4zM836 538v-538h-222v83q-6 -9 -23.5 -25t-48 -32t-74.5 -27.5t-103 -11.5h-14
q-85 0 -147 22.5t-102.5 60.5t-60 88t-19.5 106v19q0 52 19 100.5t58.5 85.5t99.5 59.5t142 22.5h15q58 0 102.5 -10t75.5 -23.5t50 -28t28 -23.5v72h224zM688 590h-215l-61 64l-61 -64h-212l150 155h247z" />
    <glyph glyph-name="adieresis.alt" horiz-adv-x="783" 
d="M619 590h-216v154h216v-154zM353 590h-215v154h215v-154zM522 256l-213 -33q-43 -7 -62 -17t-19 -33v-1q0 -11 4.5 -22t16 -19.5t30 -14t47.5 -5.5q45 0 81 11t61.5 29t39.5 41t14 47v17zM528 74q-9 -11 -27 -25t-47.5 -27.5t-72 -22.5t-102.5 -9h-13q-68 0 -115.5 14.5
t-77.5 39t-43.5 56t-13.5 66.5v7q0 74 52.5 112t173.5 49l246 23q19 2 26.5 8.5t7.5 19.5q0 7 -3.5 15t-17.5 14.5t-42 10.5t-77 4h-5q-50 0 -78 -7t-41.5 -16.5t-17 -19.5t-4.5 -17h-207v2q0 18 3 38.5t13.5 40.5t31.5 38.5t56.5 33t88.5 23t128 8.5h55q117 0 183.5 -16
t99.5 -42t41 -58.5t8 -65.5v-189q0 -45 1.5 -75t3.5 -50t4.5 -31.5t4.5 -20.5v-5h-212q-4 8 -7.5 26.5t-3.5 47.5z" />
    <glyph glyph-name="adieresis.alt2" horiz-adv-x="883" 
d="M612 272q0 25 -13 50t-37.5 44.5t-60 31.5t-80.5 12h-5q-48 0 -80 -12.5t-51 -32t-27 -44t-8 -49.5v-4q0 -23 9 -48t29.5 -45t52.5 -33t78 -13h5q45 0 80 12.5t59 32.5t36.5 44.5t12.5 49.5v4zM836 538v-538h-222v83q-6 -9 -23.5 -25t-48 -32t-74.5 -27.5t-103 -11.5h-14
q-85 0 -147 22.5t-102.5 60.5t-60 88t-19.5 106v19q0 52 19 100.5t58.5 85.5t99.5 59.5t142 22.5h15q58 0 102.5 -10t75.5 -23.5t50 -28t28 -23.5v72h224zM655 590h-216v154h216v-154zM389 590h-215v154h215v-154z" />
    <glyph glyph-name="agrave.alt" horiz-adv-x="783" 
d="M274 590l-107 154h232l90 -154h-215zM522 256l-213 -33q-43 -7 -62 -17t-19 -33v-1q0 -11 4.5 -22t16 -19.5t30 -14t47.5 -5.5q45 0 81 11t61.5 29t39.5 41t14 47v17zM528 74q-9 -11 -27 -25t-47.5 -27.5t-72 -22.5t-102.5 -9h-13q-68 0 -115.5 14.5t-77.5 39t-43.5 56
t-13.5 66.5v7q0 74 52.5 112t173.5 49l246 23q19 2 26.5 8.5t7.5 19.5q0 7 -3.5 15t-17.5 14.5t-42 10.5t-77 4h-5q-50 0 -78 -7t-41.5 -16.5t-17 -19.5t-4.5 -17h-207v2q0 18 3 38.5t13.5 40.5t31.5 38.5t56.5 33t88.5 23t128 8.5h55q117 0 183.5 -16t99.5 -42t41 -58.5
t8 -65.5v-189q0 -45 1.5 -75t3.5 -50t4.5 -31.5t4.5 -20.5v-5h-212q-4 8 -7.5 26.5t-3.5 47.5z" />
    <glyph glyph-name="agrave.alt2" horiz-adv-x="883" 
d="M612 272q0 25 -13 50t-37.5 44.5t-60 31.5t-80.5 12h-5q-48 0 -80 -12.5t-51 -32t-27 -44t-8 -49.5v-4q0 -23 9 -48t29.5 -45t52.5 -33t78 -13h5q45 0 80 12.5t59 32.5t36.5 44.5t12.5 49.5v4zM836 538v-538h-222v83q-6 -9 -23.5 -25t-48 -32t-74.5 -27.5t-103 -11.5h-14
q-85 0 -147 22.5t-102.5 60.5t-60 88t-19.5 106v19q0 52 19 100.5t58.5 85.5t99.5 59.5t142 22.5h15q58 0 102.5 -10t75.5 -23.5t50 -28t28 -23.5v72h224zM308 590l-107 154h232l90 -154h-215z" />
    <glyph glyph-name="amacron.alt" horiz-adv-x="783" 
d="M522 256l-213 -33q-43 -7 -62 -17t-19 -33v-1q0 -11 4.5 -22t16 -19.5t30 -14t47.5 -5.5q45 0 81 11t61.5 29t39.5 41t14 47v17zM528 74q-9 -11 -27 -25t-47.5 -27.5t-72 -22.5t-102.5 -9h-13q-68 0 -115.5 14.5t-77.5 39t-43.5 56t-13.5 66.5v7q0 74 52.5 112t173.5 49
l246 23q19 2 26.5 8.5t7.5 19.5q0 7 -3.5 15t-17.5 14.5t-42 10.5t-77 4h-5q-50 0 -78 -7t-41.5 -16.5t-17 -19.5t-4.5 -17h-207v2q0 18 3 38.5t13.5 40.5t31.5 38.5t56.5 33t88.5 23t128 8.5h55q117 0 183.5 -16t99.5 -42t41 -58.5t8 -65.5v-189q0 -45 1.5 -75t3.5 -50
t4.5 -31.5t4.5 -20.5v-5h-212q-4 8 -7.5 26.5t-3.5 47.5zM167 723h422v-122h-422v122z" />
    <glyph glyph-name="amacron.alt2" horiz-adv-x="883" 
d="M612 272q0 25 -13 50t-37.5 44.5t-60 31.5t-80.5 12h-5q-48 0 -80 -12.5t-51 -32t-27 -44t-8 -49.5v-4q0 -23 9 -48t29.5 -45t52.5 -33t78 -13h5q45 0 80 12.5t59 32.5t36.5 44.5t12.5 49.5v4zM836 538v-538h-222v83q-6 -9 -23.5 -25t-48 -32t-74.5 -27.5t-103 -11.5h-14
q-85 0 -147 22.5t-102.5 60.5t-60 88t-19.5 106v19q0 52 19 100.5t58.5 85.5t99.5 59.5t142 22.5h15q58 0 102.5 -10t75.5 -23.5t50 -28t28 -23.5v72h224zM210 723h422v-122h-422v122z" />
    <glyph glyph-name="aogonek.alt" horiz-adv-x="783" 
d="M522 256l-213 -33q-43 -7 -62 -17t-19 -33v-1q0 -11 4.5 -22t16 -19.5t30 -14t47.5 -5.5q45 0 81 11t61.5 29t39.5 41t14 47v17zM528 74q-9 -11 -27 -25t-47.5 -27.5t-72 -22.5t-102.5 -9h-13q-68 0 -115.5 14.5t-77.5 39t-43.5 56t-13.5 66.5v7q0 74 52.5 112t173.5 49
l246 23q19 2 26.5 8.5t7.5 19.5q0 7 -3.5 15t-17.5 14.5t-42 10.5t-77 4h-5q-50 0 -78 -7t-41.5 -16.5t-17 -19.5t-4.5 -17h-207v2q0 18 3 38.5t13.5 40.5t31.5 38.5t56.5 33t88.5 23t128 8.5h55q117 0 183.5 -16t99.5 -42t41 -58.5t8 -65.5v-189q0 -45 1.5 -75t3.5 -50
t4.5 -31.5t4.5 -20.5v-5h-212q-4 8 -7.5 26.5t-3.5 47.5zM616 -188q-66 0 -98 18.5t-32 52.5v2q0 40 44.5 66t124.5 49h96q-26 -18 -42.5 -33t-16.5 -30q0 -23 38 -23h21v-102h-135z" />
    <glyph glyph-name="aogonek.alt2" horiz-adv-x="883" 
d="M612 272q0 25 -13 50t-37.5 44.5t-60 31.5t-80.5 12h-5q-48 0 -80 -12.5t-51 -32t-27 -44t-8 -49.5v-4q0 -23 9 -48t29.5 -45t52.5 -33t78 -13h5q45 0 80 12.5t59 32.5t36.5 44.5t12.5 49.5v4zM836 538v-538h-222v83q-6 -9 -23.5 -25t-48 -32t-74.5 -27.5t-103 -11.5h-14
q-85 0 -147 22.5t-102.5 60.5t-60 88t-19.5 106v19q0 52 19 100.5t58.5 85.5t99.5 59.5t142 22.5h15q58 0 102.5 -10t75.5 -23.5t50 -28t28 -23.5v72h224zM701 -188q-66 0 -98 18.5t-32 52.5v2q0 40 44.5 66t124.5 49h96q-26 -18 -42.5 -33t-16.5 -30q0 -23 38 -23h21v-102
h-135z" />
    <glyph glyph-name="aring.alt" horiz-adv-x="783" 
d="M522 256l-213 -33q-43 -7 -62 -17t-19 -33v-1q0 -11 4.5 -22t16 -19.5t30 -14t47.5 -5.5q45 0 81 11t61.5 29t39.5 41t14 47v17zM528 74q-9 -11 -27 -25t-47.5 -27.5t-72 -22.5t-102.5 -9h-13q-68 0 -115.5 14.5t-77.5 39t-43.5 56t-13.5 66.5v7q0 74 52.5 112t173.5 49
l246 23q19 2 26.5 8.5t7.5 19.5q0 7 -3.5 15t-17.5 14.5t-42 10.5t-77 4h-5q-50 0 -78 -7t-41.5 -16.5t-17 -19.5t-4.5 -17h-207v2q0 18 3 38.5t13.5 40.5t31.5 38.5t56.5 33t88.5 23t128 8.5h55q117 0 183.5 -16t99.5 -42t41 -58.5t8 -65.5v-189q0 -45 1.5 -75t3.5 -50
t4.5 -31.5t4.5 -20.5v-5h-212q-4 8 -7.5 26.5t-3.5 47.5zM188 699q0 24 9.5 45t31.5 37t59 25t91 9t90 -9t57.5 -25t30.5 -37t9 -45q0 -25 -9 -46.5t-30.5 -37.5t-57.5 -25t-90 -9q-56 0 -92.5 9.5t-58.5 25.5t-31 37.5t-9 45.5zM303 699q0 -21 18 -34t58 -13q39 0 56 13
t17 34q0 20 -17 32.5t-56 12.5q-40 0 -58 -12.5t-18 -32.5z" />
    <glyph glyph-name="aring.alt2" horiz-adv-x="883" 
d="M612 272q0 25 -13 50t-37.5 44.5t-60 31.5t-80.5 12h-5q-48 0 -80 -12.5t-51 -32t-27 -44t-8 -49.5v-4q0 -23 9 -48t29.5 -45t52.5 -33t78 -13h5q45 0 80 12.5t59 32.5t36.5 44.5t12.5 49.5v4zM836 538v-538h-222v83q-6 -9 -23.5 -25t-48 -32t-74.5 -27.5t-103 -11.5h-14
q-85 0 -147 22.5t-102.5 60.5t-60 88t-19.5 106v19q0 52 19 100.5t58.5 85.5t99.5 59.5t142 22.5h15q58 0 102.5 -10t75.5 -23.5t50 -28t28 -23.5v72h224zM223 699q0 24 9.5 45t31.5 37t59 25t91 9t90 -9t57.5 -25t30.5 -37t9 -45q0 -25 -9 -46.5t-30.5 -37.5t-57.5 -25
t-90 -9q-56 0 -92.5 9.5t-58.5 25.5t-31 37.5t-9 45.5zM338 699q0 -21 18 -34t58 -13q39 0 56 13t17 34q0 20 -17 32.5t-56 12.5q-40 0 -58 -12.5t-18 -32.5z" />
    </font>
</defs>
</svg>
